<?xml version="1.0" encoding="UTF-8" standalone="no"?>
<!DOCTYPE svg PUBLIC "-//W3C//DTD SVG 1.1//EN" "http://www.w3.org/Graphics/SVG/1.1/DTD/svg11.dtd">
<svg width="100%" height="100%" viewBox="0 0 800 937" version="1.1" xmlns="http://www.w3.org/2000/svg" xmlns:xlink="http://www.w3.org/1999/xlink" xml:space="preserve" xmlns:serif="http://www.serif.com/" style="fill-rule:evenodd;clip-rule:evenodd;stroke-linejoin:round;stroke-miterlimit:2;">
    <g transform="matrix(11.4229,0,0,11.56,739.901,98.106)">
        <path d="M0,64.082C-2.095,62.019 -4.364,60.541 -7.381,60.541L-51.147,60.541L-51.147,5.541L-11.147,5.541L-11.147,38.541L-34.147,38.541L-34.147,26.541L-28.147,26.541L-28.147,33.541L-16.147,33.541L-16.147,26.028C-16.147,23.064 -17.87,20.618 -19.895,18.561C-21.921,16.505 -25.125,15.541 -28.088,15.541L-34.72,15.541C-37.625,15.541 -40.057,16.52 -42.112,18.607C-44.168,20.693 -45.147,23.124 -45.147,26.028L-45.147,37.718C-45.147,44.795 -41.738,48.541 -34.72,48.541L-10.883,48.541C-3.866,48.541 -0.147,44.795 -0.147,37.718L-0.147,5.694C-0.147,2.731 -1.268,-0.049 -3.293,-2.106C-5.318,-4.162 -7.92,-5.459 -10.883,-5.459L-51.926,-5.459C-54.83,-5.459 -57.159,-4.147 -59.215,-2.06C-61.271,0.026 -62.147,2.791 -62.147,5.694L-62.147,59.615C-62.147,66.692 -58.944,69.541 -51.926,69.541L2.635,69.541C2.287,67.471 1.482,65.543 0,64.082" style="fill:rgb(152,4,4);fill-rule:nonzero;"/>
    </g>
</svg>
