<?xml version="1.0" encoding="UTF-8" standalone="no"?>
<!DOCTYPE svg PUBLIC "-//W3C//DTD SVG 1.1//EN" "http://www.w3.org/Graphics/SVG/1.1/DTD/svg11.dtd">
<svg width="100%" height="100%" viewBox="0 0 580 100" version="1.1" xmlns="http://www.w3.org/2000/svg" xmlns:xlink="http://www.w3.org/1999/xlink" xml:space="preserve" xmlns:serif="http://www.serif.com/" style="fill-rule:evenodd;clip-rule:evenodd;stroke-linejoin:round;stroke-miterlimit:2;">
    <g transform="matrix(1,0,0,1,-43.4704,-232.839)">
        <path d="M202.951,263.392L183.059,263.392L183.059,283.512L202.951,283.512L202.951,263.392ZM209.563,283.512C209.563,287.959 207.358,290.181 202.951,290.181L183.059,290.181C178.65,290.181 176.447,287.959 176.447,283.512L176.447,263.392C176.447,261.568 177.093,260.001 178.384,258.69C179.676,257.379 181.235,256.723 183.059,256.723L202.951,256.723C204.813,256.723 206.38,257.369 207.653,258.661C208.926,259.954 209.563,261.53 209.563,263.392L209.563,283.512Z" style="fill:rgb(77,77,77);fill-rule:nonzero;"/>
    </g>
    <g transform="matrix(1,0,0,1,94.634,-232.839)">
        <path d="M202.951,263.392L183.059,263.392L183.059,283.512L202.951,283.512L202.951,263.392ZM209.563,283.512C209.563,287.959 207.358,290.181 202.951,290.181L183.059,290.181C178.65,290.181 176.447,287.959 176.447,283.512L176.447,263.392C176.447,261.568 177.093,260.001 178.384,258.69C179.676,257.379 181.235,256.723 183.059,256.723L202.951,256.723C204.813,256.723 206.38,257.369 207.653,258.661C208.926,259.954 209.563,261.53 209.563,263.392L209.563,283.512Z" style="fill:rgb(153,153,153);fill-rule:nonzero;"/>
    </g>
    <g transform="matrix(1,0,0,1,258.446,-232.839)">
        <path d="M202.951,263.392L183.059,263.392L183.059,283.512L202.951,283.512L202.951,263.392ZM209.563,283.512C209.563,287.959 207.358,290.181 202.951,290.181L183.059,290.181C178.65,290.181 176.447,287.959 176.447,283.512L176.447,263.392C176.447,261.568 177.093,260.001 178.384,258.69C179.676,257.379 181.235,256.723 183.059,256.723L202.951,256.723C204.813,256.723 206.38,257.369 207.653,258.661C208.926,259.954 209.563,261.53 209.563,263.392L209.563,283.512Z" style="fill:rgb(153,153,153);fill-rule:nonzero;"/>
    </g>
    <g transform="matrix(-1.83697e-16,1,-1,-1.83697e-16,522.794,-189.554)">
        <path d="M246.896,256.723L246.896,264.87C246.896,266.809 246.269,268.405 245.014,269.66C243.76,270.914 242.163,271.541 240.225,271.541L203.902,271.541L203.902,264.87L213.425,264.87L213.425,258.256L220.096,258.256L220.096,264.87L240.225,264.87L240.284,262.783C240.284,262.783 240.031,260.633 242.113,258.552C243.87,256.795 246.896,256.723 246.896,256.723Z" style="fill:rgb(153,153,153);"/>
    </g>
    <g transform="matrix(-1.83697e-16,1,-1,-1.83697e-16,673.984,-189.554)">
        <path d="M246.896,256.723L246.896,264.87C246.896,266.809 246.269,268.405 245.014,269.66C243.76,270.914 242.163,271.541 240.225,271.541L203.902,271.541L203.902,264.87L213.425,264.87L213.425,258.256L220.096,258.256L220.096,264.87L240.225,264.87L240.284,262.783C240.284,262.783 240.031,260.633 242.113,258.552C243.87,256.795 246.896,256.723 246.896,256.723Z" style="fill:rgb(153,153,153);"/>
    </g>
    <g transform="matrix(1,0,0,1,428.882,23.7243)">
        <path d="M0,33.618L-6.611,33.618L-6.611,0.16C-6.611,0.16 -3.942,0 -1.891,2.052C0.003,3.945 0,6.417 0,6.417L0,33.618Z" style="fill:rgb(153,153,153);fill-rule:nonzero;"/>
    </g>
    <g transform="matrix(1,0,0,1,341.613,24.0901)">
        <path d="M-11.5,6.457L-24.795,6.457L-24.795,33.246L-31.406,33.246L-31.406,-0.212L8.197,-0.212C12.605,-0.212 14.809,2.011 14.809,6.457L14.809,33.246C14.809,33.246 12.088,33.458 10.037,31.406C8.073,29.443 8.197,26.786 8.197,26.786L8.197,6.457L-4.809,6.457L-4.809,33.252L-11.5,33.252L-11.5,6.457Z" style="fill:rgb(153,153,153);"/>
    </g>
    <g transform="matrix(1,0,0,1,-44.0336,-232.658)">
        <path d="M164,283L145,283L145,277L164,277L164,283ZM169.106,258.791C167.872,257.537 166.244,257 164.306,257L143.077,257C141.802,257 140.774,257.667 139.826,258.628C138.553,259.921 138,261.299 138,263.161L138,264L164,264L164,271L144.413,271C142.477,271 140.988,271.235 139.754,272.488C138.518,273.741 138,274.945 138,276.883L138,283.608C138,285.509 138.527,286.957 139.782,288.229C141.036,289.504 142.513,290 144.413,290L171,290L171,263.488C171,261.55 170.341,260.045 169.106,258.791" style="fill:rgb(77,77,77);fill-rule:nonzero;"/>
    </g>
    <g transform="matrix(1,0,0,1,224.433,-232.658)">
        <path d="M164,283L145,283L145,277L164,277L164,283ZM169.106,258.791C167.872,257.537 166.244,257 164.306,257L143.077,257C141.802,257 140.774,257.667 139.826,258.628C138.553,259.921 138,261.299 138,263.161L138,264L164,264L164,271L144.413,271C142.477,271 140.988,271.235 139.754,272.488C138.518,273.741 138,274.945 138,276.883L138,283.608C138,285.509 138.527,286.957 139.782,288.229C141.036,289.504 142.513,290 144.413,290L171,290L171,263.488C171,261.55 170.341,260.045 169.106,258.791" style="fill:rgb(153,153,153);fill-rule:nonzero;"/>
    </g>
    <g transform="matrix(1,0,0,1,34.1027,-232.658)">
        <path d="M164,283L145,283L145,277L164,277L164,283ZM169.106,258.791C167.872,257.537 166.244,257 164.306,257L143.077,257C141.802,257 140.774,257.667 139.826,258.628C138.553,259.921 138,261.299 138,263.161L138,264L164,264L164,271L144.413,271C142.477,271 140.988,271.235 139.754,272.488C138.518,273.741 138,274.945 138,276.883L138,283.608C138,285.509 138.527,286.957 139.782,288.229C141.036,289.504 142.513,290 144.413,290L171,290L171,263.488C171,261.55 170.341,260.045 169.106,258.791" style="fill:rgb(153,153,153);fill-rule:nonzero;"/>
    </g>
    <g transform="matrix(1,0,0,1,541.191,41.8243)">
        <path d="M0,-1.964C-1.255,-3.237 -3.195,-3.482 -5.095,-3.482L-22.756,-3.482L-22.756,-10.482L0.244,-10.482L0.244,-11.32C0.244,-13.182 -0.588,-14.56 -1.859,-15.853C-2.809,-16.815 -4.115,-17.482 -5.391,-17.482L-22.764,-17.482C-24.61,-17.482 -26.364,-16.926 -27.644,-15.634C-28.926,-14.341 -29.756,-12.855 -29.756,-10.993L-29.756,-4.268C-29.756,-2.292 -28.965,-0.627 -27.757,0.606C-26.552,1.843 -24.761,2.518 -22.764,2.518L-4.756,2.518L-4.756,8.518L-22.724,8.518C-24.586,8.518 -25.846,9.255 -27.137,10.527C-28.428,11.802 -28.756,13.468 -28.756,15.329L-28.756,15.518L-5.095,15.518C-3.12,15.518 -1.16,15.041 0.057,13.806C1.272,12.571 2.244,11.103 2.244,9.127L2.244,2.401C2.244,0.502 1.253,-0.692 0,-1.964" style="fill:rgb(153,153,153);fill-rule:nonzero;"/>
    </g>
    <g transform="matrix(1,0,0,1,390.114,17.959)">
        <path d="M175.284,64.082C173.189,62.019 170.92,60.541 167.903,60.541L-367.147,60.541L-367.147,5.541L-327.147,5.541L-327.147,38.541L-350.147,38.541L-350.147,26.541L-344.147,26.541L-344.147,33.541L-332.147,33.541L-332.147,26.028C-332.147,23.064 -333.87,20.618 -335.895,18.561C-337.921,16.505 -341.125,15.541 -344.088,15.541L-350.72,15.541C-353.625,15.541 -356.057,16.52 -358.112,18.607C-360.168,20.693 -361.147,23.124 -361.147,26.028L-361.147,37.718C-361.147,44.795 -357.738,48.541 -350.72,48.541L-326.883,48.541C-319.866,48.541 -316.147,44.795 -316.147,37.718L-316.147,5.694C-316.147,2.731 -317.268,-0.049 -319.293,-2.106C-321.318,-4.162 -323.92,-5.459 -326.883,-5.459L-367.926,-5.459C-370.83,-5.459 -373.159,-4.147 -375.215,-2.06C-377.271,0.026 -378.147,2.791 -378.147,5.694L-378.147,59.615C-378.147,66.692 -374.944,69.541 -367.926,69.541L177.919,69.541C177.571,67.471 176.766,65.543 175.284,64.082" style="fill:rgb(152,4,4);fill-rule:nonzero;"/>
    </g>
    <g transform="matrix(5.60659,0,0,2.84521,-1969.61,-959.976)">
        <path d="M394.865,355.21C394.865,355.905 394.757,356.469 394.54,356.904C394.323,357.338 394.038,357.555 393.686,357.555L390.146,357.555C389.801,357.555 389.516,357.335 389.292,356.894C389.068,356.453 388.956,355.892 388.956,355.21L388.956,345.791L390.146,345.791L390.146,355.21L393.686,355.21L393.686,345.791L394.865,345.791L394.865,355.21Z" style="fill:rgb(153,153,153);fill-rule:nonzero;"/>
    </g>
    <g transform="matrix(1,0,0,1,505.425,24.0901)">
        <path d="M0,33.246C0,33.246 -2.721,33.458 -4.772,31.406C-6.736,29.443 -6.612,26.786 -6.612,26.786L-6.612,6.457L-24.795,6.457L-24.795,33.246L-31.406,33.246L-31.406,-0.212L-6.612,-0.212C-2.204,-0.212 0,2.011 0,6.457L0,33.246Z" style="fill:rgb(153,153,153);fill-rule:nonzero;"/>
    </g>
</svg>
