<?xml version="1.0" encoding="UTF-8"?>
<svg version="1.1" xmlns="http://www.w3.org/2000/svg" width="512" height="512">
<path d="M0 0 C10.15987363 7.4699914 17.8328507 17.53323775 20.09375 30.1328125 C22.19472391 46.76792097 15.76375295 62.11544692 5.87890625 75.265625 C-5.39774441 88.96763068 -21.77754399 100.90498915 -39.77734375 103.234375 C-40.38578125 103.2859375 -40.99421875 103.3375 -41.62109375 103.390625 C-43.3200479 99.68933203 -43.89328112 96.76896104 -43.87109375 92.703125 C-43.87625 91.75050781 -43.88140625 90.79789062 -43.88671875 89.81640625 C-43.62109375 87.390625 -43.62109375 87.390625 -41.62109375 85.390625 C-39.51046076 84.64056534 -37.38213932 83.93991753 -35.24609375 83.265625 C-20.70964381 78.3175653 -9.97092685 69.08818082 -2.68359375 55.578125 C1.0651213 47.56633633 4.19300285 38.06826861 1.26171875 29.29296875 C-2.70117389 20.75346116 -7.55488585 16.22286114 -15.98046875 12.2890625 C-22.92569525 9.92604165 -30.59023138 10.46731011 -37.18359375 13.578125 C-40.13680237 15.14686145 -41.48160509 16.17513906 -43.3203125 19.015625 C-46.31390891 22.10578904 -48.20266155 22.03427313 -52.37109375 22.18554688 C-53.60859375 22.19424805 -53.60859375 22.19424805 -54.87109375 22.203125 C-56.13179687 22.24083008 -56.13179687 22.24083008 -57.41796875 22.27929688 C-59.48517603 22.33802435 -61.55318486 22.36722274 -63.62109375 22.390625 C-62.52448349 13.88881511 -58.52597293 7.65018296 -52.05859375 2.078125 C-36.31861846 -9.46920806 -16.69863561 -10.25311158 0 0 Z " fill="#0AE68C" transform="translate(118.62109375,190.609375)"/>
<path d="M0 0 C1.27617187 0.02320313 2.55234375 0.04640625 3.8671875 0.0703125 C5.78917969 0.09738281 5.78917969 0.09738281 7.75 0.125 C9.23113281 0.15980469 9.23113281 0.15980469 10.7421875 0.1953125 C12.46790111 3.21076997 13.02316409 5.5007038 13.15625 8.9609375 C13.19492188 9.85039062 13.23359375 10.73984375 13.2734375 11.65625 C13.304375 12.57664063 13.3353125 13.49703125 13.3671875 14.4453125 C13.40585938 15.38117188 13.44453125 16.31703125 13.484375 17.28125 C13.57843594 19.58574304 13.66408149 21.89023263 13.7421875 24.1953125 C14.4846875 23.7209375 15.2271875 23.2465625 15.9921875 22.7578125 C22.07407827 19.30219274 29.2034714 19.33642352 35.9921875 20.62109375 C42.37108333 22.65187504 46.68635823 26.72647962 50.06640625 32.4296875 C54.52542223 42.50549905 54.53855818 56.11307998 51.0546875 66.5078125 C48.24871861 72.82368672 44.68734292 77.59104876 38.24609375 80.5 C31.33021741 82.42047736 23.45592657 82.4979529 16.9921875 79.1953125 C15.9196875 78.5353125 14.8471875 77.8753125 13.7421875 77.1953125 C13.0821875 77.1953125 12.4221875 77.1953125 11.7421875 77.1953125 C11.0821875 78.1853125 10.4221875 79.1753125 9.7421875 80.1953125 C6.7734375 80.55859375 6.7734375 80.55859375 3.2421875 80.5078125 C1.49421875 80.50201172 1.49421875 80.50201172 -0.2890625 80.49609375 C-3.2578125 80.1953125 -3.2578125 80.1953125 -5.2578125 78.1953125 C-5.45596434 75.76701189 -5.53064517 73.45277231 -5.51660156 71.0234375 C-5.5201062 70.28508667 -5.52361084 69.54673584 -5.52722168 68.78601074 C-5.53604299 66.33901642 -5.53018854 63.8923099 -5.5234375 61.4453125 C-5.52478404 59.74902287 -5.52672447 58.05273362 -5.52923584 56.35644531 C-5.53218764 52.7987908 -5.52788769 49.24123662 -5.51855469 45.68359375 C-5.50716009 41.11680109 -5.51371927 36.5502435 -5.52569962 31.98345947 C-5.53291672 28.47996236 -5.53063098 24.97652124 -5.52544403 21.47302246 C-5.52410712 19.78885877 -5.5257567 18.10469004 -5.53040314 16.42053223 C-5.53546597 14.06927976 -5.52776183 11.71841127 -5.51660156 9.3671875 C-5.52065002 8.66686401 -5.52469849 7.96654053 -5.52886963 7.24499512 C-5.48593143 2.37733692 -5.34236527 0.32028569 0 0 Z M13.7421875 39.1953125 C10.84509923 45.73712471 11.36622268 53.32524702 12.7421875 60.1953125 C14.10190381 63.33037894 15.60378202 65.62610976 18.7421875 67.1953125 C23.94889811 67.84039169 27.55928585 68.1126648 31.8046875 64.8203125 C35.09869214 60.3574675 34.95820754 56.78137916 34.9921875 51.3828125 C35.0128125 50.57521484 35.0334375 49.76761719 35.0546875 48.93554688 C35.09290158 43.1031235 34.11805083 39.7471657 30.0546875 35.3828125 C23.93547701 32.24051522 17.74695364 33.60177028 13.7421875 39.1953125 Z " fill="#171B17" transform="translate(176.2578125,208.8046875)"/>
<path d="M0 0 C1.27617187 0.02320313 2.55234375 0.04640625 3.8671875 0.0703125 C5.78917969 0.09738281 5.78917969 0.09738281 7.75 0.125 C9.23113281 0.15980469 9.23113281 0.15980469 10.7421875 0.1953125 C12.51887973 3.25687904 12.98269568 5.43567465 12.9375 8.9609375 C12.93105469 9.85039062 12.92460937 10.73984375 12.91796875 11.65625 C12.90121094 12.57664063 12.88445312 13.49703125 12.8671875 14.4453125 C12.85816406 15.38117188 12.84914063 16.31703125 12.83984375 17.28125 C12.81632386 19.58619907 12.78345603 21.8906241 12.7421875 24.1953125 C13.72409058 23.73427124 13.72409058 23.73427124 14.72583008 23.26391602 C22.40921798 19.73836943 29.80883639 18.73013648 37.9921875 21.2578125 C44.2839628 24.05558963 48.41381297 28.69540653 51.1796875 34.9453125 C54.54234825 45.4845609 54.45095001 58.88980702 49.9296875 69.03125 C46.85226515 74.63944732 43.43630008 78.10253488 37.40234375 80.5 C30.58620925 82.28160344 23.39197616 82.39451323 16.9921875 79.2578125 C13.7421875 77.1953125 13.7421875 77.1953125 12.7421875 76.1953125 C12.38253906 76.84757812 12.02289063 77.49984375 11.65234375 78.171875 C9.7421875 80.1953125 9.7421875 80.1953125 6.67578125 80.65625 C5.52207031 80.62789063 4.36835938 80.59953125 3.1796875 80.5703125 C2.02339844 80.55742187 0.86710937 80.54453125 -0.32421875 80.53125 C-3.2578125 80.1953125 -3.2578125 80.1953125 -5.2578125 78.1953125 C-5.45596434 75.76701189 -5.53064517 73.45277231 -5.51660156 71.0234375 C-5.5201062 70.28508667 -5.52361084 69.54673584 -5.52722168 68.78601074 C-5.53604299 66.33901642 -5.53018854 63.8923099 -5.5234375 61.4453125 C-5.52478404 59.74902287 -5.52672447 58.05273362 -5.52923584 56.35644531 C-5.53218764 52.7987908 -5.52788769 49.24123662 -5.51855469 45.68359375 C-5.50716009 41.11680109 -5.51371927 36.5502435 -5.52569962 31.98345947 C-5.53291672 28.47996236 -5.53063098 24.97652124 -5.52544403 21.47302246 C-5.52410712 19.78885877 -5.5257567 18.10469004 -5.53040314 16.42053223 C-5.53546597 14.06927976 -5.52776183 11.71841127 -5.51660156 9.3671875 C-5.52065002 8.66686401 -5.52469849 7.96654053 -5.52886963 7.24499512 C-5.48593143 2.37733692 -5.34236527 0.32028569 0 0 Z M13.7421875 39.1953125 C10.71145562 46.49662113 10.78339059 54.85311277 13.7421875 62.1953125 C15.87510679 65.39469143 17.2974966 66.90542387 21.1171875 67.671875 C25.75301334 67.93401991 28.02582149 67.73624194 31.8046875 64.8828125 C35.07219086 60.35046913 34.95577531 56.2093163 34.9921875 50.8203125 C35.0128125 50.06492187 35.0334375 49.30953125 35.0546875 48.53125 C35.09419935 42.88105587 33.98490576 39.60415804 30.0546875 35.3828125 C23.46634445 31.99960931 18.4275879 33.95212634 13.7421875 39.1953125 Z " fill="#181C18" transform="translate(308.2578125,208.8046875)"/>
<path d="M0 0 C0.76054688 0.01546875 1.52109375 0.0309375 2.3046875 0.046875 C4.125 0.25 4.125 0.25 5.125 1.25 C5.22692647 2.82880016 5.26069105 4.4120657 5.2668457 5.99414062 C5.27388016 7.00609497 5.28091461 8.01804932 5.28816223 9.06066895 C5.29232651 10.16471069 5.29649078 11.26875244 5.30078125 12.40625 C5.32399556 14.73177972 5.34811353 17.05730057 5.37304688 19.3828125 C5.40805877 23.05832714 5.43743952 26.73351919 5.45092773 30.40917969 C5.46647563 33.9502723 5.50675086 37.4904115 5.55078125 41.03125 C5.54887283 42.1190979 5.54696442 43.2069458 5.54499817 44.32775879 C5.67518212 52.5154746 7.25899446 58.68685798 12.4375 65.125 C19.81246693 70.9563692 26.91492493 71.1699621 36.125 70.25 C42.83361224 68.59501196 48.0345054 64.78170514 52.125 59.25 C55.12434705 54.04994861 56.32449729 49.79433499 55.8125 43.8125 C55.51396686 37.44379305 58.6504923 34.22580184 62.765625 29.66015625 C64.87155477 27.50890018 66.98404441 25.36640335 69.125 23.25 C69.77739158 24.64278017 70.42160552 26.03939212 71.0625 27.4375 C71.60197266 28.60345703 71.60197266 28.60345703 72.15234375 29.79296875 C75.68061109 38.70574046 75.32465532 49.92423888 72.15625 58.88671875 C65.90832075 73.20488996 56.26493578 81.33341417 42.125 87.25 C31.66654042 90.29219905 18.71445867 89.26481527 9.125 84.25 C8.33867188 83.84910156 7.55234375 83.44820313 6.7421875 83.03515625 C-2.40733314 77.68501282 -8.291597 68.70715649 -11.12255859 58.61108398 C-13.8710467 46.33384979 -12.86585295 33.29819518 -12.4375 20.8125 C-12.38409951 19.09832791 -12.33136143 17.38413506 -12.27929688 15.66992188 C-12.15213759 11.52966965 -12.0161186 7.38979896 -11.875 3.25 C-4.21682839 -0.14591102 -4.21682839 -0.14591102 0 0 Z " fill="#0CE792" transform="translate(64.875,239.75)"/>
<path d="M0 0 C4.77333751 3.60910885 7.02276237 8.16181182 8.2265625 13.8984375 C8.31829255 15.260958 8.36434382 16.62709146 8.37182617 17.99267578 C8.37820602 18.78674835 8.38458588 19.58082092 8.39115906 20.3989563 C8.39227188 21.24698822 8.3933847 22.09502014 8.39453125 22.96875 C8.39952385 24.28490799 8.39952385 24.28490799 8.40461731 25.62765503 C8.40967176 27.47848996 8.41202609 29.32933396 8.41186523 31.18017578 C8.41405985 34.02000737 8.43225322 36.85945544 8.45117188 39.69921875 C8.45410441 41.4973945 8.45609014 43.2955721 8.45703125 45.09375 C8.46421677 45.94583038 8.47140228 46.79791077 8.47880554 47.67581177 C8.45539678 53.66960322 8.45539678 53.66960322 6.2265625 55.8984375 C3.29296875 56.234375 3.29296875 56.234375 -0.2109375 56.2734375 C-1.36464844 56.30179687 -2.51835937 56.33015625 -3.70703125 56.359375 C-6.7734375 55.8984375 -6.7734375 55.8984375 -8.68359375 53.875 C-9.04324219 53.22273438 -9.40289062 52.57046875 -9.7734375 51.8984375 C-10.7015625 52.5378125 -11.6296875 53.1771875 -12.5859375 53.8359375 C-18.91457638 57.93093913 -25.44113285 57.45995695 -32.7734375 56.8984375 C-38.48752507 55.49009881 -42.41201586 52.05686803 -45.703125 47.24609375 C-47.71249472 42.8386806 -47.59635109 38.60492575 -46.7734375 33.8984375 C-43.97722756 27.60696513 -38.83433496 24.74574772 -32.78125 21.9921875 C-26.66039252 19.68242996 -20.29905623 19.09902278 -13.8359375 18.42578125 C-12.8253125 18.25175781 -11.8146875 18.07773438 -10.7734375 17.8984375 C-9.44977835 15.79039721 -9.44977835 15.79039721 -10.5234375 12.8359375 C-10.9359375 11.8665625 -11.3484375 10.8971875 -11.7734375 9.8984375 C-16.1198939 8.4496187 -21.47693799 7.98888216 -25.7734375 9.8984375 C-26.99871698 11.84864833 -26.99871698 11.84864833 -27.7734375 13.8984375 C-29.64587731 15.77087731 -32.71003268 15.07224142 -35.2109375 15.0859375 C-36.97244141 15.10720703 -36.97244141 15.10720703 -38.76953125 15.12890625 C-41.7734375 14.8984375 -41.7734375 14.8984375 -43.7734375 12.8984375 C-43.34297012 7.10147676 -39.82876688 3.73726059 -35.7734375 -0.1015625 C-25.61398684 -6.40042191 -10.16971764 -6.31687307 0 0 Z M-29.7734375 34.8984375 C-31.01745028 37.28452361 -31.01745028 37.28452361 -30.7734375 39.8984375 C-28.56125314 43.36098694 -26.90784141 43.86592042 -22.8984375 44.8359375 C-18.79366268 45.15698134 -16.22403416 44.22558409 -12.7734375 41.8984375 C-9.10786475 38.48566287 -9.17104114 34.66968113 -8.7734375 29.8984375 C-15.92006479 29.5943257 -24.08972927 30.10280868 -29.7734375 34.8984375 Z " fill="#181B18" transform="translate(282.7734375,233.1015625)"/>
<path d="M0 0 C1.34175973 0.98866506 2.67896002 1.9838154 4 3 C3.42176904 7.06225548 2.10882263 9.84762346 -0.0625 13.3125 C-0.61035156 14.19550781 -1.15820312 15.07851562 -1.72265625 15.98828125 C-2.14417969 16.65214844 -2.56570312 17.31601563 -3 18 C-7.1599984 17.39695355 -10.18110574 15.00353609 -13.5625 12.6875 C-25.97731175 4.43590451 -39.86885032 0.67300937 -54.76953125 3.53125 C-62.08647879 5.82480766 -67.19752682 9.27975587 -71.01953125 15.99609375 C-73.20105708 20.45475012 -73.2738354 23.724309 -72 28.4375 C-70.72134821 32.08135744 -69.3552328 33.68554807 -66.3125 36 C-64.20843815 37.84326427 -63.13475537 39.17017976 -62.68164062 41.96044922 C-62.38107446 46.9883984 -62.6443342 51.98116041 -63 57 C-72.25520478 55.8331547 -78.40957154 50.34457998 -84.2734375 43.34765625 C-89.92486622 35.66324751 -91.72951941 27.47236408 -90.6640625 18.01953125 C-88.59644266 7.64115374 -82.75741673 -0.86243965 -73.9921875 -6.796875 C-70.7320022 -8.76577122 -67.5127947 -10.51988987 -64 -12 C-63.33226563 -12.30035156 -62.66453125 -12.60070312 -61.9765625 -12.91015625 C-40.7982455 -20.8984688 -17.51958691 -12.20911722 0 0 Z " fill="#19E9B5" transform="translate(110,233)"/>
<path d="M0 0 C6.09541965 4.82883895 9.23396034 9.74279967 10.59375 17.40625 C11.76479754 28.83129919 11.29566712 39.21352678 4.34375 48.78125 C-3.60566169 56.36932479 -12.680415 56.85755316 -23.18359375 56.69140625 C-28.2522424 56.46898925 -32.15188686 55.17158604 -36.40625 52.40625 C-37.31375 51.87 -38.22125 51.33375 -39.15625 50.78125 C-46.99243163 42.50972495 -47.88243211 32.57585704 -47.671875 21.75 C-47.31212267 13.60972178 -45.12874608 7.61993502 -39.21875 1.90625 C-28.25598969 -6.77853414 -11.79385992 -7.81151761 0 0 Z M-26.40625 11.40625 C-29.61169359 16.45772015 -29.86722507 20.61726181 -29.78125 26.40625 C-29.79285156 27.18742187 -29.80445313 27.96859375 -29.81640625 28.7734375 C-29.79144182 33.71639431 -29.09823863 37.11236196 -26.40625 41.40625 C-23.43306308 43.82884675 -20.13160448 43.76829501 -16.37109375 43.65625 C-13.40864254 43.27931784 -11.66649798 42.33410857 -9.40625 40.40625 C-6.87060754 35.781381 -7.03915913 31.10573294 -7.03125 25.96875 C-7.00675781 25.13537109 -6.98226562 24.30199219 -6.95703125 23.44335938 C-6.93087262 17.9282488 -7.72921577 14.77615822 -11.40625 10.40625 C-16.31520109 6.80635253 -21.85658194 7.71732995 -26.40625 11.40625 Z " fill="#171B17" transform="translate(416.40625,233.59375)"/>
<path d="M0 0 C6.65228051 4.93123179 9.69310045 10.88103112 11 19 C11.57081671 30.73492964 11.83156583 40.68700476 4.00390625 50.05078125 C-2.76756078 56.6374519 -10.84711252 57.25385591 -19.85302734 57.2487793 C-27.31938002 57.13097873 -33.93836062 55.87682511 -39.65234375 50.65625 C-47.4573912 41.06395981 -47.93715001 29.79706477 -47 18 C-45.65306382 10.35522707 -42.47979099 5.4052565 -36.40625 0.59375 C-25.75943791 -6.45803463 -11.05901129 -6.09410671 0 0 Z M-26 12 C-29.20544359 17.05147015 -29.46097507 21.21101181 -29.375 27 C-29.38660156 27.78117187 -29.39820313 28.56234375 -29.41015625 29.3671875 C-29.38519182 34.31014431 -28.69198863 37.70611196 -26 42 C-23.02635069 44.42297351 -19.72559543 44.35895518 -15.96484375 44.25390625 C-13.04372208 43.87642532 -11.25685476 42.85858628 -9 41 C-6.26542121 36.52626985 -6.66920835 32.15855426 -6.6875 27.0625 C-6.67138672 26.16853516 -6.65527344 25.27457031 -6.63867188 24.35351562 C-6.63501363 19.42585544 -6.74743429 15.97188313 -10 12 C-12.75883331 9.83767119 -14.51542103 9.06057237 -18 8.625 C-21.51741376 9.06467672 -23.24631394 9.76728157 -26 12 Z " fill="#171B17" transform="translate(482,233)"/>
<path d="M0 0 C5.05679433 4.34855983 5.75850262 11.12779111 6.29296875 17.484375 C6.62118563 31.80088265 2.3288453 42.6609522 -7.5625 53.0625 C-10.63140292 56.17516625 -12.6255039 57.50027725 -17 58 C-16.319375 57.484375 -15.63875 56.96875 -14.9375 56.4375 C-4.12448927 47.46500174 2.28178847 37.79838586 4.3515625 23.5859375 C4.60726229 17.19344282 2.73382046 11.0993327 1 5 C-0.0828125 6.0828125 -0.0828125 6.0828125 -1.1875 7.1875 C-4 10 -4 10 -6.8125 12.125 C-9.74554717 15.979862 -9.2782986 18.62152798 -9.04296875 23.328125 C-8.99122709 26.5455153 -9.72798892 29.05847439 -11 32 C-11.66 32 -12.32 32 -13 32 C-12.835 31.236875 -12.67 30.47375 -12.5 29.6875 C-11.88192369 26.2085028 -11.88192369 26.2085028 -12.25 23.5390625 C-12.83646458 17.14293321 -11.82447506 14.06162333 -7.6875 9.0625 C-6.13539611 7.36543311 -4.57373873 5.67702383 -3 4 C-1.97984583 2.68202305 -0.97110712 1.35452159 0 0 Z " fill="#08E8B0" transform="translate(133,263)"/>
<path d="M0 0 C0.66 0.33 1.32 0.66 2 1 C-9.21869027 11.89981277 -23.94869435 21.88014147 -40 23 C-41.69895415 19.29870703 -42.27218737 16.37833604 -42.25 12.3125 C-42.25515625 11.35988281 -42.2603125 10.40726562 -42.265625 9.42578125 C-42 7 -42 7 -40 5 C-37.375 4.875 -37.375 4.875 -35 5 C-35.98226562 5.55107422 -35.98226562 5.55107422 -36.984375 6.11328125 C-39.29716453 7.87923182 -39.29716453 7.87923182 -39.390625 10.91796875 C-39.34421875 11.99691406 -39.2978125 13.07585937 -39.25 14.1875 C-39.21390625 15.27417969 -39.1778125 16.36085938 -39.140625 17.48046875 C-39.09421875 18.31191406 -39.0478125 19.14335937 -39 20 C-32.88959809 19.52996908 -28.4553813 18.16813524 -23.0625 15.3125 C-22.36592285 14.95309326 -21.6693457 14.59368652 -20.95166016 14.22338867 C-13.33604652 10.2328639 -6.48101732 5.65011766 0 0 Z " fill="#07E9AE" transform="translate(117,271)"/>
<path d="M0 0 C0.90105469 0.00902344 1.80210938 0.01804688 2.73046875 0.02734375 C3.41753906 0.03894531 4.10460937 0.05054688 4.8125 0.0625 C4.8125 0.7225 4.8125 1.3825 4.8125 2.0625 C3.7503125 2.16046875 2.688125 2.2584375 1.59375 2.359375 C-8.86681542 3.4241045 -16.92646883 4.55672063 -24.1875 13.0625 C-26.78551856 16.68116871 -28.01541642 19.58832688 -28.1875 24.0625 C-26.95868923 31.21313289 -23.6194805 35.43415497 -18.1875 40.0625 C-21.1875 40.0625 -21.1875 40.0625 -22.94140625 38.48828125 C-27.75578375 32.86284232 -30.74375144 28.91144213 -30.49609375 21.17578125 C-29.58971347 14.96879731 -26.1538109 10.22372256 -21.32421875 6.37890625 C-17.24198417 3.86389153 -12.74373659 2.47725499 -8.1875 1.0625 C-5.17259443 0.05753148 -3.14568308 -0.04085303 0 0 Z " fill="#06E7B0" transform="translate(65.1875,232.9375)"/>
<path d="M0 0 C4.28987113 3.14444636 8.02741842 6.56385379 11 11 C11 11.66 11 12.32 11 13 C10.34 13 9.68 13 9 13 C8.1671714 11.81966019 7.38440938 10.60386246 6.625 9.375 C2.55960414 3.84291169 -2.52988896 1.09530286 -9 -1 C-16.63294397 -2.06526669 -23.05157629 -1.26984645 -30 2 C-29.67 1.01 -29.34 0.02 -29 -1 C-19.35798508 -5.82100746 -9.35636478 -5.31329987 0 0 Z " fill="#00E574" transform="translate(109,203)"/>
<path d="M0 0 C0.66 0 1.32 0 2 0 C2.95921722 1.74951568 3.91733817 3.49963244 4.875 5.25 C5.67550781 6.71179688 5.67550781 6.71179688 6.4921875 8.203125 C7.39025634 9.8689729 8.25168699 11.55676214 9.03125 13.28125 C10.4476115 15.79414944 12.3345781 16.15828782 15 17 C15 17.66 15 18.32 15 19 C15.928125 19.268125 16.85625 19.53625 17.8125 19.8125 C20.76240366 20.91148371 22.05615186 21.62418561 24 24 C15.77040011 22.70286517 10.46789805 18.04647667 5.5625 11.5 C2.91492569 7.77735006 1.28366857 4.38640517 0 0 Z " fill="#00E66B" transform="translate(55,301)"/>
<path d="M0 0 C0.33 0.66 0.66 1.32 1 2 C-10.56558296 17.50280269 -10.56558296 17.50280269 -19 21 C-17.62381913 17.73069721 -16.24508345 16.20889661 -13.3125 14.25 C-7.86566585 10.35090014 -3.70456908 5.55685362 0 0 Z " fill="#08E7A8" transform="translate(114,250)"/>
<path d="M0 0 C0.99 0 1.98 0 3 0 C3.33 1.65 3.66 3.3 4 5 C4.75925781 5 5.51851563 5 6.30078125 5 C10.20052083 5 14.10026042 5 18 5 C15.2270481 7.7729519 13.42736269 7.33191346 9.5625 7.375 C7.83193359 7.41753906 7.83193359 7.41753906 6.06640625 7.4609375 C3 7 3 7 1.08984375 4.9765625 C0.55037109 3.99816406 0.55037109 3.99816406 0 3 C-1.98 3.99 -1.98 3.99 -4 5 C-2.1875 2.5 -2.1875 2.5 0 0 Z " fill="#060A06" transform="translate(273,282)"/>
<path d="M0 0 C6.06083381 2.65826044 10.95114901 5.64847521 15 11 C15.69140625 13.21875 15.69140625 13.21875 16 15 C15.34 15 14.68 15 14 15 C13.09670782 13.80646968 12.25218518 12.56818286 11.4375 11.3125 C8.08417597 6.62783145 4.15978227 4.38496603 -1 2 C-0.67 1.34 -0.34 0.68 0 0 Z " fill="#00E660" transform="translate(104,201)"/>
<path d="M0 0 C0.66 0.33 1.32 0.66 2 1 C0.61211198 2.30020011 -0.78569258 3.5898193 -2.1875 4.875 C-2.96480469 5.59429687 -3.74210937 6.31359375 -4.54296875 7.0546875 C-6.97689776 8.9817092 -9.07536646 10.01300111 -12 11 C-8.19588166 7.08060535 -4.18423892 3.50897269 0 0 Z " fill="#03E5A1" transform="translate(117,271)"/>
</svg>
