<?xml version="1.0" encoding="UTF-8"?>
<svg version="1.1" xmlns="http://www.w3.org/2000/svg" width="512" height="512">
<path d="M0 0 C5.28 0 10.56 0 16 0 C16 13.86 16 27.72 16 42 C30.85 42 45.7 42 61 42 C60.96039484 28.55185995 60.96039484 28.55185995 60.90991211 15.10375977 C60.906993 13.42464257 60.90444443 11.74552467 60.90234375 10.06640625 C60.89722778 9.18625854 60.89211182 8.30611084 60.88684082 7.39929199 C60.88653104 5.26586121 60.93755933 3.13251686 61 1 C62 0 62 0 65.59765625 -0.09765625 C67.08596867 -0.0909822 68.57426432 -0.07902183 70.0625 -0.0625 C70.82111328 -0.05798828 71.57972656 -0.05347656 72.36132812 -0.04882812 C74.24091871 -0.0370068 76.12046899 -0.01907078 78 0 C78.02312121 12.7603387 78.04091395 25.52067245 78.05181217 38.28102779 C78.05704149 44.20550715 78.06414001 50.12997222 78.07543945 56.05444336 C78.08626661 61.76672571 78.09227647 67.47899428 78.09487724 73.19128609 C78.0967318 75.37588277 78.100353 77.56047865 78.10573006 79.7450695 C78.11293821 82.79352349 78.11399104 85.84191979 78.11352539 88.89038086 C78.11712067 89.80315796 78.12071594 90.71593506 78.12442017 91.65637207 C78.11405216 97.88594784 78.11405216 97.88594784 77 99 C74.48863896 99.09975032 72.01096585 99.13882183 69.5 99.125 C68.79746094 99.12886719 68.09492188 99.13273437 67.37109375 99.13671875 C62.12661378 99.12661378 62.12661378 99.12661378 61 98 C60.91129359 94.97043757 60.88473418 91.9631329 60.90234375 88.93359375 C60.90335083 88.1286145 60.90435791 87.32363525 60.90539551 86.4942627 C60.91064386 83.47532739 60.924605 80.45641233 60.9375 77.4375 C60.9684375 67.3209375 60.9684375 67.3209375 61 57 C46.15 57 31.3 57 16 57 C16.03960516 70.44814005 16.03960516 70.44814005 16.09008789 83.89624023 C16.093007 85.57535743 16.09555557 87.25447533 16.09765625 88.93359375 C16.10277222 89.81374146 16.10788818 90.69388916 16.11315918 91.60070801 C16.11346896 93.73413879 16.06244067 95.86748314 16 98 C14.24440058 99.75559942 11.96417558 99.13221919 9.62890625 99.13671875 C8.92636719 99.13285156 8.22382813 99.12898438 7.5 99.125 C6.79746094 99.12886719 6.09492188 99.13273437 5.37109375 99.13671875 C0.12661378 99.12661378 0.12661378 99.12661378 -1 98 C-1.10062747 94.99186514 -1.1361474 92.00664971 -1.12939453 88.99804688 C-1.13114685 88.0534108 -1.13289917 87.10877472 -1.13470459 86.13551331 C-1.1391248 82.9965738 -1.13618452 79.85769013 -1.1328125 76.71875 C-1.13348549 74.54781076 -1.13445547 72.3768716 -1.13571167 70.20593262 C-1.13718887 65.64948817 -1.13503337 61.09306328 -1.13037109 56.53662109 C-1.1246738 50.68173414 -1.12795268 44.82689302 -1.13394356 38.97200775 C-1.13754857 34.48719942 -1.13641086 30.00240204 -1.13381577 25.51759338 C-1.13314633 23.35811864 -1.1339755 21.19864291 -1.13629532 19.03916931 C-1.13882086 16.02673692 -1.13498264 13.01437987 -1.12939453 10.00195312 C-1.13141876 9.10009781 -1.13344299 8.19824249 -1.13552856 7.26905823 C-1.11426231 1.11426231 -1.11426231 1.11426231 0 0 Z " fill="#000000" transform="translate(224,190)"/>
<path d="M0 0 C4.70298966 3.81453987 7.85333263 8.40076665 9.4375 14.25 C9.499375 14.91 9.56125 15.57 9.625 16.25 C4.28568812 19.11034565 -0.45443568 20.98130765 -6.375 22.25 C-6.72111328 21.45335937 -6.72111328 21.45335937 -7.07421875 20.640625 C-9.18689223 16.06455755 -11.01316456 13.04604836 -15.375 10.25 C-21.55979757 8.18840081 -28.8735977 8.38744748 -35 10.5 C-38.26200189 12.8918712 -38.26200189 12.8918712 -40.375 16.25 C-41.06282387 21.88761641 -41.06282387 21.88761641 -38.7109375 26.84765625 C-36.07019794 29.563467 -34.11771118 30.49785015 -30.5625 31.75 C-28.84160156 32.36875 -28.84160156 32.36875 -27.0859375 33 C-23.93343612 34.0618952 -20.77508377 35.0995723 -17.6105957 36.12475586 C5.45449503 43.6237653 5.45449503 43.6237653 11 54.4375 C13.86520847 60.75341607 14.89913997 66.91515422 12.90625 73.6953125 C9.58907537 81.58697794 5.42551968 86.34052094 -2.3125 90.0625 C-2.90740234 90.36091797 -3.50230469 90.65933594 -4.11523438 90.96679688 C-13.57880928 95.54861511 -26.75279682 95.84453411 -36.875 93.0625 C-45.02169496 90.11495208 -51.51258879 85.50502625 -56.375 78.25 C-57.6643984 75.30541642 -58.61633579 72.37136131 -59.375 69.25 C-54.07701036 67.16864693 -48.91936129 65.53708387 -43.375 64.25 C-43.106875 64.84167969 -42.83875 65.43335938 -42.5625 66.04296875 C-40.13823563 70.93137025 -37.81198995 74.77285531 -32.9453125 77.4375 C-25.94559076 79.650178 -17.36783656 79.60926319 -10.625 76.5625 C-6.49838735 73.64306891 -6.49838735 73.64306891 -4.375 69.25 C-4.1935134 65.19129959 -4.93286417 62.09582507 -6.8125 58.5 C-12.39133767 53.60150839 -19.72252863 52.12664699 -26.71801758 50.08813477 C-49.60343221 43.40735168 -49.60343221 43.40735168 -56.375 33.25 C-59.47971925 26.98864312 -59.27411542 19.59104165 -57.875 12.8359375 C-55.15594065 4.83325145 -49.71066078 -0.08216961 -42.375 -3.75 C-28.87937644 -9.90676257 -12.12475616 -8.23313684 0 0 Z " fill="#010101" transform="translate(377.375,195.75)"/>
<path d="M0 0 C28.71 0 57.42 0 87 0 C87 7.92 87 15.84 87 24 C58.29 24 29.58 24 0 24 C0 16.08 0 8.16 0 0 Z " fill="#40A0D8" transform="translate(113,265)"/>
<path d="M0 0 C28.71 0 57.42 0 87 0 C87 7.92 87 15.84 87 24 C58.29 24 29.58 24 0 24 C0 16.08 0 8.16 0 0 Z " fill="#A4DEF6" transform="translate(113,189)"/>
<path d="M0 0 C21.12 0 42.24 0 64 0 C64 7.59 64 15.18 64 23 C55.95083297 23.15312236 47.9016219 23.30189701 39.85223579 23.4429636 C36.11481259 23.50863748 32.37744464 23.57623581 28.64013672 23.64819336 C25.03517435 23.71753258 21.43015459 23.78186742 17.82503891 23.84269524 C16.44786192 23.86681885 15.07071559 23.89276262 13.69360733 23.92053413 C11.76864694 23.95904661 9.8435503 23.99055769 7.91845703 24.02172852 C6.82147491 24.04171402 5.7244928 24.06169952 4.5942688 24.08229065 C2 24 2 24 0 23 C0 15.41 0 7.82 0 0 Z " fill="#89CFF2" transform="translate(113,227)"/>
<path d="M0 0 C0.66 0 1.32 0 2 0 C2 31.68 2 63.36 2 96 C6.62 96 11.24 96 16 96 C16 96.66 16 97.32 16 98 C13.52076199 98.02685095 11.0418116 98.04676547 8.5625 98.0625 C7.85544922 98.07087891 7.14839844 98.07925781 6.41992188 98.08789062 C4.61306441 98.09653588 2.80612397 98.05220011 1 98 C-0.91064299 96.08935701 -0.12014611 93.26172105 -0.12442017 90.71983337 C-0.12082489 89.81640701 -0.11722961 88.91298065 -0.11352539 87.98217773 C-0.11367142 87.03593536 -0.11381744 86.08969299 -0.1139679 85.11477661 C-0.11326836 81.97102608 -0.10547409 78.82733399 -0.09765625 75.68359375 C-0.09579221 73.51025932 -0.09436824 71.33692448 -0.09336853 69.16358948 C-0.08954221 63.43098805 -0.07971097 57.69841177 -0.06866455 51.96582031 C-0.05845287 46.12109721 -0.05387143 40.27637007 -0.04882812 34.43164062 C-0.0380888 22.954416 -0.02101102 11.47721009 0 0 Z " fill="#060606" transform="translate(223,191)"/>
<path d="M0 0 C3 1 3 1 3.94921875 2.84765625 C4.6328125 4.8984375 5.31640625 6.94921875 6 9 C7.32 6.03 8.64 3.06 10 0 C10.99 0 11.98 0 13 0 C14.06723961 3.46222615 14.10173486 6.64039266 14.0625 10.25 C14.05347656 11.32765625 14.04445313 12.4053125 14.03515625 13.515625 C14.02355469 14.33546875 14.01195312 15.1553125 14 16 C13.01 15.67 12.02 15.34 11 15 C10.3125 12.9375 10.3125 12.9375 10 11 C9.54625 11.825 9.0925 12.65 8.625 13.5 C8.08875 14.325 7.5525 15.15 7 16 C6.34 16 5.68 16 5 16 C3.375 14 3.375 14 2 12 C1.67 13.32 1.34 14.64 1 16 C0.01 16 -0.98 16 -2 16 C-2.08997924 10.87118304 -1.93119789 6.0698552 -1 1 C-0.67 0.67 -0.34 0.34 0 0 Z " fill="#121415" transform="translate(242,304)"/>
<path d="M0 0 C2.84152117 1.49179861 4.00433919 2.47861635 5.5 5.3125 C6.19483656 9.39466478 5.83668511 10.83297879 3.4375 14.25 C0.5 16.3125 0.5 16.3125 -3.125 16.375 C-6.5 15.3125 -6.5 15.3125 -8.4375 13.625 C-9.84589562 10.55966836 -9.97772045 8.65654315 -9.5 5.3125 C-6.95989239 1.37095372 -4.9841887 -1.37065189 0 0 Z M-3.5 3.3125 C-5.83278733 5.20357141 -5.83278733 5.20357141 -5.6875 8.375 C-5.83187793 11.20083136 -5.83187793 11.20083136 -4.5 12.3125 C-2.04207971 12.64593551 -2.04207971 12.64593551 0.5 12.3125 C2.83391203 9.53135944 2.83391203 9.53135944 2.125 6.625 C1.91875 5.861875 1.7125 5.09875 1.5 4.3125 C-0.89719432 3.63291397 -0.89719432 3.63291397 -3.5 3.3125 Z " fill="#0B0C0C" transform="translate(308.5,303.6875)"/>
<path d="M0 0 C0.99 0 1.98 0 3 0 C3 1.98 3 3.96 3 6 C4.32 6 5.64 6 7 6 C7 4.35 7 2.7 7 1 C8.32 0.67 9.64 0.34 11 0 C11 4.95 11 9.9 11 15 C9.68 15 8.36 15 7 15 C7 13.35 7 11.7 7 10 C5.68 9.67 4.36 9.34 3 9 C3 10.98 3 12.96 3 15 C1.68 15 0.36 15 -1 15 C-1.02685412 12.68756208 -1.04632841 10.3750373 -1.0625 8.0625 C-1.07410156 6.77472656 -1.08570313 5.48695313 -1.09765625 4.16015625 C-1 1 -1 1 0 0 Z " fill="#131416" transform="translate(199,304)"/>
<path d="M0 0 C2.39286884 2.39286884 2.32050616 3.09447094 2.375 6.375 C2.29222147 9.58784151 2.13595223 10.78561379 0.375 13.5625 C-2.74900668 15.45334615 -4.40988607 15.67314636 -8 15 C-11.16196359 12.25408425 -11.91691332 10.59199258 -12.5 6.4375 C-12 3 -12 3 -10.1875 0.625 C-6.20301564 -2.33490267 -4.30459894 -2.0971123 0 0 Z M-7 2 C-9.31543207 4.76988076 -9.31543207 4.76988076 -8.6875 7.625 C-8.2258486 9.93501965 -8.2258486 9.93501965 -7 11 C-5.33382885 11.04063832 -3.66611905 11.042721 -2 11 C-1.32326553 7.59679066 -1.32326553 7.59679066 -1 4 C-1.66 3.34 -2.32 2.68 -3 2 C-4.32 2 -5.64 2 -7 2 Z " fill="#0D0F10" transform="translate(230,305)"/>
<path d="M0 0 C2.64 0 5.28 0 8 0 C10.1642235 3.24633524 10.37569856 4.24301443 10 8 C9.01 9.485 9.01 9.485 8 11 C8.66 11.66 9.32 12.32 10 13 C10 13.99 10 14.98 10 16 C8.125 15.6875 8.125 15.6875 6 15 C5.34 14.01 4.68 13.02 4 12 C3.34 13.32 2.68 14.64 2 16 C1.34 16 0.68 16 0 16 C0 10.72 0 5.44 0 0 Z M3 3 C3 4.32 3 5.64 3 7 C4.32 6.67 5.64 6.34 7 6 C6.67 5.01 6.34 4.02 6 3 C5.01 3 4.02 3 3 3 Z " fill="#060606" transform="translate(342,304)"/>
<path d="M0 0 C-0.33 1.32 -0.66 2.64 -1 4 C-3.475 3.01 -3.475 3.01 -6 2 C-4.62209707 4.75580586 -2.62850007 5.48861246 0 7 C1 8 1 8 1.1875 10.4375 C1 13 1 13 -1 15 C-4 15.25 -4 15.25 -7 15 C-7.66 14.34 -8.32 13.68 -9 13 C-9 12.01 -9 11.02 -9 10 C-7.35 10.33 -5.7 10.66 -4 11 C-4 10.34 -4 9.68 -4 9 C-4.804375 8.525625 -5.60875 8.05125 -6.4375 7.5625 C-9 6 -9 6 -10 3 C-9.25 0.875 -9.25 0.875 -8 -1 C-4.37673261 -2.2077558 -3.35853631 -1.54311128 0 0 Z " fill="#101517" transform="translate(160,305)"/>
<path d="M0 0 C1.85546875 0.1328125 1.85546875 0.1328125 4 1 C5.30078125 3.6171875 5.30078125 3.6171875 6.3125 6.875 C6.65925781 7.94492187 7.00601563 9.01484375 7.36328125 10.1171875 C8 13 8 13 7 16 C6.34 16 5.68 16 5 16 C4.67 14.68 4.34 13.36 4 12 C2.35 12 0.7 12 -1 12 C-1.33 13.32 -1.66 14.64 -2 16 C-2.99 16 -3.98 16 -5 16 C-4.49228528 10.03435204 -2.61407872 5.36190101 0 0 Z M1 5 C0.67 6.32 0.34 7.64 0 9 C0.66 9 1.32 9 2 9 C1.67 7.68 1.34 6.36 1 5 Z " fill="#151819" transform="translate(136,304)"/>
<path d="M0 0 C-0.33 1.32 -0.66 2.64 -1 4 C-3.475 3.01 -3.475 3.01 -6 2 C-5.5875 2.4125 -5.175 2.825 -4.75 3.25 C-4.1725 3.8275 -3.595 4.405 -3 5 C-1.88625 5.928125 -1.88625 5.928125 -0.75 6.875 C1 9 1 9 0.75 11.75 C0.5025 12.4925 0.255 13.235 0 14 C-2.31 14.33 -4.62 14.66 -7 15 C-7.99 13.68 -8.98 12.36 -10 11 C-6.25 9.875 -6.25 9.875 -4 11 C-4 10.34 -4 9.68 -4 9 C-4.804375 8.54625 -5.60875 8.0925 -6.4375 7.625 C-9 6 -9 6 -9.9375 4 C-10 2 -10 2 -8 -1 C-4.37673261 -2.2077558 -3.35853631 -1.54311128 0 0 Z " fill="#0D0E0E" transform="translate(291,305)"/>
<path d="M0 0 C2.97 0 5.94 0 9 0 C9 0.99 9 1.98 9 3 C7.02 3 5.04 3 3 3 C3 3.99 3 4.98 3 6 C4.65 6 6.3 6 8 6 C7.67 7.32 7.34 8.64 7 10 C5.68 10 4.36 10 3 10 C3 10.66 3 11.32 3 12 C4.65 12 6.3 12 8 12 C8.33 13.32 8.66 14.64 9 16 C6.03 16 3.06 16 0 16 C0 10.72 0 5.44 0 0 Z " fill="#08090A" transform="translate(265,304)"/>
<path d="M0 0 C0.33 0.99 0.66 1.98 1 3 C-2.31410403 4.10470134 -3.67949308 3.69905409 -7 3 C-8.41577477 4.18424326 -8.41577477 4.18424326 -8.0625 7.5625 C-8.041875 8.696875 -8.02125 9.83125 -8 11 C-5.36 10.67 -2.72 10.34 0 10 C0 10.99 0 11.98 0 13 C-2 15 -2 15 -4.875 15.375 C-8 15 -8 15 -10.375 13.5 C-12.65342738 9.9947271 -12.70247136 7.07266133 -12 3 C-8.98388762 -2.60135156 -5.47546648 -2.3806376 0 0 Z " fill="#0B0C0C" transform="translate(372,305)"/>
<path d="M0 0 C2.97 0 5.94 0 9 0 C9 0.99 9 1.98 9 3 C7.02 3 5.04 3 3 3 C3 3.99 3 4.98 3 6 C4.65 6 6.3 6 8 6 C7.67 7.32 7.34 8.64 7 10 C6.01 10 5.02 10 4 10 C3.67 10.66 3.34 11.32 3 12 C4.65 12 6.3 12 8 12 C8.33 13.32 8.66 14.64 9 16 C6.03 16 3.06 16 0 16 C0 10.72 0 5.44 0 0 Z " fill="#000000" transform="translate(381,304)"/>
<path d="M0 0 C2.97 0 5.94 0 9 0 C8.67 0.99 8.34 1.98 8 3 C6.35 3 4.7 3 3 3 C3 3.99 3 4.98 3 6 C4.65 6 6.3 6 8 6 C7.67 7.32 7.34 8.64 7 10 C6.01 10 5.02 10 4 10 C3.67 10.66 3.34 11.32 3 12 C4.65 12 6.3 12 8 12 C8.33 13.32 8.66 14.64 9 16 C6.03 16 3.06 16 0 16 C0 10.72 0 5.44 0 0 Z " fill="#0A0D10" transform="translate(115,304)"/>
<path d="M0 0 C0.99 0 1.98 0 3 0 C3 3.96 3 7.92 3 12 C4.32 12 5.64 12 7 12 C7.33 8.04 7.66 4.08 8 0 C8.99 0 9.98 0 11 0 C11.08133791 1.91595968 11.13934367 3.83291932 11.1875 5.75 C11.22230469 6.81734375 11.25710938 7.8846875 11.29296875 8.984375 C10.96797902 12.32960257 10.36073745 13.65047745 8 16 C5.19523051 16.49083466 3.7366514 16.49693349 1.35546875 14.890625 C-0.66907243 12.06676929 -0.28912284 9.73380239 -0.1875 6.3125 C-0.16042969 5.13300781 -0.13335937 3.95351563 -0.10546875 2.73828125 C-0.07066406 1.83464844 -0.03585937 0.93101562 0 0 Z " fill="#111212" transform="translate(322,304)"/>
<path d="M0 0 C4.75 0.75 4.75 0.75 7 3 C7.66 2.01 8.32 1.02 9 0 C10.32 0 11.64 0 13 0 C11.87548273 2.9719385 10.77706209 5.33440687 9 8 C8.54860541 10.0492094 8.54860541 10.0492094 8.375 12.1875 C8.25125 13.445625 8.1275 14.70375 8 16 C7.01 16 6.02 16 5 16 C4.83564453 14.98679687 4.83564453 14.98679687 4.66796875 13.953125 C4.50941406 13.06109375 4.35085937 12.1690625 4.1875 11.25 C3.96126953 9.92742187 3.96126953 9.92742187 3.73046875 8.578125 C2.94333232 5.79999644 1.77635698 4.23869646 0 2 C0 1.34 0 0.68 0 0 Z " fill="#15181B" transform="translate(167,304)"/>
<path d="M0 0 C0.99 0.33 1.98 0.66 3 1 C4.38766322 7.05525768 3.49118146 10.32010626 1 16 C0.01 16 -0.98 16 -2 16 C-2.08997924 10.87118304 -1.93119789 6.0698552 -1 1 C-0.67 0.67 -0.34 0.34 0 0 Z " fill="#0A0B0C" transform="translate(242,304)"/>
<path d="M0 0 C2.97 0 5.94 0 9 0 C8.67 0.66 8.34 1.32 8 2 C5.69 1.67 3.38 1.34 1 1 C1.33 4.96 1.66 8.92 2 13 C3.98 12.67 5.96 12.34 8 12 C8.33 13.32 8.66 14.64 9 16 C6.03 16 3.06 16 0 16 C0 10.72 0 5.44 0 0 Z " fill="#202628" transform="translate(115,304)"/>
<path d="M0 0 C2.97 0 5.94 0 9 0 C9 0.33 9 0.66 9 1 C6.36 1 3.72 1 1 1 C1.33 4.96 1.66 8.92 2 13 C4.31 13 6.62 13 9 13 C9 13.99 9 14.98 9 16 C6.03 16 3.06 16 0 16 C0 10.72 0 5.44 0 0 Z " fill="#1A1A1A" transform="translate(381,304)"/>
<path d="M0 0 C1.98 0 3.96 0 6 0 C4.02 0.99 4.02 0.99 2 2 C2.33 3.65 2.66 5.3 3 7 C2.34 7 1.68 7 1 7 C1.33 7.66 1.66 8.32 2 9 C2.99 9.33 3.98 9.66 5 10 C4.34 10 3.68 10 3 10 C3 11.65 3 13.3 3 15 C2.01 15.33 1.02 15.66 0 16 C0 10.72 0 5.44 0 0 Z " fill="#1E1E1F" transform="translate(342,304)"/>
<path d="M0 0 C1.9451 2.91765 2.45276317 4.62537285 3 8 C2.01 8.33 1.02 8.66 0 9 C-0.33 7.68 -0.66 6.36 -1 5 C-2.65 5 -4.3 5 -6 5 C-6.33 5.66 -6.66 6.32 -7 7 C-7.33 6.01 -7.66 5.02 -8 4 C-7.34 3.01 -6.68 2.02 -6 1 C-6 1.66 -6 2.32 -6 3 C-4.35 3 -2.7 3 -1 3 C-0.67 2.01 -0.34 1.02 0 0 Z " fill="#030405" transform="translate(141,311)"/>
<path d="M0 0 C0.99 0 1.98 0 3 0 C3 3.96 3 7.92 3 12 C2.01 12.495 2.01 12.495 1 13 C-0.32229189 10.35541621 -0.09677194 8.32238699 -0.0625 5.375 C-0.05347656 4.37210937 -0.04445313 3.36921875 -0.03515625 2.3359375 C-0.02355469 1.56507813 -0.01195312 0.79421875 0 0 Z " fill="#1D1D1D" transform="translate(330,304)"/>
<path d="M0 0 C0.66 1.32 1.32 2.64 2 4 C4.31 4 6.62 4 9 4 C9 4.99 9 5.98 9 7 C6.03 7 3.06 7 0 7 C0 4.69 0 2.38 0 0 Z " fill="#131414" transform="translate(265,313)"/>
<path d="M0 0 C0.33 0 0.66 0 1 0 C1.75 3.25 1.75 3.25 2 7 C0.4375 9.4375 0.4375 9.4375 -2 11 C-5.25 11.25 -5.25 11.25 -8 11 C-5.64046906 8.64046906 -4.22104383 8.50858587 -1 8 C-1.020625 7.05125 -1.04125 6.1025 -1.0625 5.125 C-1 2 -1 2 0 0 Z " fill="#050607" transform="translate(230,309)"/>
<path d="M0 0 C0.66 0 1.32 0 2 0 C2 4.62 2 9.24 2 14 C1.34 14 0.68 14 0 14 C-0.77916092 8.97874074 -1.13016601 5.02296004 0 0 Z " fill="#020404" transform="translate(208,305)"/>
<path d="M0 0 C0.99 0.99 1.98 1.98 3 3 C2.01 4.485 2.01 4.485 1 6 C-1.625 6.1875 -1.625 6.1875 -4 6 C-4.33 5.01 -4.66 4.02 -5 3 C-3.35 2.67 -1.7 2.34 0 2 C0 1.34 0 0.68 0 0 Z " fill="#09090A" transform="translate(329,314)"/>
<path d="M0 0 C2 1.3125 2 1.3125 4 3 C4 3.99 4 4.98 4 6 C2.68 5.67 1.36 5.34 0 5 C-0.5625 3.0625 -0.5625 3.0625 -1 1 C-0.67 0.67 -0.34 0.34 0 0 Z " fill="#131313" transform="translate(348,314)"/>
<path d="M0 0 C2.375 0.25 2.375 0.25 5 1 C6.3125 3.0625 6.3125 3.0625 7 5 C6.34 5.66 5.68 6.32 5 7 C4.67 6.34 4.34 5.68 4 5 C2.35857037 3.9590934 0.69287785 2.95495674 -1 2 C-0.67 1.34 -0.34 0.68 0 0 Z " fill="#050505" transform="translate(283,309)"/>
<path d="M0 0 C1.2684375 0.12375 1.2684375 0.12375 2.5625 0.25 C3.2225 1.24 3.8825 2.23 4.5625 3.25 C2.2525 3.58 -0.0575 3.91 -2.4375 4.25 C-2.1075 3.59 -1.7775 2.93 -1.4375 2.25 C-2.0975 1.92 -2.7575 1.59 -3.4375 1.25 C-2.4375 0.25 -2.4375 0.25 0 0 Z " fill="#050505" transform="translate(306.4375,315.75)"/>
<path d="M0 0 C-0.33 1.32 -0.66 2.64 -1 4 C-2.65 3.67 -4.3 3.34 -6 3 C-6 2.34 -6 1.68 -6 1 C-4 0 -4 0 0 0 Z " fill="#141414" transform="translate(389,310)"/>
<path d="M0 0 C0.66 0.33 1.32 0.66 2 1 C2.625 3.5625 2.625 3.5625 3 6 C2.01 6.33 1.02 6.66 0 7 C-1.125 2.25 -1.125 2.25 0 0 Z " fill="#171A1C" transform="translate(141,313)"/>
<path d="M0 0 C1.98 0 3.96 0 6 0 C6 0.99 6 1.98 6 3 C4.02 3 2.04 3 0 3 C0 2.01 0 1.02 0 0 Z " fill="#1A1E1F" transform="translate(267,310)"/>
<path d="M0 0 C0.33 0.66 0.66 1.32 1 2 C0.01 3.485 0.01 3.485 -1 5 C-1.66 5 -2.32 5 -3 5 C-3 6.98 -3 8.96 -3 11 C-3.33 11 -3.66 11 -4 11 C-4.49230769 4.6 -4.49230769 4.6 -2 1.5625 C-1.34 1.046875 -0.68 0.53125 0 0 Z " fill="#08090A" transform="translate(177,307)"/>
<path d="M0 0 C0.97608217 2.92824652 1.08226668 4.95613276 1 8 C0.01 8 -0.98 8 -2 8 C-1.125 1.125 -1.125 1.125 0 0 Z " fill="#1A1E21" transform="translate(133,312)"/>
</svg>
