<?xml version="1.0" encoding="UTF-8"?>
<svg version="1.1" xmlns="http://www.w3.org/2000/svg" width="512" height="512">
<path d="M0 0 C2.12387369 2.85464385 1.77471402 5.27875605 1.78502655 8.80192375 C1.79111765 9.51149731 1.79720876 10.22107086 1.80348444 10.95214665 C1.8201676 13.33591915 1.81533123 15.71916059 1.81053925 18.10297966 C1.81787657 19.80957916 1.82646181 21.51617369 1.83620453 23.22276115 C1.85846619 27.86331085 1.86134885 32.50368323 1.85945702 37.144279 C1.85933751 41.01611577 1.86789342 44.88791469 1.87623453 48.75974095 C1.89548582 57.89371066 1.89834635 67.02758897 1.89159393 76.16157341 C1.88495338 85.58827128 1.90781407 95.01457783 1.94490767 104.44119632 C1.97558529 112.53046296 1.98696675 120.61960361 1.98307085 128.70892727 C1.98100112 133.54208725 1.98651673 138.37494288 2.01096344 143.20804787 C2.03319577 147.7537711 2.03138228 152.2988576 2.01103592 156.84458351 C2.00761947 158.51310023 2.0127423 160.18165951 2.0270195 161.85011864 C2.0451687 164.1282561 2.03249872 166.40422353 2.01207733 168.68229485 C2.01278984 169.95692526 2.01350235 171.23155567 2.01423645 172.54481125 C1.22123552 176.77200467 -0.32556622 178.18053582 -3.60938263 180.86909294 C-5.88963614 182.34074592 -8.11455281 183.69351388 -10.48438263 184.99409294 C-11.07090607 185.32796013 -11.6574295 185.66182732 -12.26172638 186.00581169 C-23.30535721 192.1950993 -23.30535721 192.1950993 -28.60938263 190.86909294 C-28.93938263 172.71909294 -29.26938263 154.56909294 -29.60938263 135.86909294 C-41.81938263 135.53909294 -54.02938263 135.20909294 -66.60938263 134.86909294 C-66.60938263 161.59909294 -66.60938263 188.32909294 -66.60938263 215.86909294 C-53.78260765 222.28248043 -31.28003494 217.78631734 -18.07422638 213.80268669 C-14.84736233 212.61466748 -11.73636285 211.29890174 -8.60938263 209.86909294 C-7.43504669 209.34186638 -6.26071075 208.81463982 -5.05078888 208.27143669 C2.61128879 204.70856543 9.05007665 200.43833353 15.39061737 194.86909294 C16.05964081 194.30835075 16.72866425 193.74760857 17.41796112 193.16987419 C19.98249074 191.0174043 22.33730368 188.92849963 24.57811737 186.43159294 C26.39061737 184.86909294 26.39061737 184.86909294 28.18358612 184.93159294 C31.39644527 186.29634727 33.28545417 188.71745695 35.51561737 191.30659294 C36.48764692 192.40205743 37.4616454 193.49577766 38.43749237 194.58784294 C39.17322479 195.41348747 39.17322479 195.41348747 39.9238205 196.25581169 C43.5843839 200.28194401 47.51455376 204.05255932 51.39061737 207.86909294 C52.17565643 208.66315544 52.9606955 209.45721794 53.76952362 210.27534294 C56.76358862 213.23817328 59.84568296 216.0887732 62.95311737 218.93159294 C71.29206874 226.56530728 71.29206874 226.56530728 73.39061737 228.86909294 C73.39061737 229.52909294 73.39061737 230.18909294 73.39061737 230.86909294 C73.94749237 231.07534294 74.50436737 231.28159294 75.07811737 231.49409294 C77.64908523 233.02277653 79.11740988 234.87597656 80.95311737 237.20503044 C83.45487282 240.1010843 86.42760002 242.46110766 89.39061737 244.86909294 C89.06061737 246.18909294 88.73061737 247.50909294 88.39061737 248.86909294 C53.33671509 252.6568427 53.33671509 252.6568427 43.69121552 245.36518669 C38.1075748 240.52196506 33.49209283 234.80778601 29.2453537 228.7750988 C28.63329071 228.14611687 28.02122772 227.51713493 27.39061737 226.86909294 C23.19648005 227.05377223 19.6212124 229.96024046 16.07811737 232.05659294 C-3.65318616 243.41054875 -25.06436042 249.29552677 -47.85938263 249.18159294 C-49.03669952 249.17667839 -50.21401642 249.17176384 -51.42700958 249.16670036 C-64.04697758 248.99799578 -75.43261955 246.9755072 -87.48438263 243.36909294 C-88.15751495 243.16775749 -88.83064728 242.96642204 -89.52417755 242.75898552 C-92.95598678 241.6537665 -95.48954014 240.82999168 -97.60938263 237.86909294 C-98.00087261 234.80208015 -98.00087261 234.80208015 -98.02397919 230.94972038 C-98.03629089 229.88747675 -98.03629089 229.88747675 -98.04885131 228.80377364 C-98.07257339 226.42470982 -98.07475243 224.04611859 -98.07691193 221.6669445 C-98.08915949 219.96358685 -98.10261127 218.2602375 -98.11717987 216.55689812 C-98.1522839 211.92451331 -98.16749787 207.29227107 -98.17701697 202.65977001 C-98.18358799 199.7656159 -98.19393131 196.87149975 -98.20552254 193.97736168 C-98.24528043 183.88038589 -98.26728537 173.78352436 -98.27515411 163.68647575 C-98.28302261 154.27552103 -98.33224175 144.86538184 -98.40021962 135.45468736 C-98.45653998 127.37557798 -98.48206727 119.29673974 -98.48410159 111.2174356 C-98.48594266 106.3918019 -98.50059729 101.56702745 -98.54691887 96.74159813 C-98.58958326 92.20052837 -98.59394369 87.66100453 -98.56912422 83.11981773 C-98.56653901 81.45533401 -98.57757656 79.79076358 -98.60340118 78.1264782 C-98.78611556 65.59606812 -98.78611556 65.59606812 -95.90748787 61.37138939 C-93.88470328 59.54888709 -91.98132062 58.19437674 -89.60938263 56.86909294 C-88.89308024 56.43492687 -88.17677786 56.0007608 -87.43876934 55.55343819 C-85.4934087 54.40862826 -83.51676076 53.41253845 -81.48438263 52.43159294 C-80.80762482 52.08161247 -80.130867 51.731632 -79.43360138 51.37104607 C-75.32709536 49.34162191 -72.29219341 48.45332937 -67.60938263 48.86909294 C-66.60816092 51.87275808 -66.48826252 53.84648888 -66.49585724 56.98310661 C-66.49597054 58.54438538 -66.49597054 58.54438538 -66.49608612 60.13720512 C-66.50124741 61.25915779 -66.50640869 62.38111046 -66.51172638 63.53706169 C-66.51314133 64.68701118 -66.51455627 65.83696068 -66.5160141 67.02175713 C-66.52161834 70.70006203 -66.53417159 74.37830639 -66.54688263 78.05659294 C-66.55189708 80.54812852 -66.55646008 83.03966505 -66.5605545 85.53120232 C-66.5707389 91.6438747 -66.59031362 97.75641593 -66.60938263 103.86909294 C-47.79938263 104.36409294 -47.79938263 104.36409294 -28.60938263 104.86909294 C-28.93938263 78.13909294 -29.26938263 51.40909294 -29.60938263 23.86909294 C-48.91492623 17.43391174 -74.67531901 23.23288806 -92.34229279 32.02973747 C-99.7651027 35.9080118 -106.31438097 40.31608768 -112.60938263 45.86909294 C-113.2049295 46.32284294 -113.80047638 46.77659294 -114.41407013 47.24409294 C-131.21429517 60.25071878 -141.21299669 82.84194264 -144.98438263 103.24409294 C-148.18127845 129.01498781 -143.67165121 155.33136726 -128.60938263 176.86909294 C-127.57806208 177.92297162 -126.54123927 178.97148857 -125.49951935 180.01508904 C-121.8727213 184.21727722 -121.81940451 187.70121238 -122.02344513 193.08393669 C-122.03193481 193.93967781 -122.0404245 194.79541893 -122.04917145 195.6770916 C-122.08253909 198.38825132 -122.15777977 201.09634516 -122.23438263 203.80659294 C-122.26450406 205.65355494 -122.29187604 207.50056395 -122.31641388 209.34760857 C-122.38227489 213.85593646 -122.48567458 218.36199646 -122.60938263 222.86909294 C-127.4659099 222.11420026 -129.96771416 220.16546248 -133.42188263 216.80659294 C-133.94959259 216.30490593 -134.47730255 215.80321892 -135.02100372 215.28632927 C-136.07727174 214.27857158 -137.12945734 213.26651536 -138.17725372 212.24995232 C-139.37174475 211.0982235 -140.59118317 209.9724397 -141.81641388 208.85346794 C-156.93331696 194.69099255 -166.39049088 175.31785433 -172.60938263 155.86909294 C-172.83674103 155.19555779 -173.06409943 154.52202263 -173.29834747 153.82807732 C-176.8850461 142.85570181 -176.99651395 131.68064098 -177.04688263 120.24409294 C-177.0532373 119.50546013 -177.05959198 118.76682732 -177.06613922 118.00581169 C-177.14123999 103.94850798 -175.53601409 90.42393278 -170.35938263 77.24409294 C-170.05564728 76.45051384 -169.75191193 75.65693474 -169.43897247 74.83930779 C-162.50920118 57.10209535 -152.74567935 42.50545366 -139.60938263 28.86909294 C-138.55170685 27.69926872 -138.55170685 27.69926872 -137.47266388 26.50581169 C-126.77490925 15.0337434 -112.79978366 7.21673998 -98.60938263 0.86909294 C-97.53301544 0.38698357 -96.45664825 -0.09512581 -95.34766388 -0.59184456 C-69.72462892 -11.20113131 -24.26345265 -17.04983598 0 0 Z " fill="#FEFEFE" transform="translate(298.60938262939453,129.13090705871582)"/>
<path d="M0 0 C4.26597634 0.30331483 6.81858443 3.25900244 9.75 6.0625 C10.28222168 6.56418701 10.81444336 7.06587402 11.36279297 7.58276367 C12.429056 8.59143882 13.49211512 9.60351285 14.55175781 10.61914062 C15.75620275 11.76754598 16.98111225 12.89444156 18.2109375 14.015625 C35.25774541 30.0187508 45.52303536 52.61913084 51 75 C51.17877686 75.67248779 51.35755371 76.34497559 51.54174805 77.0378418 C53.33807851 84.5952321 53.33783915 92.1631123 53.31567383 99.8840332 C53.31252959 102.16602122 53.33598816 104.44668838 53.36132812 106.72851562 C53.41823 119.67623189 51.4659907 131.82617827 47.25 144.125 C46.99976074 144.86927246 46.74952148 145.61354492 46.49169922 146.38037109 C44.0536732 153.34765453 40.78108746 159.66835651 37 166 C31.19904346 165.12461568 27.72271522 160.27590416 23.75 156.3125 C22.90953125 155.50876953 22.0690625 154.70503906 21.203125 153.87695312 C20.01203125 152.69456055 20.01203125 152.69456055 18.796875 151.48828125 C17.70391113 150.41380737 17.70391113 150.41380737 16.58886719 149.31762695 C14.55374265 146.34905946 14.64901417 144.53117568 15 141 C15.76953125 138.5703125 15.76953125 138.5703125 16.8125 136.125 C25.87041208 112.07801634 23.80226672 85.2271358 13.84130859 61.85742188 C11.38985529 56.44515932 8.60345612 50.45357545 4.23583984 46.33740234 C-1.51125826 40.47381884 -1.73638171 35.13751757 -1.71034241 27.31944275 C-1.66337577 24.71187303 -1.58194076 22.10668025 -1.5 19.5 C-1.47342451 17.71879405 -1.44995914 15.93753884 -1.4296875 14.15625 C-1.22934156 1.22934156 -1.22934156 1.22934156 0 0 Z " fill="#FEFEFE" transform="translate(326,146)"/>
</svg>
