<?xml version="1.0" encoding="UTF-8"?>
<svg version="1.1" xmlns="http://www.w3.org/2000/svg" width="300" height="84">
<path d="M0 0 C5.08472165 1.01694433 5.61663712 1.19591605 8.33642578 5.15380859 C8.91239502 6.03673584 8.91239502 6.03673584 9.5 6.9375 C10.36079744 8.20002527 11.22284449 9.46169918 12.0859375 10.72265625 C12.77768066 11.74576904 12.77768066 11.74576904 13.48339844 12.78955078 C16.2856899 16.87389509 19.21475358 20.86727335 22.125 24.875 C24.06375 27.55625 26.0025 30.2375 28 33 C28.33 22.11 28.66 11.22 29 0 C31.64 0 34.28 0 37 0 C37 18.15 37 36.3 37 55 C35.68 55 34.36 55 33 55 C31.51123047 53.47802734 31.51123047 53.47802734 30.1171875 51.3359375 C29.59415039 50.54944824 29.07111328 49.76295898 28.53222656 48.95263672 C27.9853418 48.1020166 27.43845703 47.25139648 26.875 46.375 C25.72258634 44.63460015 24.56892732 42.89502432 23.4140625 41.15625 C22.84204102 40.28742187 22.27001953 39.41859375 21.68066406 38.5234375 C19.27978012 34.91862395 16.77907821 31.39057813 14.25 27.875 C13.83218262 27.29024902 13.41436523 26.70549805 12.98388672 26.10302734 C11.12869353 23.43908645 11.12869353 23.43908645 9 21 C8.67 31.89 8.34 42.78 8 54 C5.36 54 2.72 54 0 54 C0 36.18 0 18.36 0 0 Z " fill="#329449" transform="translate(0,5)"/>
<path d="M0 0 C4.01684726 2.93915653 6.95784056 6.06102168 8.5625 10.875 C9.03719459 17.92561082 9.03719459 17.92561082 7.5625 20.875 C-1.3475 20.875 -10.2575 20.875 -19.4375 20.875 C-18.22433127 27.11279578 -18.22433127 27.11279578 -14.4375 30.875 C-8.27053685 32.25725036 -3.47546793 31.56619009 2.5625 29.875 C4.5625 32.875 4.5625 32.875 4.40234375 34.953125 C3.5625 36.875 3.5625 36.875 0.125 38.625 C-6.21872286 40.6790498 -12.56138819 41.0163756 -18.75 38.3125 C-23.77162428 35.39082769 -26.45493484 31.81368113 -28.2890625 26.328125 C-30.16693789 18.31887333 -28.94548817 11.99526628 -24.6875 5 C-17.44153762 -1.84340891 -9.52341504 -3.11675401 0 0 Z M-18.4375 10.875 C-18.7675 11.865 -19.0975 12.855 -19.4375 13.875 C-13.1675 13.875 -6.8975 13.875 -0.4375 13.875 C-0.7675 12.225 -1.0975 10.575 -1.4375 8.875 C-2.0975 8.875 -2.7575 8.875 -3.4375 8.875 C-3.4375 8.215 -3.4375 7.555 -3.4375 6.875 C-9.71380105 3.73684948 -14.42833189 5.65093246 -18.4375 10.875 Z " fill="#319047" transform="translate(208.4375,20.125)"/>
<path d="M0 0 C2.8028966 1.03861379 4.57973607 2.19887336 7 4 C7 4.66 7 5.32 7 6 C7.66 6 8.32 6 9 6 C11.54677703 10.77520694 11.42040613 15.72048114 11 21 C10 22 10 22 7.40795898 22.11352539 C6.28204346 22.10828857 5.15612793 22.10305176 3.99609375 22.09765625 C2.78115234 22.09443359 1.56621094 22.09121094 0.31445312 22.08789062 C-0.96494141 22.07951172 -2.24433594 22.07113281 -3.5625 22.0625 C-4.84576172 22.05798828 -6.12902344 22.05347656 -7.45117188 22.04882812 C-10.63416022 22.03699545 -13.81705762 22.02051068 -17 22 C-16.43333454 23.46489049 -15.84595772 24.92178003 -15.25 26.375 C-14.92515625 27.18710937 -14.6003125 27.99921875 -14.265625 28.8359375 C-12.7870416 31.36413257 -11.72616286 32.02791869 -9 33 C-6.79712373 33.06557362 -6.79712373 33.06557362 -4.5625 32.6875 C-3.78132813 32.57921875 -3.00015625 32.4709375 -2.1953125 32.359375 C0.21759619 31.96437927 2.61467557 31.53862164 5 31 C5.99 32.65 6.98 34.3 8 36 C5.38249716 39.38735662 2.06464543 40.3086304 -2 41 C-8.92336782 41.74456765 -13.37387373 41.19201565 -19 37 C-23.04892413 32.95107587 -25.07149655 29.66387102 -26 24 C-25.99104125 17.85429622 -25.59497337 12.15279517 -22 7 C-14.98829053 0.1021698 -9.88991704 -0.90442234 0 0 Z M-14 9 C-14.99 10.98 -15.98 12.96 -17 15 C-10.4 15 -3.8 15 3 15 C1.70244413 9.32166588 1.70244413 9.32166588 -0.6875 7.625 C-5.21132603 6.40234432 -10.17162186 5.9919886 -14 9 Z " fill="#32964A" transform="translate(289,19)"/>
<path d="M0 0 C5.79816483 5.64558155 5.83098008 10.5619079 5.9375 18.3125 C5.97210698 20.27099894 6.01480701 22.22937506 6.06640625 24.1875 C6.07873291 25.05117188 6.09105957 25.91484375 6.10375977 26.8046875 C6.40562688 29.5956677 7.29334687 31.7351255 8.375 34.3125 C8.5 37.125 8.5 37.125 8.375 39.3125 C6.4878125 39.126875 6.4878125 39.126875 4.5625 38.9375 C3.85480469 38.86789063 3.14710937 38.79828125 2.41796875 38.7265625 C0.375 38.3125 0.375 38.3125 -2.625 36.3125 C-3.285 36.9725 -3.945 37.6325 -4.625 38.3125 C-9.73674744 40.0092111 -15.27035637 39.77319114 -20.5 38.75 C-23.789944 36.52444965 -24.46251916 34.04467533 -25.625 30.3125 C-26.14581565 25.27794872 -25.76601633 22.3200036 -22.625 18.3125 C-16.54636596 12.71375812 -11.59617453 11.99990492 -3.625 12.3125 C-4.285 10.6625 -4.945 9.0125 -5.625 7.3125 C-11.85333095 6.1105414 -14.99629115 6.38088081 -20.625 9.3125 C-23.625 4.6875 -23.625 4.6875 -23.625 1.3125 C-16.35075877 -2.74754162 -7.63277309 -3.55318747 0 0 Z M-14.625 21.5625 C-17.01671191 24.6581096 -17.01671191 24.6581096 -17.625 28.3125 C-16.75394624 30.69701799 -16.75394624 30.69701799 -14.625 32.3125 C-10.61317451 32.90684452 -8.33527464 32.6600812 -4.6875 30.875 C-1.70053492 27.16392217 -2.18352061 23.90388561 -2.625 19.3125 C-9.04542904 18.67864928 -9.04542904 18.67864928 -14.625 21.5625 Z " fill="#329549" transform="translate(69.625,20.6875)"/>
<path d="M0 0 C3.5 0.125 3.5 0.125 4.5 1.125 C4.74373661 3.34872047 4.91795846 5.58013623 5.0625 7.8125 C5.10568359 8.47789795 5.14886719 9.1432959 5.19335938 9.82885742 C5.54199907 15.69278339 5.54369341 21.52070833 5.4375 27.39453125 C5.30495787 30.09043954 5.30495787 30.09043954 6.5 32.125 C10.32704527 33.28201369 12.07854556 33.29994335 15.8125 31.75 C18.33157634 30.37316472 18.33157634 30.37316472 19.5 29.125 C19.65858842 26.98113343 19.75129298 24.83233162 19.81640625 22.68359375 C19.85830078 21.37841797 19.90019531 20.07324219 19.94335938 18.72851562 C19.98317608 17.3398467 20.02288825 15.95117478 20.0625 14.5625 C20.10567989 13.16990817 20.149294 11.77732972 20.19335938 10.38476562 C20.29985876 6.96495199 20.40186923 3.54506237 20.5 0.125 C22.83294775 0.08258277 25.16702567 0.08407063 27.5 0.125 C30.16556156 2.79056156 28.99640901 10.34262529 29.125 13.9375 C29.1765625 15.12021484 29.228125 16.30292969 29.28125 17.52148438 C29.56548676 25.14153738 29.32690603 32.54444774 28.5 40.125 C25.86 40.125 23.22 40.125 20.5 40.125 C20.17 39.465 19.84 38.805 19.5 38.125 C18.489375 38.62 17.47875 39.115 16.4375 39.625 C11.43276406 41.74394062 7.39278411 41.81659419 2.25 39.9375 C-1.25111598 37.62994629 -2.78650185 35.33782924 -4.06591797 31.36987305 C-4.6337745 28.43317966 -4.62986788 25.63563629 -4.6328125 22.64453125 C-4.63410156 21.39865234 -4.63539062 20.15277344 -4.63671875 18.86914062 C-4.63285156 17.57169922 -4.62898438 16.27425781 -4.625 14.9375 C-4.62886719 13.62845703 -4.63273437 12.31941406 -4.63671875 10.97070312 C-4.63542969 9.72869141 -4.63414063 8.48667969 -4.6328125 7.20703125 C-4.63168457 6.06468018 -4.63055664 4.9223291 -4.62939453 3.74536133 C-4.43181933 -0.25572283 -4.1414033 0.14790726 0 0 Z " fill="#2A5F36" transform="translate(117.5,18.875)"/>
<path d="M0 0 C0.33 2.97 0.66 5.94 1 9 C2.464375 9.144375 3.92875 9.28875 5.4375 9.4375 C9.875 9.875 9.875 9.875 11 11 C11.04080783 12.99958364 11.04254356 15.00045254 11 17 C7.37 17 3.74 17 0 17 C0.165 18.0725 0.33 19.145 0.5 20.25 C1.09765282 24.91501227 1.01629869 29.51550474 0.96875 34.2109375 C1.00252375 37.225245 1.34596467 40.056841 2 43 C5.63 43 9.26 43 13 43 C13.33 44.98 13.66 46.96 14 49 C9.52935896 51.98042736 5.24133821 51.60649771 0 51 C-3.56293985 49.31229165 -5.37047318 48.25460516 -7.14013672 44.7277832 C-8.10085776 41.68004436 -8.22804506 39.23439294 -8.1953125 36.04296875 C-8.18564453 34.37524414 -8.18564453 34.37524414 -8.17578125 32.67382812 C-8.15902344 31.52333984 -8.14226562 30.37285156 -8.125 29.1875 C-8.11597656 28.01767578 -8.10695313 26.84785156 -8.09765625 25.64257812 C-8.07413732 22.76150947 -8.04126852 19.88086011 -8 17 C-9.65 17 -11.3 17 -13 17 C-13 15.02 -13 13.04 -13 11 C-11.35 10.67 -9.7 10.34 -8 10 C-8 7.36 -8 4.72 -8 2 C-5.09399739 0.74335022 -3.20395416 0 0 0 Z " fill="#32974A" transform="translate(95,9)"/>
<path d="M0 0 C2.64 0 5.28 0 8 0 C7.99880661 0.83232147 7.99880661 0.83232147 7.99758911 1.68145752 C7.99515131 7.4569874 8.03431845 13.23117229 8.09765625 19.00634766 C8.11582451 21.16155752 8.12338326 23.316884 8.12011719 25.47216797 C8.11726252 28.57090623 8.15255229 31.66722198 8.1953125 34.765625 C8.18621857 35.72929993 8.17712463 36.69297485 8.16775513 37.68585205 C8.22378037 40.26451279 8.31792997 42.51173305 9 45 C11.88520936 47.49180474 11.88520936 47.49180474 15 49 C15.4375 52.1875 15.4375 52.1875 15 55 C14 56 14 56 10.25 56.375 C6.65342084 56.34271473 6.07924917 56.06238764 3.0625 53.6875 C0.3173877 50.11053549 -0.1250141 47.63037211 -0.11352539 43.25317383 C-0.11344986 42.29240433 -0.11337433 41.33163483 -0.11329651 40.3417511 C-0.10813522 39.30729355 -0.10297394 38.272836 -0.09765625 37.20703125 C-0.0962413 36.14586594 -0.09482635 35.08470062 -0.09336853 33.99137878 C-0.08776606 30.59839065 -0.07521314 27.20546823 -0.0625 23.8125 C-0.05748532 21.51367283 -0.05292236 19.21484462 -0.04882812 16.91601562 C-0.03779583 11.27732128 -0.0210553 5.63866534 0 0 Z " fill="#34A24E" transform="translate(223,4)"/>
<path d="M0 0 C2.64 0 5.28 0 8 0 C8.01030746 0.5593222 8.02061493 1.11864441 8.03123474 1.69491577 C8.1391881 7.5021358 8.25379498 13.30919714 8.37231445 19.11621094 C8.41569919 21.28512256 8.45737161 23.45406913 8.49731445 25.62304688 C8.55493139 28.73578435 8.61865038 31.84834535 8.68359375 34.9609375 C8.70030624 35.934935 8.71701874 36.9089325 8.73423767 37.91244507 C8.75418289 38.81322784 8.77412811 39.71401062 8.79467773 40.64208984 C8.81022202 41.43706879 8.8257663 42.23204773 8.84178162 43.05111694 C8.88441725 45.07997774 8.88441725 45.07997774 10 47 C12.02463255 47.65213292 12.02463255 47.65213292 14 48 C14 50.64 14 53.28 14 56 C12.60316918 55.96652475 11.20719363 55.89668216 9.8125 55.8125 C9.03519531 55.77769531 8.25789062 55.74289063 7.45703125 55.70703125 C3.68512593 54.62163401 2.36589074 53.155169 0 50 C-0.6989786 46.18796814 -0.58166455 42.43846545 -0.48828125 38.57421875 C-0.48120651 37.47149124 -0.47413177 36.36876373 -0.46684265 35.23262024 C-0.43889489 31.71688483 -0.37615165 28.20275257 -0.3125 24.6875 C-0.28741781 22.30145532 -0.26460451 19.91538563 -0.24414062 17.52929688 C-0.18906692 11.68565263 -0.10543545 5.84294085 0 0 Z " fill="#34A44F" transform="translate(245,4)"/>
<path d="M0 0 C1.175625 0.0825 2.35125 0.165 3.5625 0.25 C4.2225 1.24 4.8825 2.23 5.5625 3.25 C6.10390625 2.75886719 6.6453125 2.26773437 7.203125 1.76171875 C10.13491283 -0.1167612 11.86549691 -0.06060725 15.3125 0.0625 C16.29734375 0.08957031 17.2821875 0.11664062 18.296875 0.14453125 C19.04453125 0.17933594 19.7921875 0.21414062 20.5625 0.25 C20.03981534 3.01276177 19.45380413 5.5760876 18.5625 8.25 C17.95921875 8.19199219 17.3559375 8.13398438 16.734375 8.07421875 C15.93515625 8.02910156 15.1359375 7.98398437 14.3125 7.9375 C13.52359375 7.87949219 12.7346875 7.82148438 11.921875 7.76171875 C8.40543094 8.48945966 7.50759192 10.31111321 5.5625 13.25 C4.94459248 16.21614036 4.94459248 16.21614036 4.98828125 19.390625 C4.96056641 20.54304688 4.93285156 21.69546875 4.90429688 22.8828125 C4.89462891 24.07648437 4.88496094 25.27015625 4.875 26.5 C4.83312947 28.88027634 4.78775587 31.26049457 4.73828125 33.640625 C4.72708252 34.69282227 4.71588379 35.74501953 4.7043457 36.82910156 C4.5625 39.25 4.5625 39.25 3.5625 40.25 C0.89191149 40.39115161 -1.76182238 40.29247107 -4.4375 40.25 C-4.46214775 34.71411467 -4.48033496 29.178261 -4.49243164 23.64233398 C-4.49747244 21.7575627 -4.50430498 19.87279535 -4.51293945 17.98803711 C-4.52501617 15.28498364 -4.53073068 12.58198169 -4.53515625 9.87890625 C-4.54031754 9.03099014 -4.54547882 8.18307404 -4.55079651 7.3094635 C-4.55099195 5.28928932 -4.49956211 3.26922066 -4.4375 1.25 C-3.4375 0.25 -3.4375 0.25 0 0 Z " fill="#329449" transform="translate(158.4375,18.75)"/>
<path d="M0 0 C2.33294775 -0.04241723 4.66702567 -0.04092937 7 0 C9.66556156 2.66556156 8.49640901 10.21762529 8.625 13.8125 C8.70234375 15.58657227 8.70234375 15.58657227 8.78125 17.39648438 C9.06548676 25.01653738 8.82690603 32.41944774 8 40 C5.36 40 2.72 40 0 40 C-0.66 38.35 -1.32 36.7 -2 35 C-2.9075 35.20625 -3.815 35.4125 -4.75 35.625 C-8.21546863 36.02486177 -9.09470856 35.65475295 -12 34 C-11.37351562 33.80664062 -10.74703125 33.61328125 -10.1015625 33.4140625 C-8.87566406 33.02347656 -8.87566406 33.02347656 -7.625 32.625 C-6.40683594 32.24214844 -6.40683594 32.24214844 -5.1640625 31.8515625 C-2.83540815 31.10145717 -2.83540815 31.10145717 -1 29 C-0.62703444 25.99027343 -0.62703444 25.99027343 -0.5859375 22.4609375 C-0.54726562 21.15898438 -0.50859375 19.85703125 -0.46875 18.515625 C-0.43729237 17.13542138 -0.40604509 15.75521296 -0.375 14.375 C-0.33682066 12.98695459 -0.29776895 11.59893289 -0.2578125 10.2109375 C-0.16327057 6.80742815 -0.07772103 3.40392835 0 0 Z " fill="#2E763E" transform="translate(138,19)"/>
<path d="M0 0 C1.98 0 3.96 0 6 0 C6.33 0.66 6.66 1.32 7 2 C9.52733235 2.65555119 9.52733235 2.65555119 12 3 C12.20496094 3.85464844 12.40992187 4.70929687 12.62109375 5.58984375 C12.89050781 6.69457031 13.15992187 7.79929687 13.4375 8.9375 C13.70433594 10.03964844 13.97117187 11.14179687 14.24609375 12.27734375 C14.72995725 14.89421254 14.72995725 14.89421254 16 16 C16.04063832 17.66617115 16.042721 19.33388095 16 21 C14.741875 20.87625 13.48375 20.7525 12.1875 20.625 C11.47980469 20.55539063 10.77210937 20.48578125 10.04296875 20.4140625 C8 20 8 20 5 18 C4.34 18.66 3.68 19.32 3 20 C-2.11174744 21.6967111 -7.64535637 21.46069114 -12.875 20.4375 C-16.164944 18.21194965 -16.83751916 15.73217533 -18 12 C-18.1875 8.0625 -18.1875 8.0625 -18 5 C-17.34 6.32 -16.68 7.64 -16 9 C-13.69 8.34 -11.38 7.68 -9 7 C-8.855625 7.804375 -8.71125 8.60875 -8.5625 9.4375 C-8.25864751 11.92103706 -8.25864751 11.92103706 -7 13 C-3.5608247 13.2595604 -0.85757425 13.33851615 2.375 12.0625 C4.96027033 8.78119536 4.82918456 5.07394831 5 1 C3.35 1 1.7 1 0 1 C0 0.67 0 0.34 0 0 Z " fill="#2D703C" transform="translate(62,39)"/>
<path d="M0 0 C0.33 1.32 0.66 2.64 1 4 C2.01936646 3.75552124 2.01936646 3.75552124 3.05932617 3.50610352 C6.44224262 2.92388801 9.61780164 2.88773533 13.05078125 2.90234375 C13.70958786 2.9037587 14.36839447 2.90517365 15.04716492 2.90663147 C17.13565762 2.912195 19.22404011 2.92474053 21.3125 2.9375 C22.73502449 2.94251972 24.15755066 2.9470818 25.58007812 2.95117188 C29.05342077 2.96215243 32.52669961 2.97939165 36 3 C36 3.33 36 3.66 36 4 C27.09 4 18.18 4 9 4 C11.8345367 12.9470244 11.8345367 12.9470244 17 15 C19.20287627 15.06557362 19.20287627 15.06557362 21.4375 14.6875 C22.21867187 14.57921875 22.99984375 14.4709375 23.8046875 14.359375 C26.21759619 13.96437927 28.61467557 13.53862164 31 13 C32.485 15.475 32.485 15.475 34 18 C31.38249716 21.38735662 28.06464543 22.3086304 24 23 C17.07663218 23.74456765 12.62612627 23.19201565 7 19 C2.04502559 14.04502559 0.12921934 9.55353174 -0.125 2.5625 C-0.08375 1.716875 -0.0425 0.87125 0 0 Z " fill="#295F35" transform="translate(263,37)"/>
<path d="M0 0 C2.64 0 5.28 0 8 0 C8 12.54 8 25.08 8 38 C7.01 38.495 7.01 38.495 6 39 C5.67 37.35 5.34 35.7 5 34 C3.68 34.66 2.36 35.32 1 36 C-0.05648755 28.28847276 -0.11624053 20.71334179 -0.0625 12.9375 C-0.05798828 11.69033203 -0.05347656 10.44316406 -0.04882812 9.15820312 C-0.03713163 6.10541779 -0.02074086 3.05273502 0 0 Z " fill="#339C4C" transform="translate(29,5)"/>
<path d="M0 0 C0.99 0.33 1.98 0.66 3 1 C3 4.63 3 8.26 3 12 C4.32 12 5.64 12 7 12 C7 8.37 7 4.74 7 1 C8.65 1.33 10.3 1.66 12 2 C12.99 1.34 13.98 0.68 15 0 C16.99291992 -0.13525391 16.99291992 -0.13525391 19.23046875 0.0234375 C20.03291016 0.075 20.83535156 0.1265625 21.66210938 0.1796875 C22.91217773 0.27636719 22.91217773 0.27636719 24.1875 0.375 C25.4549707 0.46007812 25.4549707 0.46007812 26.74804688 0.546875 C28.83271217 0.68820824 30.91646866 0.8428325 33 1 C32.67 1.99 32.34 2.98 32 4 C31.01 4 30.02 4 29 4 C29 7.3 29 10.6 29 14 C27.68 14 26.36 14 25 14 C25 10.7 25 7.4 25 4 C23.9171875 4.2784375 23.9171875 4.2784375 22.8125 4.5625 C19.87173027 5.01995307 17.85896942 4.73516357 15 4 C15 4.66 15 5.32 15 6 C16.98 6.66 18.96 7.32 21 8 C21.625 10.375 21.625 10.375 22 13 C20 15 20 15 16.5 15.3125 C14.7675 15.1578125 14.7675 15.1578125 13 15 C12.34 14.01 11.68 13.02 11 12 C14.28976808 10.90341064 15.71303767 11.20046862 19 12 C19 11.34 19 10.68 19 10 C18.030625 9.855625 17.06125 9.71125 16.0625 9.5625 C13 9 13 9 12 8 C11.71125 8.969375 11.4225 9.93875 11.125 10.9375 C10 14 10 14 8 15 C5 15.1875 5 15.1875 2 15 C-0.45406016 12.54593984 -0.38381215 11.4528512 -0.6875 8.0625 C-0.77386719 7.18722656 -0.86023438 6.31195313 -0.94921875 5.41015625 C-1 3 -1 3 0 0 Z " fill="#1D231D" transform="translate(144,65)"/>
<path d="M0 0 C0.33 0 0.66 0 1 0 C1.01030746 0.5593222 1.02061493 1.11864441 1.03123474 1.69491577 C1.1391881 7.5021358 1.25379498 13.30919714 1.37231445 19.11621094 C1.41569919 21.28512256 1.45737161 23.45406913 1.49731445 25.62304688 C1.55493139 28.73578435 1.61865038 31.84834535 1.68359375 34.9609375 C1.70030624 35.934935 1.71701874 36.9089325 1.73423767 37.91244507 C1.75418289 38.81322784 1.77412811 39.71401062 1.79467773 40.64208984 C1.81022202 41.43706879 1.8257663 42.23204773 1.84178162 43.05111694 C1.88441725 45.07997774 1.88441725 45.07997774 3 47 C5.02463255 47.65213292 5.02463255 47.65213292 7 48 C7 50.64 7 53.28 7 56 C5.60316918 55.96652475 4.20719363 55.89668216 2.8125 55.8125 C2.03519531 55.77769531 1.25789062 55.74289063 0.45703125 55.70703125 C-3.30804618 54.6235988 -4.71531391 53.18568905 -7 50 C-7.59676095 46.53819455 -7.47325189 43.18694502 -7.3125 39.6875 C-7.28994141 38.75615234 -7.26738281 37.82480469 -7.24414062 36.86523438 C-7.18542078 34.5751604 -7.10336858 32.28842125 -7 30 C-6.67 30 -6.34 30 -6 30 C-5.67 31.65 -5.34 33.3 -5 35 C-3.515 34.505 -3.515 34.505 -2 34 C-2 34.66 -2 35.32 -2 36 C-1.34 36 -0.68 36 0 36 C0 24.12 0 12.24 0 0 Z " fill="#2E793F" transform="translate(252,4)"/>
<path d="M0 0 C0.35555556 7.11111111 0.35555556 7.11111111 -1 10.5 C-4.21668314 12.91251235 -7.04405111 12.25117136 -11 12 C-13.08242374 11.92317787 -13.08242374 11.92317787 -15.375 12.5625 C-18 13 -18 13 -22 12 C-22 7.38 -22 2.76 -22 -2 C-13.7579605 -3.37367325 -7.61881848 -3.80940924 0 0 Z M-13 -1 C-13 -0.34 -13 0.32 -13 1 C-14.98 1 -16.96 1 -19 1 C-18.67 1.66 -18.34 2.32 -18 3 C-16.35 3 -14.7 3 -13 3 C-13 3.99 -13 4.98 -13 6 C-14.65 6 -16.3 6 -18 6 C-18 6.99 -18 7.98 -18 9 C-15.03 9.495 -15.03 9.495 -12 10 C-12 6.37 -12 2.74 -12 -1 C-12.33 -1 -12.66 -1 -13 -1 Z M-8 1 C-8 3.64 -8 6.28 -8 9 C-6.68 8.67 -5.36 8.34 -4 8 C-2.99782936 4.41672247 -2.99782936 4.41672247 -4 1 C-5.32 1 -6.64 1 -8 1 Z " fill="#1D211C" transform="translate(288,68)"/>
<path d="M0 0 C0.22245393 1.60226955 0.42746669 3.20696767 0.625 4.8125 C0.79902344 6.15248047 0.79902344 6.15248047 0.9765625 7.51953125 C1 10 1 10 -1 13 C-3.8203125 13.29296875 -3.8203125 13.29296875 -7.125 13.1875 C-8.76855469 13.14689453 -8.76855469 13.14689453 -10.4453125 13.10546875 C-11.28835937 13.07066406 -12.13140625 13.03585938 -13 13 C-13.33 12.01 -13.66 11.02 -14 10 C-15.98 10 -17.96 10 -20 10 C-20 10.99 -20 11.98 -20 13 C-20.99 13 -21.98 13 -23 13 C-22.46148032 7.72250715 -21.22656164 3.74354436 -19 -1 C-17.68 -1 -16.36 -1 -15 -1 C-13.68 2.3 -12.36 5.6 -11 9 C-10.67 5.7 -10.34 2.4 -10 -1 C-6.06329512 -2.31223496 -3.87511856 -1.24296256 0 0 Z M-6 1 C-6.33 1.99 -6.66 2.98 -7 4 C-5.68 4 -4.36 4 -3 4 C-3 3.34 -3 2.68 -3 2 C-3.99 1.67 -4.98 1.34 -6 1 Z M-17 4 C-17.33 4.99 -17.66 5.98 -18 7 C-17.34 7 -16.68 7 -16 7 C-16.33 6.01 -16.66 5.02 -17 4 Z M-7 7 C-7 7.99 -7 8.98 -7 10 C-5.68 10 -4.36 10 -3 10 C-3.33 9.01 -3.66 8.02 -4 7 C-4.99 7 -5.98 7 -7 7 Z " fill="#1D231C" transform="translate(229,67)"/>
<path d="M0 0 C0.33 0 0.66 0 1 0 C1 1.65 1 3.3 1 5 C2.65 5 4.3 5 6 5 C6 12.26 6 19.52 6 27 C8.31 27.33 10.62 27.66 13 28 C13.33 27.34 13.66 26.68 14 26 C14.33 27.98 14.66 29.96 15 32 C18.63 32 22.26 32 26 32 C26.33 33.98 26.66 35.96 27 38 C22.52935896 40.98042736 18.24133821 40.60649771 13 40 C9.43706015 38.31229165 7.62952682 37.25460516 5.85986328 33.7277832 C4.89914224 30.68004436 4.77195494 28.23439294 4.8046875 25.04296875 C4.81435547 23.37524414 4.81435547 23.37524414 4.82421875 21.67382812 C4.84097656 20.52333984 4.85773438 19.37285156 4.875 18.1875 C4.88402344 17.01767578 4.89304687 15.84785156 4.90234375 14.64257812 C4.92586268 11.76150947 4.95873148 8.88086011 5 6 C3.35 6 1.7 6 0 6 C0 4.02 0 2.04 0 0 Z " fill="#2B6638" transform="translate(82,20)"/>
<path d="M0 0 C0.33 0 0.66 0 1 0 C1 9.9 1 19.8 1 30 C2.32 29.34 3.64 28.68 5 28 C5.33 28.33 5.66 28.66 6 29 C6.33 27.02 6.66 25.04 7 23 C7.33 23 7.66 23 8 23 C8.00257813 23.89203125 8.00515625 24.7840625 8.0078125 25.703125 C8.12429552 29.22867768 8.31438556 32.53743149 9 36 C11.92043703 38.47648077 11.92043703 38.47648077 15 40 C15.4375 43.1875 15.4375 43.1875 15 46 C14 47 14 47 10.25 47.375 C6.65342084 47.34271473 6.07924917 47.06238764 3.0625 44.6875 C-0.49745976 40.04876455 -0.13217933 35.77832156 -0.09765625 30.17578125 C-0.09553383 28.88367989 -0.09553383 28.88367989 -0.09336853 27.56547546 C-0.0877714 24.81444831 -0.07521946 22.06350256 -0.0625 19.3125 C-0.05748463 17.4472668 -0.05292179 15.58203233 -0.04882812 13.71679688 C-0.03780292 9.14449989 -0.02054027 4.57226375 0 0 Z " fill="#2D703C" transform="translate(223,13)"/>
<path d="M0 0 C0.928125 0.20625 1.85625 0.4125 2.8125 0.625 C2.8125 1.945 2.8125 3.265 2.8125 4.625 C0.8325 4.625 -1.1475 4.625 -3.1875 4.625 C-3.1875 6.605 -3.1875 8.585 -3.1875 10.625 C-1.8675 10.955 -0.5475 11.285 0.8125 11.625 C0.8125 10.965 0.8125 10.305 0.8125 9.625 C-0.1775 9.625 -1.1675 9.625 -2.1875 9.625 C-2.1875 8.635 -2.1875 7.645 -2.1875 6.625 C-0.2075 6.625 1.7725 6.625 3.8125 6.625 C4.1425 7.945 4.4725 9.265 4.8125 10.625 C6.1325 7.325 7.4525 4.025 8.8125 0.625 C10.1325 0.625 11.4525 0.625 12.8125 0.625 C13.48510351 2.39358691 14.15038395 4.16496016 14.8125 5.9375 C15.18375 6.92363281 15.555 7.90976563 15.9375 8.92578125 C16.8125 11.625 16.8125 11.625 16.8125 14.625 C15.8225 14.625 14.8325 14.625 13.8125 14.625 C13.4825 13.965 13.1525 13.305 12.8125 12.625 C10.28516765 11.96944881 10.28516765 11.96944881 7.8125 11.625 C7.8125 12.615 7.8125 13.605 7.8125 14.625 C5.87568839 14.70607583 3.9379066 14.76422475 2 14.8125 C0.92105469 14.84730469 -0.15789062 14.88210937 -1.26953125 14.91796875 C-4.1875 14.625 -4.1875 14.625 -6.0234375 13.26171875 C-7.62070633 11.01589446 -7.99125266 9.3724627 -8.1875 6.625 C-6.865694 1.8885285 -5.31157588 -0.62489128 0 0 Z M9.8125 6.625 C9.8125 7.285 9.8125 7.945 9.8125 8.625 C10.4725 8.295 11.1325 7.965 11.8125 7.625 C11.1525 7.295 10.4925 6.965 9.8125 6.625 Z " fill="#1D211C" transform="translate(82.1875,65.375)"/>
<path d="M0 0 C1.03125 0.495 2.0625 0.99 3.125 1.5 C7.4584503 3.48616472 10.36420409 2.89725082 15 2 C15.99 1.814375 16.98 1.62875 18 1.4375 C18.66 1.293125 19.32 1.14875 20 1 C22 4 22 4 21.83984375 6.078125 C21 8 21 8 17.5625 9.75 C11.12289386 11.83509608 4.80611235 12.13071769 -1.4375 9.3125 C-4.72944113 7.45704227 -6.44095642 5.50784805 -8 2 C-5 1 -5 1 -2 1 C-1.34 0.67 -0.68 0.34 0 0 Z " fill="#2A6036" transform="translate(191,49)"/>
<path d="M0 0 C0.66 1.32 1.32 2.64 2 4 C4.31 3.34 6.62 2.68 9 2 C9.144375 2.804375 9.28875 3.60875 9.4375 4.4375 C9.74135249 6.92103706 9.74135249 6.92103706 11 8 C13.67058851 8.14115161 16.32432238 8.04247107 19 8 C19 8.66 19 9.32 19 10 C20.32 10 21.64 10 23 10 C22.8125 11.875 22.8125 11.875 22 14 C17.00460181 17.12212387 10.69746448 16.52776479 5.125 15.4375 C1.835056 13.21194965 1.16248084 10.73217533 0 7 C-0.1875 3.0625 -0.1875 3.0625 0 0 Z " fill="#2A5E35" transform="translate(44,44)"/>
<path d="M0 0 C0.66 0.33 1.32 0.66 2 1 C2 4.63 2 8.26 2 12 C3.98 12 5.96 12 8 12 C8 8.37 8 4.74 8 1 C10.97 1 13.94 1 17 1 C17 1.99 17 2.98 17 4 C15.02 4 13.04 4 11 4 C11 4.66 11 5.32 11 6 C12.98 6 14.96 6 17 6 C17 6.99 17 7.98 17 9 C14 10 14 10 11 9 C11 9.99 11 10.98 11 12 C12.98 12 14.96 12 17 12 C16.67 13.32 16.34 14.64 16 16 C10.39 15.67 4.78 15.34 -1 15 C-1.09765625 4.16015625 -1.09765625 4.16015625 -1 1 C-0.67 0.67 -0.34 0.34 0 0 Z " fill="#1C1E1B" transform="translate(232,65)"/>
<path d="M0 0 C2.31 0 4.62 0 7 0 C7 7.59 7 15.18 7 23 C5.68 22.67 4.36 22.34 3 22 C2.01 22.66 1.02 23.32 0 24 C0 16.08 0 8.16 0 0 Z " fill="#339D4C" transform="translate(114,19)"/>
<path d="M0 0 C0.99 0 1.98 0 3 0 C4.32 3.3 5.64 6.6 7 10 C7.33 6.7 7.66 3.4 8 0 C9.32 0 10.64 0 12 0 C12.02694851 1.95825873 12.04637218 3.91662226 12.0625 5.875 C12.07410156 6.96554688 12.08570313 8.05609375 12.09765625 9.1796875 C12 12 12 12 11 14 C9.02 14 7.04 14 5 14 C4.67 13.01 4.34 12.02 4 11 C1.52733235 11.34444881 1.52733235 11.34444881 -1 12 C-1.33 12.66 -1.66 13.32 -2 14 C-2.99 14 -3.98 14 -5 14 C-4.34580901 8.93001981 -2.1453591 4.58009223 0 0 Z M1 6 C0.67 6.66 0.34 7.32 0 8 C0.66 8 1.32 8 2 8 C1.67 7.34 1.34 6.68 1 6 Z " fill="#1D241D" transform="translate(181,66)"/>
<path d="M0 0 C2.31 0 4.62 0 7 0 C6.67 7.92 6.34 15.84 6 24 C5.01 23.01 4.02 22.02 3 21 C2.01 21 1.02 21 0 21 C0 14.07 0 7.14 0 0 Z " fill="#34A34F" transform="translate(139,20)"/>
<path d="M0 0 C1 1 1 1 1.09765625 3.72265625 C1.08605469 4.82480469 1.07445312 5.92695312 1.0625 7.0625 C1.05347656 8.16722656 1.04445313 9.27195312 1.03515625 10.41015625 C1.02355469 11.26480469 1.01195312 12.11945313 1 13 C-2.21451269 14.60725635 -5.43612536 14.05748185 -9 14 C-9 9.38 -9 4.76 -9 0 C-5.90842747 -1.54578627 -3.31526981 -0.60277633 0 0 Z M-6 3 C-6 3.66 -6 4.32 -6 5 C-4.68 5 -3.36 5 -2 5 C-2 4.34 -2 3.68 -2 3 C-3.32 3 -4.64 3 -6 3 Z M-5 8 C-5.33 8.99 -5.66 9.98 -6 11 C-4.68 11 -3.36 11 -2 11 C-2.33 10.01 -2.66 9.02 -3 8 C-3.66 8 -4.32 8 -5 8 Z " fill="#1C201B" transform="translate(264,66)"/>
<path d="M0 0 C4 1 4 1 5.75 3.5625 C6.1625 4.366875 6.575 5.17125 7 6 C7.33 4.02 7.66 2.04 8 0 C8.99 0 9.98 0 11 0 C11 4.62 11 9.24 11 14 C7 13 7 13 5.25 10.4375 C4.8375 9.633125 4.425 8.82875 4 8 C3.67 9.98 3.34 11.96 3 14 C2.01 14 1.02 14 0 14 C0 9.38 0 4.76 0 0 Z " fill="#1C1F1B" transform="translate(194,66)"/>
<path d="M0 0 C0.66 0.66 1.32 1.32 2 2 C1.6913753 4.33672984 1.35543427 6.66993089 1 9 C1.35974895 11.81237541 1.35974895 11.81237541 2 14 C1.01 14 0.02 14 -1 14 C-1.28875 13.360625 -1.5775 12.72125 -1.875 12.0625 C-2.82823451 9.84793921 -2.82823451 9.84793921 -5 9 C-5 10.65 -5 12.3 -5 14 C-5.99 14 -6.98 14 -8 14 C-8.77112541 9.27685687 -9.09764874 4.78478822 -9 0 C-5.88135455 -1.55932272 -3.33704665 -0.65549131 0 0 Z M-5 3 C-5 3.99 -5 4.98 -5 6 C-3.68 5.67 -2.36 5.34 -1 5 C-1 4.34 -1 3.68 -1 3 C-2.32 3 -3.64 3 -5 3 Z " fill="#1C1F1B" transform="translate(72,66)"/>
<path d="M0 0 C4 1 4 1 5.75 3.5625 C6.1625 4.366875 6.575 5.17125 7 6 C7.33 4.02 7.66 2.04 8 0 C8.99 0 9.98 0 11 0 C11 4.62 11 9.24 11 14 C7 13 7 13 5.25 10.4375 C4.8375 9.633125 4.425 8.82875 4 8 C3.67 9.98 3.34 11.96 3 14 C2.01 14 1.02 14 0 14 C0 9.38 0 4.76 0 0 Z " fill="#1C1E1A" transform="translate(100,66)"/>
<path d="M0 0 C2.54014875 3.81022313 2.58606955 6.53470816 2 11 C0.875 13 0.875 13 -1 14 C-4.08815875 14.38601984 -6.10184376 14.47901666 -8.875 13 C-10.64629177 9.85103686 -10.54794453 6.52961671 -10 3 C-7.10651449 -1.34022827 -4.76600038 -1.46646166 0 0 Z M-6 3 C-7.01540112 7.10223585 -7.01540112 7.10223585 -6 11 C-4.35 10.67 -2.7 10.34 -1 10 C-1 8.02 -1 6.04 -1 4 C-2.65 3.67 -4.3 3.34 -6 3 Z " fill="#1C1F1B" transform="translate(60,66)"/>
<path d="M0 0 C2.97 0 5.94 0 9 0 C10.88300516 3.87677533 10.95542762 5.85981367 10 10 C10.36856864 12.23167185 10.36856864 12.23167185 11 14 C9.68 13.67 8.36 13.34 7 13 C6.67 11.68 6.34 10.36 6 9 C5.01 9 4.02 9 3 9 C3 10.65 3 12.3 3 14 C2.01 14 1.02 14 0 14 C0 9.38 0 4.76 0 0 Z M3 3 C3 3.99 3 4.98 3 6 C4.32 6 5.64 6 7 6 C7 5.01 7 4.02 7 3 C5.68 3 4.36 3 3 3 Z " fill="#1C1E1B" transform="translate(24,66)"/>
<path d="M0 0 C0.33 0 0.66 0 1 0 C1 7.26 1 14.52 1 22 C-1.64 22 -4.28 22 -7 22 C-7 16.72 -7 11.44 -7 6 C-6.34 7.32 -5.68 8.64 -5 10 C-3.68 9.67 -2.36 9.34 -1 9 C-0.67 6.03 -0.34 3.06 0 0 Z " fill="#2D6F3B" transform="translate(7,37)"/>
<path d="M0 0 C0.33 0 0.66 0 1 0 C1.04934399 5.94481181 1.08569282 11.88950509 1.10986328 17.83447266 C1.11993671 19.85793127 1.13359595 21.88137528 1.15087891 23.90478516 C1.17506847 26.80895589 1.18646949 29.71293461 1.1953125 32.6171875 C1.20563507 33.52556366 1.21595764 34.43393982 1.22659302 35.36984253 C1.22674408 36.21056305 1.22689514 37.05128357 1.22705078 37.91748047 C1.231492 38.65916473 1.23593323 39.400849 1.24050903 40.16500854 C1 42 1 42 -1 44 C-3.625 43.625 -3.625 43.625 -6 43 C-6.33 43.66 -6.66 44.32 -7 45 C-7 40.05 -7 35.1 -7 30 C-6.67 30 -6.34 30 -6 30 C-5.67 31.65 -5.34 33.3 -5 35 C-3.515 34.505 -3.515 34.505 -2 34 C-2 34.66 -2 35.32 -2 36 C-1.34 36 -0.68 36 0 36 C0 24.12 0 12.24 0 0 Z " fill="#2F7A40" transform="translate(252,4)"/>
<path d="M0 0 C1.62490954 -0.02698189 3.24994633 -0.04638757 4.875 -0.0625 C5.77992187 -0.07410156 6.68484375 -0.08570313 7.6171875 -0.09765625 C10 0 10 0 12 1 C12 4.96 12 8.92 12 13 C10.68 13 9.36 13 8 13 C5.859375 10.41015625 5.859375 10.41015625 3.75 7.0625 C3.04359375 5.96035156 2.3371875 4.85820313 1.609375 3.72265625 C0 1 0 1 0 0 Z " fill="#2E763E" transform="translate(25,47)"/>
<path d="M0 0 C-0.99 1.485 -0.99 1.485 -2 3 C-3.65 2.67 -5.3 2.34 -7 2 C-7 2.66 -7 3.32 -7 4 C-5.02 4.66 -3.04 5.32 -1 6 C-0.375 8.375 -0.375 8.375 0 11 C-2 13 -2 13 -5.625 13.125 C-6.73875 13.08375 -7.8525 13.0425 -9 13 C-9.33 11.68 -9.66 10.36 -10 9 C-7.69 9.33 -5.38 9.66 -3 10 C-3 9.34 -3 8.68 -3 8 C-3.969375 7.855625 -4.93875 7.71125 -5.9375 7.5625 C-9 7 -9 7 -10 6 C-10.04080783 4.00041636 -10.04254356 1.99954746 -10 0 C-6.22996568 -2.61002376 -4.07631429 -1.66758312 0 0 Z " fill="#1C1E1A" transform="translate(143,67)"/>
<path d="M0 0 C2.69082872 0.17635452 5.32851446 0.61835921 8 1 C7.67 1.99 7.34 2.98 7 4 C5.35 4 3.7 4 2 4 C2 4.66 2 5.32 2 6 C3.65 6 5.3 6 7 6 C7.33 6.99 7.66 7.98 8 9 C7.195625 9.12375 6.39125 9.2475 5.5625 9.375 C4.716875 9.58125 3.87125 9.7875 3 10 C2.67 10.66 2.34 11.32 2 12 C3.98 12 5.96 12 8 12 C8 12.99 8 13.98 8 15 C5.03 15 2.06 15 -1 15 C-1.02685412 12.68756208 -1.04632841 10.3750373 -1.0625 8.0625 C-1.07410156 6.77472656 -1.08570313 5.48695312 -1.09765625 4.16015625 C-1 1 -1 1 0 0 Z " fill="#1D201C" transform="translate(37,65)"/>
<path d="M0 0 C-0.99 1.485 -0.99 1.485 -2 3 C-3.65 2.67 -5.3 2.34 -7 2 C-7 2.66 -7 3.32 -7 4 C-5.02 4.66 -3.04 5.32 -1 6 C-0.375 8.375 -0.375 8.375 0 11 C-2 13 -2 13 -5.625 13.125 C-6.73875 13.08375 -7.8525 13.0425 -9 13 C-9.33 11.68 -9.66 10.36 -10 9 C-7.69 9.33 -5.38 9.66 -3 10 C-3 9.34 -3 8.68 -3 8 C-3.969375 7.855625 -4.93875 7.71125 -5.9375 7.5625 C-9 7 -9 7 -10 6 C-9.71269945 3.66055264 -9.38063221 1.3260857 -9 -1 C-5.23375329 -2.25541557 -3.62811066 -1.37061958 0 0 Z " fill="#1C1E1A" transform="translate(299,67)"/>
<path d="M0 0 C0.33 0 0.66 0 1 0 C1.33 10.89 1.66 21.78 2 33 C3.98 33 5.96 33 8 33 C8 26.4 8 19.8 8 13 C8.33 13 8.66 13 9 13 C9.02886984 16.97915159 9.04675406 20.95827653 9.0625 24.9375 C9.07087891 26.07380859 9.07925781 27.21011719 9.08789062 28.38085938 C9.09111328 29.46044922 9.09433594 30.54003906 9.09765625 31.65234375 C9.10289307 32.65257568 9.10812988 33.65280762 9.11352539 34.68334961 C9 37 9 37 8 38 C5.36 38 2.72 38 0 38 C0 25.46 0 12.92 0 0 Z " fill="#223B26" transform="translate(154,21)"/>
<path d="M0 0 C0.33 0 0.66 0 1 0 C1.33 7.26 1.66 14.52 2 22 C2.99 21.34 3.98 20.68 5 20 C5.99 20.66 6.98 21.32 8 22 C8 14.74 8 7.48 8 0 C8.33 0 8.66 0 9 0 C9.85481185 9.508138 10.04377631 18.47754842 9 28 C8.34 28 7.68 28 7 28 C7 27.34 7 26.68 7 26 C4.69 26.66 2.38 27.32 0 28 C0 18.76 0 9.52 0 0 Z " fill="#254E2E" transform="translate(113,20)"/>
<path d="M0 0 C0.99 0 1.98 0 3 0 C3.33 3.3 3.66 6.6 4 10 C4.99 10 5.98 10 7 10 C7.33 6.7 7.66 3.4 8 0 C8.99 0 9.98 0 11 0 C11.05410687 1.77049689 11.09284119 3.54146849 11.125 5.3125 C11.14820313 6.29863281 11.17140625 7.28476563 11.1953125 8.30078125 C11 11 11 11 9 14 C5.5 14.3125 5.5 14.3125 2 14 C0 12 0 12 -0.1953125 9.1796875 C-0.17210937 8.08914062 -0.14890625 6.99859375 -0.125 5.875 C-0.10695313 4.77929688 -0.08890625 3.68359375 -0.0703125 2.5546875 C-0.04710937 1.71164063 -0.02390625 0.86859375 0 0 Z " fill="#1E261E" transform="translate(12,66)"/>
<path d="M0 0 C0.125 2.875 0.125 2.875 0 6 C-2 8 -2 8 -4.625 8.125 C-5.40875 8.08375 -6.1925 8.0425 -7 8 C-7 9.65 -7 11.3 -7 13 C-7.99 13 -8.98 13 -10 13 C-10 8.38 -10 3.76 -10 -1 C-5.59232396 -2.10191901 -4.1077065 -1.58706842 0 0 Z M-7 2 C-7 2.99 -7 3.98 -7 5 C-5.68 5 -4.36 5 -3 5 C-3 4.01 -3 3.02 -3 2 C-4.32 2 -5.64 2 -7 2 Z " fill="#1C1E1B" transform="translate(11,67)"/>
<path d="M0 0 C1.36125 0.37125 1.36125 0.37125 2.75 0.75 C2.75 2.07 2.75 3.39 2.75 4.75 C0.77 4.75 -1.21 4.75 -3.25 4.75 C-3.25 7.06 -3.25 9.37 -3.25 11.75 C-1.27 11.42 0.71 11.09 2.75 10.75 C3.08 11.74 3.41 12.73 3.75 13.75 C0.95129973 15.14935013 -1.15498792 15.00265405 -4.25 14.75 C-6.125 13.75 -6.125 13.75 -7.25 11.75 C-8.00636364 4.94272727 -8.00636364 4.94272727 -5.625 1.1875 C-3.25 -0.25 -3.25 -0.25 0 0 Z " fill="#1D201C" transform="translate(124.25,65.25)"/>
<path d="M0 0 C2.35171131 0.59861742 4.6859378 1.26924352 7 2 C7.33 2.66 7.66 3.32 8 4 C11.60992379 3.34414811 11.60992379 3.34414811 15 2 C16.5 3.1875 16.5 3.1875 18 5 C18.09375 7.61328125 18.09375 7.61328125 18 10 C6.42221544 10.11865958 6.42221544 10.11865958 3.0234375 7.4453125 C1.33150683 5.06077863 0 2.9886387 0 0 Z " fill="#308544" transform="translate(19,38)"/>
<path d="M0 0 C0.66 3.3 1.32 6.6 2 10 C-2 12 -2 12 -4.625 11.9375 C-7 11 -7 11 -8.3125 8.625 C-9 6 -9 6 -9 3 C-8.34 3 -7.68 3 -7 3 C-7 2.34 -7 1.68 -7 1 C-5 0 -5 0 0 0 Z " fill="#2F7C40" transform="translate(189,40)"/>
<path d="M0 0 C1.98 0 3.96 0 6 0 C6.33 0.66 6.66 1.32 7 2 C7.825 2.165 8.65 2.33 9.5 2.5 C10.7375 2.7475 10.7375 2.7475 12 3 C13.60725635 6.21451269 13.05748185 9.43612536 13 13 C10.03 12.67 7.06 12.34 4 12 C4.33 8.37 4.66 4.74 5 1 C3.35 1 1.7 1 0 1 C0 0.67 0 0.34 0 0 Z " fill="#2E793F" transform="translate(62,39)"/>
<path d="M0 0 C2.475 0.99 2.475 0.99 5 2 C5.04254356 3.99954746 5.04080783 6.00041636 5 8 C4 9 4 9 0.125 9.3125 C-3.70810811 9.29189189 -3.70810811 9.29189189 -6 7 C-6.33 6.34 -6.66 5.68 -7 5 C-4.35261084 3.5393715 -3.10551666 3 0 3 C0 2.01 0 1.02 0 0 Z " fill="#295C34" transform="translate(233,51)"/>
<path d="M0 0 C3.41943506 0.42269769 6.72174346 0.91991217 10 2 C11.625 4.625 11.625 4.625 12 7 C11.34 7.66 10.68 8.32 10 9 C5.35714286 9 5.35714286 9 3 8 C0.75 4.9375 0.75 4.9375 -1 2 C-0.67 1.34 -0.34 0.68 0 0 Z " fill="#2D703C" transform="translate(265,46)"/>
<path d="M0 0 C-1.61594832 2.04119788 -3.2856382 4.04072937 -5 6 C-5.66 6 -6.32 6 -7 6 C-7.33 6.66 -7.66 7.32 -8 8 C-10.5625 8.625 -10.5625 8.625 -13 9 C-13 6.36 -13 3.72 -13 1 C-12.01 0.67 -11.02 0.34 -10 0 C-9.67 0.66 -9.34 1.32 -9 2 C-8.071875 1.484375 -7.14375 0.96875 -6.1875 0.4375 C-3 -1 -3 -1 0 0 Z " fill="#308443" transform="translate(58,40)"/>
<path d="M0 0 C0.66 0 1.32 0 2 0 C2 3.3 2 6.6 2 10 C-0.64 10 -3.28 10 -6 10 C-5.75 7.125 -5.75 7.125 -5 4 C-3 2.75 -3 2.75 -1 2 C-0.67 1.34 -0.34 0.68 0 0 Z " fill="#2C6839" transform="translate(144,49)"/>
<path d="M0 0 C0 0.66 0 1.32 0 2 C0.99 2.33 1.98 2.66 3 3 C4.1875 5.5625 4.1875 5.5625 5 8 C2.32916926 9.33541537 -0.07298555 9 -3 9 C-2.67 7.68 -2.34 6.36 -2 5 C-3.32 4.67 -4.64 4.34 -6 4 C-5.67 3.01 -5.34 2.02 -5 1 C-2 0 -2 0 0 0 Z " fill="#2F7D41" transform="translate(120,46)"/>
<path d="M0 0 C1.3921875 0.3403125 1.3921875 0.3403125 2.8125 0.6875 C3.4725 2.6675 4.1325 4.6475 4.8125 6.6875 C3.35304712 6.60041331 1.89484132 6.49223093 0.4375 6.375 C-0.37460938 6.31699219 -1.18671875 6.25898437 -2.0234375 6.19921875 C-4.1875 5.6875 -4.1875 5.6875 -6.1875 2.6875 C-4.14987265 -0.14253799 -3.59070275 -0.35202968 0 0 Z " fill="#2A5D35" transform="translate(254.1875,53.3125)"/>
<path d="M0 0 C1.91015625 0.70703125 1.91015625 0.70703125 4.0625 1.8125 C4.77535156 2.16957031 5.48820313 2.52664062 6.22265625 2.89453125 C8 4 8 4 9 6 C6.9160597 5.88556397 4.83283507 5.75804453 2.75 5.625 C1.58984375 5.55539063 0.4296875 5.48578125 -0.765625 5.4140625 C-3.70694334 5.03751692 -5.49949011 4.5225877 -8 3 C-5 1 -5 1 -2 1 C-1.34 0.67 -0.68 0.34 0 0 Z " fill="#2C6C3A" transform="translate(191,49)"/>
<path d="M0 0 C1.65 0 3.3 0 5 0 C5.33 2.31 5.66 4.62 6 7 C3.69 7.33 1.38 7.66 -1 8 C-1.125 2.25 -1.125 2.25 0 0 Z " fill="#2F7A40" transform="translate(156,47)"/>
<path d="M0 0 C4.8 2.46153846 4.8 2.46153846 5.8125 5.1875 C5.874375 5.785625 5.93625 6.38375 6 7 C4.081875 6.8453125 4.081875 6.8453125 2.125 6.6875 C1.04605469 6.60048828 1.04605469 6.60048828 -0.0546875 6.51171875 C-2 6 -2 6 -4 3 C-2.68 2.01 -1.36 1.02 0 0 Z " fill="#2A5E35" transform="translate(72,53)"/>
<path d="M0 0 C0.99 0 1.98 0 3 0 C3 4.62 3 9.24 3 14 C2.01 14 1.02 14 0 14 C0 9.38 0 4.76 0 0 Z " fill="#1C1C1A" transform="translate(113,66)"/>
<path d="M0 0 C0.33 0 0.66 0 1 0 C1.19573608 1.43640171 1.38127816 2.87419504 1.5625 4.3125 C1.66691406 5.11300781 1.77132812 5.91351563 1.87890625 6.73828125 C2 9 2 9 1 12 C-1.97 11.505 -1.97 11.505 -5 11 C-5.33 11.66 -5.66 12.32 -6 13 C-6 11.02 -6 9.04 -6 7 C-4.68 6.34 -3.36 5.68 -2 5 C-1.67 5.33 -1.34 5.66 -1 6 C-0.67 4.02 -0.34 2.04 0 0 Z " fill="#308744" transform="translate(230,36)"/>
<path d="M0 0 C0.99386719 0.10183594 1.98773438 0.20367187 3.01171875 0.30859375 C3.77097656 0.39238281 4.53023438 0.47617187 5.3125 0.5625 C5.3125 2.5425 5.3125 4.5225 5.3125 6.5625 C4.6525 5.2425 3.9925 3.9225 3.3125 2.5625 C-0.54395121 2.34213136 -3.17973216 2.95894899 -6.6875 4.5625 C-7.3475 3.2425 -8.0075 1.9225 -8.6875 0.5625 C-5.3763987 -0.54120043 -3.44001051 -0.36423641 0 0 Z " fill="#2C6D3A" transform="translate(253.6875,51.4375)"/>
<path d="M0 0 C0.66 1.32 1.32 2.64 2 4 C4.31 3.34 6.62 2.68 9 2 C8.67 3.32 8.34 4.64 8 6 C6.68 6.33 5.36 6.66 4 7 C4 7.66 4 8.32 4 9 C2.68 8.34 1.36 7.68 0 7 C0 4.69 0 2.38 0 0 Z " fill="#2C6C3A" transform="translate(44,44)"/>
<path d="M0 0 C1.32 0.33 2.64 0.66 4 1 C4.33 2.98 4.66 4.96 5 7 C2.69 6.67 0.38 6.34 -2 6 C-2 4.68 -2 3.36 -2 2 C-1.34 2 -0.68 2 0 2 C0 1.34 0 0.68 0 0 Z " fill="#318945" transform="translate(90,41)"/>
<path d="M0 0 C1.8125 0.1875 1.8125 0.1875 4 1 C5.75 3.5625 5.75 3.5625 7 6 C4.36 6 1.72 6 -1 6 C-0.67 4.02 -0.34 2.04 0 0 Z " fill="#2B6338" transform="translate(1,53)"/>
<path d="M0 0 C2.31 0.33 4.62 0.66 7 1 C7.33 2.98 7.66 4.96 8 7 C6.68 7 5.36 7 4 7 C2.02 3.535 2.02 3.535 0 0 Z " fill="#2A5F35" transform="translate(29,53)"/>
<path d="M0 0 C0.70125 0.144375 1.4025 0.28875 2.125 0.4375 C5.07556141 1.01478375 8.03270151 1.51695141 11 2 C11 2.33 11 2.66 11 3 C6.28400182 3.92470553 3.32734391 4.22923777 -1 2 C-0.67 1.34 -0.34 0.68 0 0 Z " fill="#2E773E" transform="translate(50,51)"/>
<path d="M0 0 C3.3 0.33 6.6 0.66 10 1 C8.515 2.485 8.515 2.485 7 4 C4.69 3.34 2.38 2.68 0 2 C0 1.34 0 0.68 0 0 Z " fill="#2E783F" transform="translate(278,52)"/>
<path d="M0 0 C1.98 0.495 1.98 0.495 4 1 C4 1.99 4 2.98 4 4 C2.35 4.33 0.7 4.66 -1 5 C-0.67 3.35 -0.34 1.7 0 0 Z " fill="#2E753E" transform="translate(291,50)"/>
<path d="M0 0 C0.66 0.33 1.32 0.66 2 1 C-0.64 3.64 -3.28 6.28 -6 9 C-6 6 -6 6 -3.5625 3.375 C-2.716875 2.59125 -1.87125 1.8075 -1 1 C-0.67 0.67 -0.34 0.34 0 0 Z " fill="#2C703B" transform="translate(189,21)"/>
<path d="M0 0 C4 0 4 0 6 1 C5.67 1.99 5.34 2.98 5 4 C4.401875 3.814375 3.80375 3.62875 3.1875 3.4375 C0.83591238 2.77906313 0.83591238 2.77906313 -2 4 C-1.34 2.68 -0.68 1.36 0 0 Z " fill="#2D703B" transform="translate(119,51)"/>
<path d="M0 0 C2.31 0.66 4.62 1.32 7 2 C6.01 2.495 6.01 2.495 5 3 C5 3.66 5 4.32 5 5 C3.0625 4.1875 3.0625 4.1875 1 3 C0.67 2.01 0.34 1.02 0 0 Z " fill="#2E7A3F" transform="translate(19,38)"/>
</svg>
