<?xml version="1.0" encoding="UTF-8"?>
<svg version="1.1" xmlns="http://www.w3.org/2000/svg" width="512" height="512">
<path d="M0 0 C3.63 0 7.26 0 11 0 C11 14.85 11 29.7 11 45 C7.37 45 3.74 45 0 45 C-0.061875 43.47375 -0.12375 41.9475 -0.1875 40.375 C-0.74926379 34.94974695 -1.82453062 32.54007187 -6 29 C-10.05891233 27.7454271 -12.21684156 27.74396743 -16.25 29.0625 C-19.62547612 31.44067635 -20.7187601 33.08091325 -22 37 C-22 41.02549363 -21.4644982 43.27175224 -19.30078125 46.6640625 C-14.88101945 50.86673273 -7.86859719 49.78604895 -2.1875 49.8125 C-0.28967773 49.85020508 -0.28967773 49.85020508 1.64648438 49.88867188 C4.76463543 49.94750491 7.88138367 49.98381506 11 50 C11.19406478 51.64507218 11.38007935 53.29109594 11.5625 54.9375 C11.71912109 56.31228516 11.71912109 56.31228516 11.87890625 57.71484375 C11.93884766 58.84599609 11.93884766 58.84599609 12 60 C9.4086693 62.5913307 2.48427569 61.27437936 -1.02612305 61.29516602 C-3.03001954 61.31222352 -5.03363007 61.35608764 -7.03710938 61.40039062 C-15.01615406 61.45269904 -21.36952917 61.33175554 -27.47216797 55.62280273 C-32.92410738 49.53033492 -34.62807432 44.15341665 -34.41796875 36.109375 C-33.58721766 29.929208 -30.95026903 25.0015919 -26.625 20.5625 C-20.07133572 16.66150935 -14.6850978 14.83351194 -7 16 C-4.69 16.99 -2.38 17.98 0 19 C0 12.73 0 6.46 0 0 Z " fill="#A06EE4" transform="translate(126,214)"/>
<path d="M0 0 C1.49498913 2.98997825 1.11577446 5.70042775 1 9 C0 12 0 12 -2.9375 13.6875 C-6.44814597 16.33839594 -7.17557258 17.77621186 -7.94921875 21.97265625 C-8.05464791 26.18171281 -6.01918893 28.86756786 -3.3125 31.875 C0.10250874 33.5363556 3.32402901 33.6650365 7 33 C10.63470989 30.7875679 12.23603205 28.78220155 14 25 C15.81242052 24.97312721 17.62495233 24.95366285 19.4375 24.9375 C20.44683594 24.92589844 21.45617187 24.91429687 22.49609375 24.90234375 C25 25 25 25 26 26 C26.64962139 37.19347621 27.05957911 47.25855863 19.75 56.375 C15.09801603 61.28055123 9.86292584 63.42508069 3.109375 64.06640625 C-3.22689913 63.86693095 -9.15977464 60.93971832 -14 57 C-17.16310458 53.0674916 -18.521671 50.02245446 -19 45 C-15.37 45 -11.74 45 -8 45 C-7.34 46.32 -6.68 47.64 -6 49 C-2.01293696 51.3453312 2.47902366 51.88300319 7 51 C10.52270578 49.02607004 12.70015869 46.89952392 14 43 C13.29230469 43.32097656 12.58460938 43.64195312 11.85546875 43.97265625 C5.14390195 46.38735128 -1.98326195 45.87475804 -8.4375 42.9375 C-14.07148233 39.73616815 -16.71827571 35.86862103 -19.3125 30.0625 C-21.06311728 22.26429577 -20.03166395 15.90661094 -16 9 C-11.64489412 4.06300106 -6.81720669 0 0 0 Z " fill="#FDFDFD" transform="translate(310,231)"/>
<path d="M0 0 C0.35029872 3.399195 0.53395679 6.61471396 0 10 C-2.875 12.375 -2.875 12.375 -6 14 C-8.58644464 17.4094043 -8.36503115 20.8386449 -8 25 C-6.34860695 28.5386994 -5.28394771 29.81070153 -2 32 C3.29977145 32.42740092 6.74748241 32.52351458 11 29 C11.37125 28.113125 11.7425 27.22625 12.125 26.3125 C14 24 14 24 16.62890625 23.6796875 C19.43499003 23.68685502 22.2025098 23.78626985 25 24 C26.07097118 47.8777143 26.07097118 47.8777143 20 55 C15.40456245 59.917742 10.44040265 62.05589052 3.80078125 62.9375 C-3.92938591 63.11000024 -9.81824448 60.23434158 -15.37109375 54.984375 C-17.92831071 51.86910829 -18.91594315 48.86195252 -20 45 C-18.37606095 43.37606095 -16.61552751 43.67418793 -14.375 43.5625 C-9.14795565 43.56992478 -7.29793661 45.08159862 -3.71875 48.65234375 C-1.6562624 50.26952153 -0.47340194 50.48978353 2.125 50.5625 C5.97135097 50.00415873 8.05188526 49.50143069 11 47 C11.87822312 44.91466367 11.87822312 44.91466367 12 43 C11.18789063 43.23783203 11.18789063 43.23783203 10.359375 43.48046875 C3.40430783 45.01196533 -4.0150875 44.99894859 -10.25 41.3359375 C-14.9344511 37.75986099 -18.18978033 33.62813751 -20 28 C-20.8396235 20.37504702 -20.8060122 13.26418308 -16 7 C-11.81188431 2.81188431 -6.11826752 -2.03942251 0 0 Z " fill="#FDFDFD" transform="translate(415,232)"/>
<path d="M0 0 C5.26138311 3.99357995 8.65445776 8.48214401 10 15 C10.25433182 17.76405899 10.19571836 20.21101343 10 23 C9 24 9 24 5.85717773 24.11352539 C4.46597303 24.11336633 3.07476239 24.10767506 1.68359375 24.09765625 C0.95253922 24.0962413 0.22148468 24.09482635 -0.53172302 24.09336853 C-2.87535632 24.08775408 -5.21889539 24.07519922 -7.5625 24.0625 C-9.14778508 24.05748686 -10.73307166 24.05292363 -12.31835938 24.04882812 C-16.2122761 24.03777997 -20.10612205 24.02050572 -24 24 C-21.41889311 28.58544817 -21.41889311 28.58544817 -17 31 C-11.18541952 31.58173641 -11.18541952 31.58173641 -6.1875 29 C-1.56310314 26.09841765 2.67897843 26.65915164 8 27 C8.495 27.99 8.495 27.99 9 29 C6.35388993 34.82144215 2.56819735 39.27526713 -3.23046875 42.078125 C-9.72656904 44.24043765 -18.19691723 44.27815432 -24.5 41.4375 C-29.39412731 38.46531539 -32.78658742 34.37167004 -35.375 29.3125 C-36.93931973 21.02160542 -36.91090217 13.67887927 -32.6953125 6.19921875 C-25.05873351 -3.70721898 -10.79640891 -6.31657119 0 0 Z M-21 11 C-21.66 12.32 -22.32 13.64 -23 15 C-16.4 15 -9.8 15 -3 15 C-5.27838488 10.44323025 -6.41498448 9.83400621 -11 8 C-15.39989151 8 -17.28908876 8.74118446 -21 11 Z " fill="#965BDD" transform="translate(78,233)"/>
<path d="M0 0 C5.49932879 3.87582632 9.20709068 7.68230894 10.46484375 14.53125 C11.09574493 19.465039 11.09574493 19.465039 11 22 C9 24 9 24 5.83544922 24.22705078 C4.49182037 24.22673389 3.1481659 24.21542181 1.8046875 24.1953125 C1.09724396 24.1924826 0.38980042 24.18965271 -0.33908081 24.18673706 C-2.6012251 24.17553137 -4.86297515 24.15042679 -7.125 24.125 C-8.65754637 24.11497067 -10.19009894 24.10584474 -11.72265625 24.09765625 C-15.48192301 24.07559086 -19.24089464 24.04105896 -23 24 C-20.48652807 28.65565673 -20.48652807 28.65565673 -16 31 C-10.26174015 31.564419 -7.83924823 31.11797331 -2.94140625 27.890625 C0.81753314 26.1662021 4.95714214 26.70715718 9 27 C8.6245782 32.25590519 6.88039631 35.52909274 3 39 C-3.48034748 44.07157629 -11.10941144 43.8941438 -19 43 C-25.30914056 41.31290387 -29.36053949 37.28502517 -33 32 C-36.16738485 26.11771386 -36.5648024 20.20804943 -34.8125 13.875 C-32.13603953 6.0726398 -28.38236724 1.61909019 -21 -2 C-13.86214277 -4.27438737 -6.4944076 -3.67607978 0 0 Z M-22 12 C-22.33 12.99 -22.66 13.98 -23 15 C-16.07 15 -9.14 15 -2 15 C-4.11219798 10.77560403 -4.85463866 9.88425516 -9 8 C-14.50059895 7.16295233 -17.57575584 8.96375401 -22 12 Z " fill="#FDFDFD" transform="translate(226,233)"/>
<path d="M0 0 C4.84603908 3.6961315 7.52775242 7.90878904 9.15625 13.78125 C9.43647238 16.55131711 9.35938116 18.98819651 9.15625 21.78125 C5.15304847 22.73502184 1.43413253 22.8970116 -2.67578125 22.87890625 C-3.96806641 22.87568359 -5.26035156 22.87246094 -6.59179688 22.86914062 C-7.94661526 22.86078665 -9.30143297 22.85232172 -10.65625 22.84375 C-12.03059735 22.83873 -13.40494645 22.83416797 -14.77929688 22.83007812 C-18.13415924 22.81830668 -21.48893221 22.80186283 -24.84375 22.78125 C-22.46745911 26.92795039 -22.46745911 26.92795039 -18.84375 29.78125 C-12.89310824 30.53433952 -9.04114019 29.61201374 -3.90625 26.671875 C-0.31719468 25.12205566 3.32504698 25.46198308 7.15625 25.78125 C6.7808282 31.03715519 5.03664631 34.31034274 1.15625 37.78125 C-5.32409748 42.85282629 -12.95316144 42.6753938 -20.84375 41.78125 C-27.05248213 40.12100359 -31.37086617 36.10117715 -34.84375 30.78125 C-38.00804981 24.27866827 -37.98101756 16.82241435 -36.0390625 9.921875 C-33.22074253 3.50776748 -29.11587674 -0.17805886 -22.84375 -3.21875 C-14.82581056 -5.80160401 -6.97234705 -4.60883958 0 0 Z M-23.84375 10.78125 C-23.84375 11.77125 -23.84375 12.76125 -23.84375 13.78125 C-17.24375 13.78125 -10.64375 13.78125 -3.84375 13.78125 C-5.95594798 9.55685403 -6.69838866 8.66550516 -10.84375 6.78125 C-16.35231179 5.9429906 -19.3403637 7.89908277 -23.84375 10.78125 Z " fill="#FDFDFD" transform="translate(482.84375,234.21875)"/>
<path d="M0 0 C1.30388672 0.01353516 2.60777344 0.02707031 3.95117188 0.04101562 C7.15537622 0.07622666 10.35872105 0.12547906 13.5625 0.1875 C13.5625 3.8175 13.5625 7.4475 13.5625 11.1875 C10.95988281 11.24357422 10.95988281 11.24357422 8.3046875 11.30078125 C6.01560377 11.36645168 3.72654223 11.43289865 1.4375 11.5 C-0.27566406 11.53383789 -0.27566406 11.53383789 -2.0234375 11.56835938 C-10.17609561 11.74885516 -10.17609561 11.74885516 -17.4375 15.1875 C-20.1165573 19.20608595 -20.13360694 22.46391721 -19.4375 27.1875 C-17.64356332 30.05779869 -16.45486724 31.67881638 -13.4375 33.1875 C-7.01804607 33.74013967 -7.01804607 33.74013967 -1.4375 31.1875 C1.04473513 26.49883365 1.92718576 22.48178534 2.5625 17.1875 C3.5625 16.1875 3.5625 16.1875 5.59375 16.0546875 C6.4084375 16.05726563 7.223125 16.05984375 8.0625 16.0625 C8.8771875 16.05992187 9.691875 16.05734375 10.53125 16.0546875 C12.5625 16.1875 12.5625 16.1875 13.5625 17.1875 C13.77267016 19.49645269 13.93089941 21.81023969 14.0625 24.125 C14.16896201 28.82057996 14.16896201 28.82057996 15.5625 33.1875 C16.8825 33.8475 18.2025 34.5075 19.5625 35.1875 C19.5625 38.4875 19.5625 41.7875 19.5625 45.1875 C9.99107143 44.47321429 9.99107143 44.47321429 5.5625 41.1875 C4.82 41.661875 4.0775 42.13625 3.3125 42.625 C-2.54162847 45.95120936 -8.84687782 45.78048657 -15.4375 45.1875 C-22.45078727 43.25360351 -26.78306023 38.36915169 -30.578125 32.390625 C-32.75908592 26.79943428 -32.31091437 19.38836518 -30.75 13.66796875 C-27.9320657 7.52722026 -23.01741186 3.38515085 -16.78979492 0.79174805 C-11.34764032 -0.60621071 -5.57565855 -0.10976814 0 0 Z " fill="#FDFDFD" transform="translate(373.4375,230.8125)"/>
<path d="M0 0 C4.87100157 2.81480009 8.63374003 7.06497343 10.625 12.375 C11.42646825 16.44566268 11.74402148 20.28483262 11.72265625 24.4296875 C11.71943359 25.53828125 11.71621094 26.646875 11.71289062 27.7890625 C11.70032227 29.50222656 11.70032227 29.50222656 11.6875 31.25 C11.68298828 32.4153125 11.67847656 33.580625 11.67382812 34.78125 C11.66208794 37.64585551 11.64415386 40.51043446 11.625 43.375 C7.665 43.375 3.705 43.375 -0.375 43.375 C-0.38917969 41.41175781 -0.40335937 39.44851563 -0.41796875 37.42578125 C-0.46486785 34.84633061 -0.51311524 32.26690424 -0.5625 29.6875 C-0.56830078 28.39392578 -0.57410156 27.10035156 -0.58007812 25.76757812 C-0.60908203 24.52041016 -0.63808594 23.27324219 -0.66796875 21.98828125 C-0.6836792 20.84141846 -0.69938965 19.69455566 -0.71557617 18.51293945 C-1.56552901 14.46834715 -3.20824402 12.94500026 -6.375 10.375 C-8.71090044 9.83884193 -8.71090044 9.83884193 -11 10.3125 C-11.75539063 10.40402344 -12.51078125 10.49554688 -13.2890625 10.58984375 C-16.10165388 11.64851579 -16.84204627 12.79586743 -18.375 15.375 C-18.87817193 18.46651231 -18.87817193 18.46651231 -18.88671875 21.890625 C-18.92216797 23.14101562 -18.95761719 24.39140625 -18.99414062 25.6796875 C-19.02797852 27.63261719 -19.02797852 27.63261719 -19.0625 29.625 C-19.09666016 30.94242187 -19.13082031 32.25984375 -19.16601562 33.6171875 C-19.24850706 36.86970678 -19.3176567 40.12195596 -19.375 43.375 C-21.18742052 43.40187279 -22.99995233 43.42133715 -24.8125 43.4375 C-25.82183594 43.44910156 -26.83117187 43.46070313 -27.87109375 43.47265625 C-30.375 43.375 -30.375 43.375 -31.375 42.375 C-31.63022262 38.52778703 -31.56024185 34.66715895 -31.5625 30.8125 C-31.57474609 29.73935547 -31.58699219 28.66621094 -31.59960938 27.56054688 C-31.61580156 18.74659863 -31.06166791 11.52395395 -25.375 4.375 C-18.31647496 -2.14056157 -8.92907382 -4.06637138 0 0 Z " fill="#FDFDFD" transform="translate(273.375,231.625)"/>
<path d="M0 0 C1 1 1 1 1.09765625 3.28515625 C1.08605469 4.20167969 1.07445313 5.11820313 1.0625 6.0625 C1.05347656 6.98160156 1.04445313 7.90070313 1.03515625 8.84765625 C1.02355469 9.55792969 1.01195313 10.26820313 1 11 C-0.093125 11.391875 -1.18625 11.78375 -2.3125 12.1875 C-6.06474959 13.53264608 -7.22652258 15.47991603 -9 19 C-9.49789207 21.98826823 -9.49789207 21.98826823 -9.51171875 25.17578125 C-9.54716797 26.33271484 -9.58261719 27.48964844 -9.61914062 28.68164062 C-9.65297852 30.47891602 -9.65297852 30.47891602 -9.6875 32.3125 C-9.72166016 33.53001953 -9.75582031 34.74753906 -9.79101562 36.00195312 C-9.87334817 39.00121014 -9.94254921 42.00018014 -10 45 C-13.63 45 -17.26 45 -21 45 C-21.09969463 40.87417603 -21.17185233 36.74882903 -21.21972656 32.62207031 C-21.2397063 31.22155527 -21.2669002 29.82112218 -21.30175781 28.42089844 C-21.69675755 12.13296828 -21.69675755 12.13296828 -15.62255859 5.49462891 C-11.08152828 1.34151836 -6.12375325 -0.52489314 0 0 Z " fill="#8E4BD3" transform="translate(39,230)"/>
<path d="M0 0 C0.73024887 0.00718552 1.46049774 0.01437103 2.21287537 0.02177429 C3.3370713 0.02246162 3.3370713 0.02246162 4.48397827 0.02316284 C6.06851281 0.02618493 7.65304438 0.03406998 9.23753357 0.0464325 C11.6714777 0.06469621 14.10504173 0.06694215 16.53904724 0.06669617 C18.07615993 0.07161104 19.61327002 0.07743922 21.15037537 0.08427429 C21.88264847 0.08538712 22.61492157 0.08649994 23.36938477 0.08764648 C28.49916673 0.13619066 28.49916673 0.13619066 29.61521912 1.25224304 C29.61521912 4.55224304 29.61521912 7.85224304 29.61521912 11.25224304 C17.73521912 11.25224304 5.85521912 11.25224304 -6.38478088 11.25224304 C-7.89140186 8.2390011 -7.56248461 5.56937927 -7.38478088 2.25224304 C-4.88735685 -0.24518099 -3.40760478 0.0154784 0 0 Z " fill="#A878EA" transform="translate(153.38478088378906,238.7477569580078)"/>
<path d="M0 0 C0.87454834 0.00523682 1.74909668 0.01047363 2.65014648 0.01586914 C3.50036377 0.0183667 4.35058105 0.02086426 5.2265625 0.0234375 C6.85742798 0.03709351 6.85742798 0.03709351 8.52124023 0.05102539 C11.96561523 0.07165039 15.40999023 0.09227539 18.95874023 0.11352539 C18.95874023 7.04352539 18.95874023 13.97352539 18.95874023 21.11352539 C14.28915097 22.04744324 11.54407406 21.92270195 6.95874023 21.11352539 C6.95874023 17.81352539 6.95874023 14.51352539 6.95874023 11.11352539 C3.65874023 11.11352539 0.35874023 11.11352539 -3.04125977 11.11352539 C-3.13891602 3.39868164 -3.13891602 3.39868164 -3.04125977 1.11352539 C-2.04125977 0.11352539 -2.04125977 0.11352539 0 0 Z " fill="#8C4CD1" transform="translate(317.041259765625,230.886474609375)"/>
<path d="M0 0 C0.87454834 0.00523682 1.74909668 0.01047363 2.65014648 0.01586914 C3.59438477 0.0190918 4.53862305 0.02231445 5.51147461 0.02563477 C6.50469727 0.03401367 7.49791992 0.04239258 8.52124023 0.05102539 C9.51833008 0.05553711 10.51541992 0.06004883 11.54272461 0.06469727 C14.01478872 0.07652532 16.48673541 0.0930069 18.95874023 0.11352539 C18.98761837 3.5926748 19.0054971 7.0717937 19.02124023 10.55102539 C19.02961914 11.54424805 19.03799805 12.5374707 19.04663086 13.56079102 C19.05146484 14.97714844 19.05146484 14.97714844 19.05639648 16.42211914 C19.06425171 17.73394165 19.06425171 17.73394165 19.07226562 19.07226562 C18.95874023 21.11352539 18.95874023 21.11352539 17.95874023 22.11352539 C16.43945986 22.18532503 14.91706542 22.19744546 13.39624023 22.17602539 C12.56995117 22.16700195 11.74366211 22.15797852 10.89233398 22.14868164 C9.93520508 22.1312793 9.93520508 22.1312793 8.95874023 22.11352539 C7.64247332 18.49379137 6.95874023 16.01785408 6.95874023 12.11352539 C6.3206543 12.05293945 5.68256836 11.99235352 5.02514648 11.92993164 C4.19885742 11.84614258 3.37256836 11.76235352 2.52124023 11.67602539 C1.6975293 11.59481445 0.87381836 11.51360352 0.02514648 11.42993164 C-2.04125977 11.11352539 -2.04125977 11.11352539 -3.04125977 10.11352539 C-3.13916546 8.61614415 -3.17100841 7.11409647 -3.16625977 5.61352539 C-3.16883789 4.79883789 -3.17141602 3.98415039 -3.17407227 3.14477539 C-2.99372624 0.38654208 -2.76153103 0.15358353 0 0 Z " fill="#B08AEE" transform="translate(421.041259765625,230.886474609375)"/>
<path d="M0 0 C0.66 0 1.32 0 2 0 C2 6.93 2 13.86 2 21 C-2.66958927 21.93391785 -5.41466617 21.80917656 -10 21 C-10 17.7 -10 14.4 -10 11 C-13.3 11 -16.6 11 -20 11 C-20 10.67 -20 10.34 -20 10 C-18.18757948 9.97312721 -16.37504767 9.95366285 -14.5625 9.9375 C-13.55316406 9.92589844 -12.54382813 9.91429687 -11.50390625 9.90234375 C-9 10 -9 10 -8 11 C-7.92820036 12.51928038 -7.91607993 14.04167482 -7.9375 15.5625 C-7.94652344 16.38878906 -7.95554687 17.21507812 -7.96484375 18.06640625 C-7.97644531 18.70449219 -7.98804688 19.34257812 -8 20 C-5.36 20 -2.72 20 0 20 C0 13.4 0 6.8 0 0 Z " fill="#A150E3" transform="translate(334,231)"/>
</svg>
