<?xml version="1.0" encoding="UTF-8"?>
<svg version="1.1" xmlns="http://www.w3.org/2000/svg" width="310" height="310">
<path d="M0 0 C0.02693575 2.12493141 0.04636628 4.24995912 0.0625 6.375 C0.07410156 7.55835938 0.08570313 8.74171875 0.09765625 9.9609375 C0 13 0 13 -1 15 C-0.0925 14.34 0.815 13.68 1.75 13 C6.79099078 10.1091461 12.3552955 10.14637302 18 11 C20.8671875 12.27734375 20.8671875 12.27734375 23 14 C23 15.32 23 16.64 23 18 C19.0248466 19.87633173 15.87842955 20.24376487 11.5 20.1875 C10.3965625 20.18105469 9.293125 20.17460938 8.15625 20.16796875 C5 20 5 20 2.26953125 19.3671875 C-0.24635823 18.69171289 -0.24635823 18.69171289 -2.8125 20.9375 C-3.534375 21.618125 -4.25625 22.29875 -5 23 C-3.98679687 23.07347656 -3.98679687 23.07347656 -2.953125 23.1484375 C-2.06109375 23.22320312 -1.1690625 23.29796875 -0.25 23.375 C0.63171875 23.44460937 1.5134375 23.51421875 2.421875 23.5859375 C4.99066382 23.99850055 6.75841015 24.71160957 9 26 C8.01729939 28.51486822 7.33622541 29.78299396 5.0390625 31.265625 C-1.03961408 33.74430865 -5.88413173 34.29650009 -12.43359375 33.75 C-15.16004301 33.72832791 -15.16004301 33.72832791 -16.84765625 36 C-17.22792969 36.66 -17.60820313 37.32 -18 38 C-17.22914062 37.98839844 -16.45828125 37.97679687 -15.6640625 37.96484375 C-14.66117188 37.95582031 -13.65828125 37.94679687 -12.625 37.9375 C-11.62726562 37.92589844 -10.62953125 37.91429687 -9.6015625 37.90234375 C-7 38 -7 38 -5 39 C-5.31650572 41.95405337 -5.95773082 42.95897403 -8.125 45.0625 C-14.2173614 49.16822181 -19.80842486 50.52708463 -27 51 C-27.99 53.475 -27.99 53.475 -29 56 C-28.01 55.505 -28.01 55.505 -27 55 C-25.12620395 54.92966231 -23.24998898 54.9156978 -21.375 54.9375 C-19.87066406 54.95103516 -19.87066406 54.95103516 -18.3359375 54.96484375 C-17.56507812 54.97644531 -16.79421875 54.98804688 -16 55 C-17.06723858 60.41652267 -20.61708869 62.89367095 -24.8125 66.25 C-28.73995997 68.40625253 -31.5601697 68.69380481 -36 69 C-36.33 70.98 -36.66 72.96 -37 75 C-35.96875 74.505 -34.9375 74.01 -33.875 73.5 C-30.47548422 72.02526098 -27.72978451 71.72708894 -24 72 C-24.77906676 77.88400418 -27.88246978 80.9525554 -32 85 C-35.47061193 87.64427575 -37.64955762 88.37289506 -42 88 C-41.67 90.31 -41.34 92.62 -41 95 C-40.13375 94.360625 -39.2675 93.72125 -38.375 93.0625 C-35.0401188 91.02451704 -32.83952522 90.36566907 -29 90 C-29.58953679 97.36920991 -32.14781184 101.51996036 -37.625 106.3125 C-39.40678178 107.79472458 -40.92496493 108.96248246 -43 110 C-43.40729228 112.32156597 -43.74438677 114.6568787 -44 117 C-43.34 117 -42.68 117 -42 117 C-41.7525 116.401875 -41.505 115.80375 -41.25 115.1875 C-39.78477848 112.62336233 -38.52622797 111.51573678 -36 110 C-33.25 109.3125 -33.25 109.3125 -31 109 C-31.33458417 116.02626764 -32.74871879 121.29342846 -37 127 C-39.16796875 128.7578125 -39.16796875 128.7578125 -41 130 C-40.67 131.65 -40.34 133.3 -40 135 C-39.44570313 134.4946875 -38.89140625 133.989375 -38.3203125 133.46875 C-37.23363281 132.49421875 -37.23363281 132.49421875 -36.125 131.5 C-35.40570313 130.8503125 -34.68640625 130.200625 -33.9453125 129.53125 C-32 128 -32 128 -30 128 C-30.02094727 127.27635254 -30.04189453 126.55270508 -30.06347656 125.80712891 C-30.9030933 92.28091376 -23.40550289 65.3768146 0.17797852 40.48730469 C20.22743248 19.9028095 48.56976793 8.34754927 77.16870117 7.64624023 C107.29145707 7.42026112 134.90423791 17.31005403 157 38 C157.81855469 38.73863281 158.63710937 39.47726563 159.48046875 40.23828125 C177.59437183 57.29216247 189.39130583 83.78308767 190.21875 108.51953125 C190.44065355 119.28485223 190.05139283 129.44110926 187.65625 139.953125 C186.85962928 143.13226337 186.85962928 143.13226337 187 147 C188.62339805 148.70884005 190.29319053 150.37446717 192 152 C193.3125 154.3125 193.3125 154.3125 194 156 C195.04343325 151.65236144 195.44037658 149.74864019 193.125 145.8125 C192.42375 144.884375 191.7225 143.95625 191 143 C189.94174207 139.8909565 189.89451079 137.01717997 189.9375 133.75 C189.94652344 132.85796875 189.95554687 131.9659375 189.96484375 131.046875 C189.98224609 130.03367188 189.98224609 130.03367188 190 129 C192.1875 129.0625 192.1875 129.0625 195 130 C196.93157957 132.1717219 198.48201687 134.52601047 200 137 C201.1344095 134.39865016 201.1344095 134.39865016 201 131 C199.42485799 128.84360841 197.63944656 127.00959191 195.79296875 125.08203125 C192.48985049 121.24638411 191.12905986 117.06495768 190.8125 112 C190.874375 111.34 190.93625 110.68 191 110 C196.35048061 110.37328935 198.50912907 111.9957657 202 116 C202.33 114.02 202.66 112.04 203 110 C202.40832031 109.67128906 201.81664062 109.34257812 201.20703125 109.00390625 C195.2000473 105.3879567 191.4193309 101.68659294 189 95 C189 93.68 189 92.36 189 91 C197.57142857 91.71428571 197.57142857 91.71428571 201 95 C201 93.35 201 91.7 201 90 C200.34773438 89.72027344 199.69546875 89.44054687 199.0234375 89.15234375 C191.6127629 85.75305201 186.70673435 82.26683587 183.625 74.5625 C183.41875 73.716875 183.2125 72.87125 183 72 C193.55808656 72.59453303 193.55808656 72.59453303 198 76 C197.26935245 73.02030024 197.26935245 73.02030024 195 70 C192.34064726 68.82830498 189.6411386 68.00833796 186.87109375 67.1328125 C182.4561515 65.3908625 179.09815431 62.5703329 176 59 C175.67 58.01 175.34 57.02 175 56 C176 55 176 55 178.1796875 54.8671875 C179.06914062 54.86976562 179.95859375 54.87234375 180.875 54.875 C181.75929688 54.87242188 182.64359375 54.86984375 183.5546875 54.8671875 C186 55 186 55 189 56 C188.01 53.03 188.01 53.03 187 50 C186.09121094 50.10441406 186.09121094 50.10441406 185.1640625 50.2109375 C177.72176152 50.69182464 172.80559548 48.64447638 167 44 C165.21484375 41.796875 165.21484375 41.796875 164 40 C169.19548425 37.79191919 172.58264203 38.06597276 178 39 C176.81768639 36.25933726 176.81768639 36.25933726 174 34 C171.01158212 33.78176978 168.11367991 33.94601738 165.12109375 34.07421875 C160.58399621 33.96632782 156.68343578 32.67585918 153 30 C151.7578125 27.859375 151.7578125 27.859375 151 26 C155.33420699 23.96834048 159.28596212 23.47939368 164 23 C162.02 21.02 162.02 21.02 160 19 C158.989375 19.33 157.97875 19.66 156.9375 20 C149.36402106 22.10542715 143.24852791 20.45020662 136 18 C136 17.01 136 16.02 136 15 C140.23778489 11.20060665 144.1587185 10.72976248 149.63671875 10.765625 C153.2035866 11.11936396 155.82209025 12.37723757 159 14 C159.33 9.71 159.66 5.42 160 1 C165.77987232 3.31194893 166.8921822 4.90113 169.85546875 10.0625 C171.49111837 14.26048129 171.27633933 17.90429217 170.8203125 22.3359375 C170.74690852 25.17295005 170.74690852 25.17295005 172.9921875 27.3515625 C173.65476563 27.89554688 174.31734375 28.43953125 175 29 C175.12117187 28.14535156 175.24234375 27.29070312 175.3671875 26.41015625 C175.61855469 24.75306641 175.61855469 24.75306641 175.875 23.0625 C176.11863281 21.40927734 176.11863281 21.40927734 176.3671875 19.72265625 C176.57601562 18.82417969 176.78484375 17.92570312 177 17 C177.99 16.505 177.99 16.505 179 16 C183.47154516 19.85478031 185.7555115 23.91769859 186.21875 29.7578125 C186.29542404 36.94600328 186.29542404 36.94600328 185.39453125 40.16015625 C184.74628166 42.22774835 184.74628166 42.22774835 186.4375 44.75 C186.953125 45.4925 187.46875 46.235 188 47 C188.10957031 46.39671875 188.21914063 45.7934375 188.33203125 45.171875 C189.97286532 36.90100407 189.97286532 36.90100407 193 34 C193.66 34 194.32 34 195 34 C198.04822674 39.96392188 200.49065846 47.36638696 198.3515625 54.015625 C198.07054687 54.58796875 197.78953125 55.1603125 197.5 55.75 C195.69268217 59.6658553 196.07069744 61.86037952 197 66 C197.66 66 198.32 66 199 66 C199.103125 65.113125 199.20625 64.22625 199.3125 63.3125 C200.01190702 59.9426298 201.08742511 57.82728462 203 55 C204.32 55.33 205.64 55.66 207 56 C209.04291372 63.66092646 208.85280872 70.25535535 204.890625 77.10546875 C203.45878835 80.15126162 203.7240434 82.68852082 204 86 C204.38671875 85.43410156 204.7734375 84.86820312 205.171875 84.28515625 C205.69265625 83.55167969 206.2134375 82.81820312 206.75 82.0625 C207.26046875 81.33160156 207.7709375 80.60070312 208.296875 79.84765625 C210.19177915 77.79194601 211.27425729 77.37330824 214 77 C216.28237602 81.56475204 215.20707468 86.97588612 213.8125 91.6875 C212.64931028 94.9589711 211.89594073 96.10163929 209.3125 98.625 C206.6003697 100.90615489 206.6003697 100.90615489 206.6875 104.8125 C206.790625 105.864375 206.89375 106.91625 207 108 C207.37511719 107.50628906 207.75023437 107.01257813 208.13671875 106.50390625 C212.36878216 101.2058319 212.36878216 101.2058319 215.875 100.0625 C216.57625 100.041875 217.2775 100.02125 218 100 C218.31313952 105.84527102 218.14682653 110.90562611 215 116 C212.97109664 117.89284278 210.84679314 119.59772849 208.67578125 121.32421875 C206.64747782 123.0185041 206.64747782 123.0185041 206.5 126.4375 C206.665 127.283125 206.83 128.12875 207 129 C207.886875 128.195625 208.77375 127.39125 209.6875 126.5625 C212.38287032 124.2960841 214.42063478 123.31582634 218 123 C217.47340845 130.50392958 215.74519979 135.79886145 210 140.875 C207.470305 142.66686729 206.01996118 143.65154294 203 144 C202.67 145.98 202.34 147.96 202 150 C202.51949219 149.71125 203.03898437 149.4225 203.57421875 149.125 C204.27160156 148.75375 204.96898437 148.3825 205.6875 148 C206.37199219 147.62875 207.05648438 147.2575 207.76171875 146.875 C210.31531704 145.8767347 212.28179271 145.84766614 215 146 C212.71623904 153.46729735 209.83130713 158.86826322 203 163 C200.50852085 163.77888049 198.63907328 163.94501931 196 164 C195.67 165.98 195.34 167.96 195 170 C195.680625 169.67 196.36125 169.34 197.0625 169 C200.50840238 167.82692685 203.38397422 167.85819507 207 168 C205.33215824 173.97643298 202.94861527 177.95057656 197.6875 181.3125 C194.10615714 183.24270427 191.06025264 183.3314492 187 183 C187 183.66 187 184.32 187 185 C187.99 184.67 188.98 184.34 190 184 C191.72795352 183.93197033 193.45835365 183.91504355 195.1875 183.9375 C196.08855469 183.94652344 196.98960937 183.95554688 197.91796875 183.96484375 C198.94857422 183.98224609 198.94857422 183.98224609 200 184 C197.19223513 193.84165006 189.49758573 201.53894679 183 209.25 C182.53867676 209.80365234 182.07735352 210.35730469 181.60205078 210.92773438 C160.56602156 235.47097868 127.82987009 250.6356537 96 254 C90.57944951 254.28579835 85.17696446 254.34078804 79.75 254.3125 C79.02288818 254.31067719 78.29577637 254.30885437 77.54663086 254.30697632 C66.74118542 254.26138435 56.50075608 253.75575398 46 251 C45.31663574 250.83371094 44.63327148 250.66742188 43.92919922 250.49609375 C23.34559657 245.45177996 5.05071113 234.70831879 -11 221 C-11.80824219 220.32582031 -12.61648437 219.65164063 -13.44921875 218.95703125 C-24.25996976 209.63975918 -33.3261224 198.64020943 -40 186 C-40 185.34 -40 184.68 -40 184 C-37.36 183.67 -34.72 183.34 -32 183 C-33.7634375 182.2575 -33.7634375 182.2575 -35.5625 181.5 C-40.44612749 179.07124408 -44.00875785 175.55229665 -47 171 C-47 170.01 -47 169.02 -47 168 C-42.45194365 167.82164485 -39.1205746 168.00214565 -35 170 C-35.34939366 167.56469493 -35.34939366 167.56469493 -37 165 C-38.92799061 164.00092609 -38.92799061 164.00092609 -41.1875 163.1875 C-46.57323129 161.03320748 -49.84256157 157.83482759 -53 153 C-54.00645639 150.61415917 -54.51945594 148.56290166 -55 146 C-46.42857143 146.85714286 -46.42857143 146.85714286 -43 149 C-43.63454489 146.22386611 -44.30241521 144.45303821 -46.73828125 142.87109375 C-47.42277344 142.50113281 -48.10726562 142.13117188 -48.8125 141.75 C-53.69745482 138.92046333 -56.08844067 135.26800623 -58 130 C-58.35307106 127.49181986 -58.27035559 125.54134256 -58 123 C-53.48521602 123.53115106 -50.65333143 125.36620292 -47 128 C-47.10792821 125.0957107 -47.10792821 125.0957107 -48 122 C-48.7425 121.5875 -49.485 121.175 -50.25 120.75 C-54.63730441 117.95807901 -56.36839794 113.8472178 -58 109 C-58.36769213 105.61263627 -58.32440246 102.38820345 -58 99 C-53.56541027 100.3937282 -51.12621626 102.60582235 -48 106 C-47.04979584 103.760165 -47.04979584 103.760165 -47 101 C-48.6436814 99.31066078 -50.3142876 97.64740076 -52 96 C-55.25042447 90.35918556 -55.61714876 84.38511598 -55 78 C-54.505 77.01 -54.505 77.01 -54 76 C-50.18622154 77.49827011 -48.42634455 79.76487393 -46 83 C-45.34 83.66 -44.68 84.32 -44 85 C-43.13149826 82.75124253 -43.13149826 82.75124253 -43 80 C-44.82522428 77.34346271 -44.82522428 77.34346271 -47 75 C-48.1053873 71.6838381 -48.16753642 69.11463365 -48.1875 65.625 C-48.20167969 64.50351563 -48.21585938 63.38203125 -48.23046875 62.2265625 C-48.00365368 59.05115158 -47.35390668 56.85765282 -46 54 C-43 55 -43 55 -41.8671875 56.7421875 C-41.53976563 57.44601563 -41.21234375 58.14984375 -40.875 58.875 C-40.54242188 59.57367188 -40.20984375 60.27234375 -39.8671875 60.9921875 C-39 63 -39 63 -38 66 C-36.69243933 62.803469 -36.69243933 62.803469 -36 59 C-36.9479589 56.97481509 -37.95191959 54.97522846 -39 53 C-39.83720114 45.9435904 -37.67120926 40.48722249 -35 34 C-33.109375 34.6796875 -33.109375 34.6796875 -31 36 C-29.953125 38.3828125 -29.953125 38.3828125 -29.25 41.125 C-29.00765625 42.03507812 -28.7653125 42.94515625 -28.515625 43.8828125 C-28.34546875 44.58148438 -28.1753125 45.28015625 -28 46 C-25.53416398 42.30124597 -26.02123464 41.23037404 -26.625 36.9375 C-27.35625585 29.31883443 -25.61256068 24.09441633 -21.546875 17.72265625 C-21.03640625 17.15417969 -20.5259375 16.58570312 -20 16 C-19.01 16 -18.02 16 -17 16 C-16.34 20.29 -15.68 24.58 -15 29 C-14.34 28.01 -13.68 27.02 -13 26 C-12.34 26 -11.68 26 -11 26 C-11.10441406 24.64068359 -11.10441406 24.64068359 -11.2109375 23.25390625 C-11.54426993 15.75392663 -11.29577328 10.83507431 -6.703125 4.76953125 C-2.11258278 0 -2.11258278 0 0 0 Z M-0.66796875 48.26953125 C-18.86969595 68.14629593 -27.12108776 95.34613848 -26 122 C-25.1144401 131.16755759 -23.22431914 140.07306585 -21 149 C-22.32 149.33 -23.64 149.66 -25 150 C-25.13277344 151.00160156 -25.26554687 152.00320312 -25.40234375 153.03515625 C-25.58071127 154.37760654 -25.7590977 155.72005433 -25.9375 157.0625 C-26.02451172 157.71927734 -26.11152344 158.37605469 -26.20117188 159.05273438 C-26.33168945 160.0340332 -26.33168945 160.0340332 -26.46484375 161.03515625 C-26.54871338 161.69523682 -26.63258301 162.35531738 -26.71899414 163.03540039 C-26.99009708 164.9307656 -27.36439866 166.81048597 -27.7421875 168.6875 C-28.04366044 172.56097044 -27.44451273 173.8453397 -25.1875 176.9375 C-24.64480469 177.70964844 -24.10210937 178.48179687 -23.54296875 179.27734375 C-22.77919922 180.13005859 -22.77919922 180.13005859 -22 181 C-21.34 181 -20.68 181 -20 181 C-18.35 177.7 -16.7 174.4 -15 171 C-12.35519028 174.24090469 -9.92409277 177.5496551 -7.5625 181 C8.11114135 202.47548649 32.65533472 218.95850412 59.11181641 223.35058594 C89.80138541 227.89968853 120.12970183 221.27643375 145.57421875 203.16796875 C156.01004334 195.1240286 164.55544512 185.83323198 172 175 C172.99 173.68 173.98 172.36 175 171 C177.475 175.95 177.475 175.95 180 181 C184.22482468 179.59172511 185.02861742 177.16887204 187.0546875 173.359375 C188.3141815 170.21584452 188.08455993 168.17621121 187 165 C186.67 164.34 186.34 163.68 186 163 C185.76970044 160.62876754 185.58880058 158.25258057 185.4375 155.875 C185.35371094 154.59367188 185.26992188 153.31234375 185.18359375 151.9921875 C185.12300781 151.00476563 185.06242188 150.01734375 185 149 C182.81509993 151.67642489 182.81509993 151.67642489 183 154 C181.68 154 180.36 154 179 154 C179.33773437 152.83726562 179.67546875 151.67453125 180.0234375 150.4765625 C188.26953521 121.2518749 187.79883603 93.21309581 172.97998047 66.13623047 C167.77776039 57.049945 161.37849233 49.389018 154 42 C153.20980469 41.19820312 152.41960937 40.39640625 151.60546875 39.5703125 C130.3443681 19.19068369 102.13375885 12.49825469 73.54296875 12.7890625 C44.67964196 13.45732875 18.97311373 27.67701548 -0.66796875 48.26953125 Z M-30 129 C-30.09796875 129.85722656 -30.1959375 130.71445313 -30.296875 131.59765625 C-31.18392323 138.38051642 -32.1748035 143.32390197 -36 149 C-37.2077558 152.62326739 -36.54311128 153.64146369 -35 157 C-34.5875 156.443125 -34.175 155.88625 -33.75 155.3125 C-28.34782609 148.17391304 -28.34782609 148.17391304 -26 147 C-26.13277344 146.20335937 -26.26554687 145.40671875 -26.40234375 144.5859375 C-27.26822917 139.390625 -28.13411458 134.1953125 -29 129 C-29.33 129 -29.66 129 -30 129 Z M-6 191 C-6.99 192.485 -6.99 192.485 -8 194 C-7.01 194.33 -6.02 194.66 -5 195 C-4.67 193.68 -4.34 192.36 -4 191 C-4.66 191 -5.32 191 -6 191 Z M164 192 C164 195 164 195 164 195 Z M-2 196 C-2.66 196.66 -3.32 197.32 -4 198 C-3.34 198.66 -2.68 199.32 -2 200 C-1.34 198.68 -0.68 197.36 0 196 C-0.66 196 -1.32 196 -2 196 Z M-13 197 C-13.33 197.66 -13.66 198.32 -14 199 C-13.01 198.67 -12.02 198.34 -11 198 C-11.66 197.67 -12.32 197.34 -13 197 Z M170 198 C170.33 198.66 170.66 199.32 171 200 C171.66 199.67 172.32 199.34 173 199 C172.01 198.67 171.02 198.34 170 198 Z M-10 199 C-10 199.99 -10 200.98 -10 202 C-9.34 201.34 -8.68 200.68 -8 200 C-8.66 199.67 -9.32 199.34 -10 199 Z M150 206 C151 208 151 208 151 208 Z M7.48046875 209.390625 C7.05378906 210.00421875 6.62710938 210.6178125 6.1875 211.25 C5.74792969 211.85328125 5.30835938 212.4565625 4.85546875 213.078125 C3.79138934 215.46865957 4.12928981 216.58551531 5 219 C8.42106076 218.74658809 9.30782184 217.69217816 11.8125 215.1875 C14.27538578 212.31493551 14.27538578 212.31493551 13.8125 209.625 C13.544375 209.08875 13.27625 208.5525 13 208 C9.14850179 207.54991782 9.14850179 207.54991782 7.48046875 209.390625 Z M151 208 C152 210 152 210 152 210 Z M153 211 C153.66 211.66 154.32 212.32 155 213 C155 212.34 155 211.68 155 211 C154.34 211 153.68 211 153 211 Z M135 217 C136 219 136 219 136 219 Z M26 218 C26.33 218.66 26.66 219.32 27 220 C27.33 219.34 27.66 218.68 28 218 C27.34 218 26.68 218 26 218 Z M136 219 C137 221 137 221 137 221 Z M29 220 C30 224 30 224 30 224 Z M24 222 C23.67 222.99 23.34 223.98 23 225 C24.98 225 26.96 225 29 225 C28.360625 224.87625 27.72125 224.7525 27.0625 224.625 C26.381875 224.41875 25.70125 224.2125 25 224 C24.67 223.34 24.34 222.68 24 222 Z M138 222 C139 224 139 224 139 224 Z M139 224 C140 226 140 226 140 226 Z M119 225 C119.33 226.32 119.66 227.64 120 229 C120.33 227.68 120.66 226.36 121 225 C120.34 225 119.68 225 119 225 Z M27 226 C28 228 28 228 28 228 Z M44 226 C45 229 45 229 45 229 Z M21 227 C22 230 22 230 22 230 Z M26 228 C27 230 27 230 27 230 Z M122 228 C123 230 123 230 123 230 Z M43 229 C44 232 44 232 44 232 Z M59 230 C60 234 60 234 60 234 Z M99 230 C100 232 100 232 100 232 Z M104 230 C103.67 234.29 103.34 238.58 103 243 C103.66 243 104.32 243 105 243 C105 238.71 105 234.42 105 230 C104.67 230 104.34 230 104 230 Z M120 231 C120.33 233.31 120.66 235.62 121 238 C121.33 236.68 121.66 235.36 122 234 C123.32 234.33 124.64 234.66 126 235 C125.67 234.01 125.34 233.02 125 232 C123.68 232.33 122.36 232.66 121 233 C120.67 232.34 120.34 231.68 120 231 Z M42 232 C43 234 43 234 43 234 Z M77 232 C77 236.29 77 240.58 77 245 C78.65 245 80.3 245 82 245 C80.68 244.67 79.36 244.34 78 244 C78 242.35 78 240.7 78 239 C79.32 238.67 80.64 238.34 82 238 C80.68 238 79.36 238 78 238 C78 236.35 78 234.7 78 233 C79.32 232.67 80.64 232.34 82 232 C80.35 232 78.7 232 77 232 Z M100 232 C101 235 101 235 101 235 Z M58 234 C57.67 236.97 57.34 239.94 57 243 C57.99 242.67 58.98 242.34 60 242 C59.34 242 58.68 242 58 242 C58.33 241.34 58.66 240.68 59 240 C59.039992 238.00039988 59.04346799 235.99952758 59 234 C58.67 234 58.34 234 58 234 Z M41 235 C42 237 42 237 42 237 Z M101 235 C102 238 102 238 102 238 Z M102 238 C103 241 103 241 103 241 Z " fill="#000000" transform="translate(75,51)"/>
<path d="M0 0 C0.804375 0.185625 1.60875 0.37125 2.4375 0.5625 C3.283125 0.706875 4.12875 0.85125 5 1 C5.33 0.67 5.66 0.34 6 0 C8.65495418 -0.07350371 11.2834719 -0.09232054 13.9375 -0.0625 C14.67935547 -0.05798828 15.42121094 -0.05347656 16.18554688 -0.04882812 C18.12372723 -0.0365278 20.06187002 -0.01861598 22 0 C22.66 0 23.32 0 24 0 C25.66965451 0.31802943 27.33678518 0.64984951 29 1 C28.5020163 4.73487777 28.12508244 6.81237635 26 10 C25.34 10 24.68 10 24 10 C24.99 13.96 24.99 13.96 26 18 C29.63 18.33 33.26 18.66 37 19 C37 17.35 37 15.7 37 14 C37.66 13.67 38.32 13.34 39 13 C38.01 12.01 38.01 12.01 37 11 C36.5859375 8.6171875 36.5859375 8.6171875 36.375 5.875 C36.26285156 4.50988281 36.26285156 4.50988281 36.1484375 3.1171875 C36.09945312 2.41851562 36.05046875 1.71984375 36 1 C43.05909078 2.12276571 50.03843148 3.37563401 57 5 C57 5.66 57 6.32 57 7 C58.98 7 60.96 7 63 7 C63.33 7.66 63.66 8.32 64 9 C60.55384615 14.78461538 60.55384615 14.78461538 57.75 15.875 C57.1725 15.91625 56.595 15.9575 56 16 C56.165 16.9075 56.33 17.815 56.5 18.75 C57 22 57 22 57 26 C58.98 25.67 60.96 25.34 63 25 C63.33 25.99 63.66 26.98 64 28 C65.94999129 27.80528889 65.94999129 27.80528889 68 27 C69.1500831 25.03327085 69.1500831 25.03327085 70 23 C70.99 22.505 70.99 22.505 72 22 C72.4683265 19.41394668 72.4683265 19.41394668 72.625 16.4375 C72.69976562 15.42558594 72.77453125 14.41367187 72.8515625 13.37109375 C72.92503906 12.19740234 72.92503906 12.19740234 73 11 C76.55079859 11.66241789 79.67457466 12.57481771 83 14 C83 14.66 83 15.32 83 16 C83.70125 15.938125 84.4025 15.87625 85.125 15.8125 C88.71773219 16.04680862 90.94677571 17.12643055 94 19 C94.33 19.99 94.66 20.98 95 22 C90.95901479 25.15592793 88.06449101 26.9871018 83 28 C82.30062468 29.31647119 81.63270867 30.65022151 81 32 C80.34 32.144375 79.68 32.28875 79 32.4375 C78.34 32.623125 77.68 32.80875 77 33 C76.31041727 34.65731647 75.64787158 36.32593768 75 38 C73.99958424 39.63021117 72.95760047 41.23566888 71.875 42.8125 C71.33617187 43.60269531 70.79734375 44.39289062 70.2421875 45.20703125 C69.83226562 45.79871094 69.42234375 46.39039063 69 47 C69.99 47.33 70.98 47.66 72 48 C71.67 49.65 71.34 51.3 71 53 C70.01 53.33 69.02 53.66 68 54 C68 55.98 68 57.96 68 60 C63.32950439 60.25792289 60.16340196 59.50926474 55.875 57.6875 C28.87360807 46.9234316 -2.33749028 47.5549014 -29.33081055 58.01831055 C-33.02166482 59.4304751 -36.03278424 60.34664992 -40 60 C-41 57 -41 57 -41 54 C-41.99 53.34 -42.98 52.68 -44 52 C-43.42415568 49.61435923 -42.77772405 47.33317216 -42 45 C-43.51390847 42.02589294 -43.51390847 42.02589294 -45.6875 38.9375 C-46.39261719 37.87402344 -47.09773438 36.81054688 -47.82421875 35.71484375 C-49.91573509 33.10514204 -51.07032973 32.3339893 -54 31 C-54.33 30.01 -54.66 29.02 -55 28 C-56.73355361 27.08781816 -56.73355361 27.08781816 -58.8125 26.5 C-62.0129906 25.41401665 -64.42352769 24.25441327 -67 22 C-65.9802352 19.21882328 -65.33608762 18.18166898 -62.6875 16.75 C-59.98166314 15.99488274 -57.79292118 15.8404045 -55 16 C-54.67 15.01 -54.34 14.02 -54 13 C-52.25 12.375 -52.25 12.375 -50 12 C-49.0925 11.814375 -48.185 11.62875 -47.25 11.4375 C-46.5075 11.293125 -45.765 11.14875 -45 11 C-44.96261719 11.68707031 -44.92523438 12.37414063 -44.88671875 13.08203125 C-44.78810547 14.43361328 -44.78810547 14.43361328 -44.6875 15.8125 C-44.62949219 16.70582031 -44.57148437 17.59914063 -44.51171875 18.51953125 C-43.92397875 21.36849996 -43.11363072 22.1037092 -41 24 C-40.67 24.99 -40.34 25.98 -40 27 C-37.98491642 27.73323796 -37.98491642 27.73323796 -36 28 C-36 27.34 -36 26.68 -36 26 C-33.69 25.34 -31.38 24.68 -29 24 C-29.020625 23.05125 -29.04125 22.1025 -29.0625 21.125 C-29 18 -29 18 -28 16 C-28.5775 15.979375 -29.155 15.95875 -29.75 15.9375 C-33.38390121 14.4233745 -34.24850416 11.44043825 -36 8 C-35 7 -35 7 -31.9375 6.9375 C-30.4834375 6.9684375 -30.4834375 6.9684375 -29 7 C-29 6.34 -29 5.68 -29 5 C-22.36181939 3.47648314 -15.70774643 2.17855732 -9 1 C-7.69325502 5.16870054 -8.6023237 7.88461978 -10 12 C-10.33 12.33 -10.66 12.66 -11 13 C-10.34 13.33 -9.68 13.66 -9 14 C-9 15.65 -9 17.3 -9 19 C-5.37 18.67 -1.74 18.34 2 18 C2.66 15.36 3.32 12.72 4 10 C3.01 9.67 2.02 9.34 1 9 C-0.45007937 6.31735316 -1.11784055 4.72668339 -0.625 1.6875 C-0.41875 1.130625 -0.2125 0.57375 0 0 Z M27 29 C28 31 28 31 28 31 Z M-2 31 C-1 33 -1 33 -1 33 Z M28 31 C28.33 31.66 28.66 32.32 29 33 C29.33 32.34 29.66 31.68 30 31 C29.34 31 28.68 31 28 31 Z M-30 34 C-29 36 -29 36 -29 36 Z M26 34 C27 36 27 36 27 36 Z M57 34 C58 38 58 38 58 38 Z M-31 37 C-31.33 38.32 -31.66 39.64 -32 41 C-31.01 40.34 -30.02 39.68 -29 39 C-29.66 38.34 -30.32 37.68 -31 37 Z M58 38 C57.67 38.66 57.34 39.32 57 40 C57.33 40.99 57.66 41.98 58 43 C58.66 42.67 59.32 42.34 60 42 C59.34 40.68 58.68 39.36 58 38 Z M-25 47 C-21.31137864 48.14448111 -18.79948713 47.60158734 -15.0625 46.6640625 C5.24063487 41.65335293 26.8422569 42.43115995 47.03076172 47.54248047 C50.00055247 48.23246161 52.97601724 48.62150413 56 49 C51.89320984 46.26213989 47.70557466 45.5495008 42.9375 44.4375 C42.03322266 44.21642578 41.12894531 43.99535156 40.19726562 43.76757812 C18.98387249 38.74854086 -4.38076375 39.78326731 -25 47 Z M-36 51 C-32.37673261 52.2077558 -31.35853631 51.54311128 -28 50 C-31.62326739 48.7922442 -32.64146369 49.45688872 -36 51 Z M56 49 C56.66 49.66 57.32 50.32 58 51 C58.99 50.67 59.98 50.34 61 50 C59.35 49.67 57.7 49.34 56 49 Z " fill="#FAD038" transform="translate(141,5)"/>
<path d="M0 0 C0.70697021 -0.03891357 1.41394043 -0.07782715 2.14233398 -0.11791992 C4.1484375 -0.12890625 4.1484375 -0.12890625 7.625 0.5625 C12.11995979 5.179357 13.0314871 11.10279475 14.375 17.25 C14.59542969 18.19939453 14.81585938 19.14878906 15.04296875 20.12695312 C16.625 27.06922069 16.625 27.06922069 16.625 30.5625 C17.89730469 30.54509766 17.89730469 30.54509766 19.1953125 30.52734375 C26.63460213 30.47011845 33.91829721 30.74542788 41.3359375 31.33984375 C45.77898959 31.64062044 50.17351933 31.62994668 54.625 31.5625 C54.295 25.9525 53.965 20.3425 53.625 14.5625 C55.605 14.5625 57.585 14.5625 59.625 14.5625 C60.12 19.5125 60.12 19.5125 60.625 24.5625 C60.955 21.2625 61.285 17.9625 61.625 14.5625 C63.605 14.5625 65.585 14.5625 67.625 14.5625 C67.48446128 17.18788284 67.33781053 19.81267427 67.1875 22.4375 C67.14818359 23.18386719 67.10886719 23.93023437 67.06835938 24.69921875 C66.73828125 30.3359375 66.73828125 30.3359375 65.625 32.5625 C66.34453857 32.50191406 67.06407715 32.44132812 67.80541992 32.37890625 C71.14067993 32.10125713 74.47655993 31.83185032 77.8125 31.5625 C78.94365234 31.46710938 80.07480469 31.37171875 81.24023438 31.2734375 C89.05277303 30.65021504 96.7889161 30.44567672 104.625 30.5625 C104.73046143 29.92747559 104.83592285 29.29245117 104.94458008 28.63818359 C105.4323036 25.73618896 105.93476158 22.83692957 106.4375 19.9375 C106.60314453 18.93847656 106.76878906 17.93945312 106.93945312 16.91015625 C108.02606439 10.71852226 109.01974036 5.16775964 113.625 0.5625 C122.32232488 -0.30162131 131.02105455 0.54811626 139.625 1.875 C140.40093506 1.99254639 141.17687012 2.11009277 141.97631836 2.23120117 C147.15706253 3.10179761 151.75683 4.58757194 156.625 6.5625 C156.05905068 14.0534681 154.2975717 20.82353325 152.125 28 C151.80402344 29.08732422 151.48304688 30.17464844 151.15234375 31.29492188 C148.79326277 39.22597446 148.79326277 39.22597446 147.625 41.5625 C138.81478142 41.19076082 130.34749086 39.68942463 121.72021484 37.93457031 C110.99566561 35.84225625 101.00356337 36.7293426 90.1986084 37.84588623 C68.71560035 40.02438773 48.03596325 40.17820988 26.54199219 37.63037109 C14.43244333 36.19621126 4.31021083 36.73467986 -7.6875 39.0625 C-10.16201403 39.53517434 -12.63725175 40.00407958 -15.11328125 40.46875 C-16.19649658 40.67822266 -17.27971191 40.88769531 -18.39575195 41.10351562 C-21.11730059 41.52279871 -23.62823089 41.65154658 -26.375 41.5625 C-27.7011555 37.42091142 -29.00840496 33.27358268 -30.3125 29.125 C-30.68568359 27.96033203 -31.05886719 26.79566406 -31.44335938 25.59570312 C-33.44384495 19.19775375 -34.9239655 13.25642473 -35.375 6.5625 C-24.06827772 2.02200522 -12.15241139 0.35333702 0 0 Z M-27.375 10.5625 C-27.705 11.8825 -28.035 13.2025 -28.375 14.5625 C-28.045 13.9025 -27.715 13.2425 -27.375 12.5625 C-24.83475996 12.08675562 -22.37448536 11.72242453 -19.8125 11.4375 C-19.10158203 11.35113281 -18.39066406 11.26476562 -17.65820312 11.17578125 C-15.89810688 10.96315217 -14.13665836 10.76177303 -12.375 10.5625 C-12.375 12.5425 -12.375 14.5225 -12.375 16.5625 C-12.045 16.5625 -11.715 16.5625 -11.375 16.5625 C-11.375 14.2525 -11.375 11.9425 -11.375 9.5625 C-7.085 9.5625 -2.795 9.5625 1.625 9.5625 C1.955 10.2225 2.285 10.8825 2.625 11.5625 C2.625 10.2425 2.625 8.9225 2.625 7.5625 C-7.66070815 7.01796251 -17.31424548 8.68449249 -27.375 10.5625 Z M118.625 7.5625 C118.955 8.5525 119.285 9.5425 119.625 10.5625 C126.06 10.0675 126.06 10.0675 132.625 9.5625 C132.955 10.8825 133.285 12.2025 133.625 13.5625 C133.625 12.5725 133.625 11.5825 133.625 10.5625 C137.915 11.2225 142.205 11.8825 146.625 12.5625 C146.955 14.5425 147.285 16.5225 147.625 18.5625 C149.38929535 15.69093308 149.38929535 15.69093308 149.18359375 12.421875 C148.99925781 11.80828125 148.81492188 11.1946875 148.625 10.5625 C138.56424548 8.68449249 128.91070815 7.01796251 118.625 7.5625 Z M117.625 10.5625 C118.625 13.5625 118.625 13.5625 118.625 13.5625 Z M2.625 11.5625 C2.955 15.1925 3.285 18.8225 3.625 22.5625 C3.955 22.5625 4.285 22.5625 4.625 22.5625 C4.80200355 17.96040775 4.73314567 15.77879134 2.625 11.5625 Z M131.625 14.5625 C130.67238513 19.32557437 130.54166643 23.7291528 130.625 28.5625 C130.955 28.5625 131.285 28.5625 131.625 28.5625 C131.955 23.9425 132.285 19.3225 132.625 14.5625 C132.295 14.5625 131.965 14.5625 131.625 14.5625 Z M-27.375 15.5625 C-26.375 18.5625 -26.375 18.5625 -26.375 18.5625 Z M116.625 15.5625 C117.625 19.5625 117.625 19.5625 117.625 19.5625 Z M-11.375 17.5625 C-11.375 19.8725 -11.375 22.1825 -11.375 24.5625 C-11.045 24.5625 -10.715 24.5625 -10.375 24.5625 C-10.375 22.2525 -10.375 19.9425 -10.375 17.5625 C-10.705 17.5625 -11.035 17.5625 -11.375 17.5625 Z M-6.375 17.5625 C-6.705 17.8925 -7.035 18.2225 -7.375 18.5625 C-7.08769945 20.90194736 -6.75563221 23.2364143 -6.375 25.5625 C-4.48320797 26.2439823 -4.48320797 26.2439823 -2.375 26.5625 C-1.715 25.9025 -1.055 25.2425 -0.375 24.5625 C-0.69698966 21.46323181 -0.69698966 21.46323181 -1.375 18.5625 C-3.03114657 18.18031233 -4.69957024 17.84854898 -6.375 17.5625 Z M125.625 16.5625 C123.50577873 17.64993288 123.50577873 17.64993288 121.625 19.5625 C121.29102213 22.68836875 121.29102213 22.68836875 121.625 25.5625 C124.1 26.0575 124.1 26.0575 126.625 26.5625 C128.19535335 24.06840939 128.6524945 22.85806584 128.375 19.875 C128.1275 19.111875 127.88 18.34875 127.625 17.5625 C126.965 17.2325 126.305 16.9025 125.625 16.5625 Z M-18.375 18.5625 C-19.035 19.2225 -19.695 19.8825 -20.375 20.5625 C-20.05173447 24.15929066 -20.05173447 24.15929066 -19.375 27.5625 C-17.48320797 28.2439823 -17.48320797 28.2439823 -15.375 28.5625 C-14.715 27.9025 -14.055 27.2425 -13.375 26.5625 C-13.3815611 23.52253468 -13.3815611 23.52253468 -14.375 20.5625 C-16.32663118 19.12612302 -16.32663118 19.12612302 -18.375 18.5625 Z M135.9375 19.625 C134.24614085 21.68450772 134.24614085 21.68450772 134.9375 25.25 C135.164375 26.343125 135.39125 27.43625 135.625 28.5625 C137.275 28.2325 138.925 27.9025 140.625 27.5625 C141.30993373 24.70471967 141.30993373 24.70471967 141.625 21.5625 C140.965 20.5725 140.305 19.5825 139.625 18.5625 C137.57472228 18.38489558 137.57472228 18.38489558 135.9375 19.625 Z M146.625 18.5625 C147.625 22.5625 147.625 22.5625 147.625 22.5625 Z M-26.375 20.5625 C-25.375 22.5625 -25.375 22.5625 -25.375 22.5625 Z M4.625 22.5625 C4.625 25.8625 4.625 29.1625 4.625 32.5625 C4.955 32.5625 5.285 32.5625 5.625 32.5625 C5.625 29.2625 5.625 25.9625 5.625 22.5625 C5.295 22.5625 4.965 22.5625 4.625 22.5625 Z M115.625 22.5625 C115.625 24.8725 115.625 27.1825 115.625 29.5625 C115.955 29.5625 116.285 29.5625 116.625 29.5625 C116.625 27.2525 116.625 24.9425 116.625 22.5625 C116.295 22.5625 115.965 22.5625 115.625 22.5625 Z M145.625 22.5625 C146.625 25.5625 146.625 25.5625 146.625 25.5625 Z M-10.375 24.5625 C-10.41625 25.820625 -10.4575 27.07875 -10.5 28.375 C-10.52320312 29.08269531 -10.54640625 29.79039062 -10.5703125 30.51953125 C-10.50754462 32.87609719 -10.50754462 32.87609719 -8.375 35.5625 C-8.705 31.9325 -9.035 28.3025 -9.375 24.5625 C-9.705 24.5625 -10.035 24.5625 -10.375 24.5625 Z M144.625 25.5625 C145.625 28.5625 145.625 28.5625 145.625 28.5625 Z M143.625 28.5625 C144.625 31.5625 144.625 31.5625 144.625 31.5625 Z M129.625 29.5625 C129.625 31.2125 129.625 32.8625 129.625 34.5625 C128.635 34.8925 127.645 35.2225 126.625 35.5625 C127.945 35.5625 129.265 35.5625 130.625 35.5625 C130.625 33.5825 130.625 31.6025 130.625 29.5625 C130.295 29.5625 129.965 29.5625 129.625 29.5625 Z M142.625 31.5625 C143.625 33.5625 143.625 33.5625 143.625 33.5625 Z " fill="#000000" transform="translate(94.375,158.4375)"/>
<path d="M0 0 C18.58372415 2.84632139 37.37229034 3.24250566 56 0.5 C80.71593461 -3.09554524 103.92726794 0.65941432 128 7 C125.00631142 24.1126679 104.35163111 43.66429949 90.85620117 53.25732422 C66.10307548 70.00352813 36.30897375 75.63747632 7 70 C-24.72895827 62.95163317 -48.65212553 43.12469853 -66.1875 16.3125 C-66.57437988 15.72436523 -66.96125977 15.13623047 -67.35986328 14.53027344 C-69.10428836 11.78201906 -70 10.32196205 -70 7 C-46.99866884 1.11326528 -23.66165686 -4.2209211 0 0 Z M-29.16015625 8.71484375 C-29.94643906 8.89004044 -30.73272186 9.06523712 -31.54283142 9.2457428 C-33.20160698 9.61618596 -34.85992929 9.9886638 -36.51782227 10.36303711 C-39.05581461 10.93599077 -41.59513569 11.50271341 -44.13476562 12.06835938 C-45.74747731 12.42932368 -47.36011028 12.79063989 -48.97265625 13.15234375 C-49.73208023 13.3221727 -50.49150421 13.49200165 -51.27394104 13.66697693 C-54.23574795 14.33705974 -57.11696845 15.03898948 -60 16 C-58.66961315 20.84900562 -56.53513426 24.42169784 -53.4375 28.3125 C-52.98987305 28.88009033 -52.54224609 29.44768066 -52.08105469 30.0324707 C-37.40238843 48.36005629 -17.77028502 60.37405182 5 66 C6.31677734 66.33644531 6.31677734 66.33644531 7.66015625 66.6796875 C35.36640883 72.4999938 63.23472814 65.45516536 87 51 C90.50786028 48.51070431 93.76550961 45.83161792 97 43 C98.02480469 42.17242187 98.02480469 42.17242187 99.0703125 41.328125 C106.51699719 35.19556113 113.18270579 27.37790297 118 19 C118 18.01 118 17.02 118 16 C113.48557287 14.87004941 108.9689594 13.74944321 104.45019531 12.63696289 C102.91735368 12.25825895 101.38510893 11.87712961 99.85351562 11.4934082 C86.35069813 8.11329691 75.39894864 6.64622937 61.51812744 8.63574219 C35.87868104 12.24584167 11.85344545 10.6818229 -13.71386719 7.3671875 C-19.19296056 6.75496191 -23.85076963 7.5101497 -29.16015625 8.71484375 Z " fill="#000000" transform="translate(126,200)"/>
<path d="M0 0 C0.06525047 3.86405111 0.11594355 7.43658845 -0.875 11.18359375 C-1.14570313 12.23256836 -1.14570313 12.23256836 -1.421875 13.30273438 C-1.70804688 14.35944336 -1.70804688 14.35944336 -2 15.4375 C-2.19078125 16.16904297 -2.3815625 16.90058594 -2.578125 17.65429688 C-3.04450403 19.43819666 -3.52118278 21.21939845 -4 23 C-7.36541838 24.08174162 -8.29847322 23.92538169 -12 23 C-11.67 19.37 -11.34 15.74 -11 12 C-11.66 15.63 -12.32 19.26 -13 23 C-14.32 23.33 -15.64 23.66 -17 24 C-16.87431641 22.71802734 -16.87431641 22.71802734 -16.74609375 21.41015625 C-16.64425781 20.30542969 -16.54242188 19.20070312 -16.4375 18.0625 C-16.33308594 16.96035156 -16.22867188 15.85820312 -16.12109375 14.72265625 C-16.08113281 13.82417969 -16.04117188 12.92570312 -16 12 C-16.33 11.67 -16.66 11.34 -17 11 C-17.66 15.29 -18.32 19.58 -19 24 C-20.32 24 -21.64 24 -23 24 C-22.03644647 14.58997722 -22.03644647 14.58997722 -21 10 C-21.66 10 -22.32 10 -23 10 C-22.979375 11.175625 -22.95875 12.35125 -22.9375 13.5625 C-22.93052739 17.47413467 -23.35749657 21.14497944 -24 25 C-24.7425 24.814375 -25.485 24.62875 -26.25 24.4375 C-28.94990963 24.00796892 -30.44631077 24.14877026 -33 25 C-33.2396943 19.36718401 -32.38529821 14.45461169 -31 9 C-31.66 9 -32.32 9 -33 9 C-33.66 14.28 -34.32 19.56 -35 25 C-35.99 25.33 -36.98 25.66 -38 26 C-38.02717692 23.93757383 -38.0464758 21.87504297 -38.0625 19.8125 C-38.07410156 18.66394531 -38.08570313 17.51539063 -38.09765625 16.33203125 C-38 13 -38 13 -37 8 C-42.94 8 -48.88 8 -55 8 C-54.3044232 12.80252486 -54.3044232 12.80252486 -53.59350586 17.6027832 C-53.14377538 20.83486937 -52.95458068 22.86374204 -54 26 C-54.99 25.67 -55.98 25.34 -57 25 C-57.19916016 23.62714844 -57.19916016 23.62714844 -57.40234375 22.2265625 C-57.57894531 21.03804687 -57.75554687 19.84953125 -57.9375 18.625 C-58.11152344 17.44164062 -58.28554687 16.25828125 -58.46484375 15.0390625 C-58.83462786 12.09297619 -58.83462786 12.09297619 -60 10 C-59.505 17.425 -59.505 17.425 -59 25 C-60.65 24.67 -62.3 24.34 -64 24 C-65.32 24 -66.64 24 -68 24 C-68.66 19.71 -69.32 15.42 -70 11 C-69.67 15.29 -69.34 19.58 -69 24 C-70.32 24 -71.64 24 -73 24 C-73.66 20.7 -74.32 17.4 -75 14 C-75 17.3 -75 20.6 -75 24 C-76.32 23.67 -77.64 23.34 -79 23 C-79.804375 23.185625 -80.60875 23.37125 -81.4375 23.5625 C-84.85502131 24.14597925 -86.07230012 23.9057669 -89 22 C-90.24968489 18.94700216 -90.76143997 15.80445055 -91.3125 12.5625 C-91.48072266 11.69044922 -91.64894531 10.81839844 -91.82226562 9.91992188 C-92.45651643 6.55192066 -93 3.43435618 -93 0 C-60.72638993 -5.26002487 -32.23981318 -5.62096344 0 0 Z M-27 9 C-28.4783226 11.95664519 -28.06032783 14.74229737 -28 18 C-27.67 18 -27.34 18 -27 18 C-26.67 15.03 -26.34 12.06 -26 9 C-26.33 9 -26.66 9 -27 9 Z M-66 10 C-65.67 12.64 -65.34 15.28 -65 18 C-64.67 18 -64.34 18 -64 18 C-64 15.69 -64 13.38 -64 11 C-64.66 10.67 -65.32 10.34 -66 10 Z M-82 11 C-81.67 13.64 -81.34 16.28 -81 19 C-80.67 19 -80.34 19 -80 19 C-80 16.69 -80 14.38 -80 12 C-80.66 11.67 -81.32 11.34 -82 11 Z M-86 13 C-85 17 -85 17 -85 17 Z M-7 13 C-6 17 -6 17 -6 17 Z " fill="#000000" transform="translate(201,164)"/>
<path d="M0 0 C1.15693359 -0.00095673 2.31386719 -0.00191345 3.50585938 -0.00289917 C5.93619847 -0.00357545 8.36653944 -0.00175997 10.796875 0.00244141 C14.48962511 0.00779745 18.18225361 0.00247749 21.875 -0.00390625 C24.25000026 -0.00324537 26.62500046 -0.00196401 29 0 C30.08990234 -0.00202423 31.17980469 -0.00404846 32.30273438 -0.00613403 C53.27702053 0.05714627 53.27702053 0.05714627 58.84375 5.4296875 C64.37271665 11.3703857 69.93137488 19.42693715 72.5 27.1328125 C71.571875 27.5453125 70.64375 27.9578125 69.6875 28.3828125 C66.44504518 29.82695118 66.44504518 29.82695118 65.125 32.3203125 C63.5 34.1328125 63.5 34.1328125 60.203125 34.3984375 C54.2330627 34.26132538 48.4567778 32.88102158 42.625 31.6953125 C20.68802645 27.49470932 1.98733682 28.23893898 -19.875 32.8203125 C-29.7640231 34.86142433 -29.7640231 34.86142433 -34.5 34.1328125 C-36.125 31.6953125 -36.125 31.6953125 -37.5 29.1328125 C-40.5957107 28.24074071 -40.5957107 28.24074071 -43.5 28.1328125 C-42.05814579 22.92119421 -39.69291478 18.98327058 -36.6875 14.5703125 C-36.04844727 13.60061523 -36.04844727 13.60061523 -35.39648438 12.61132812 C-28.88498074 2.92780608 -28.88498074 2.92780608 -23.5 1.1328125 C-15.69556356 0.05618223 -7.86391944 -0.01460534 0 0 Z M-25.5 6.1328125 C-26.92720884 7.77016745 -26.92720884 7.77016745 -28.078125 9.72265625 C-28.73554687 10.77549805 -28.73554687 10.77549805 -29.40625 11.84960938 C-29.8496875 12.58244141 -30.293125 13.31527344 -30.75 14.0703125 C-31.20890625 14.79927734 -31.6678125 15.52824219 -32.140625 16.27929688 C-34.81082861 20.38768832 -34.81082861 20.38768832 -35.5 25.1328125 C-27.69365558 24.72120525 -19.98685743 23.96729316 -12.23413086 22.98779297 C8.3144415 20.43396938 27.15268897 21.17644778 47.63256836 23.70922852 C48.75018555 23.84712547 48.75018555 23.84712547 49.89038086 23.98780823 C51.29663843 24.16292736 52.70251371 24.34115522 54.10791016 24.52305603 C57.59588172 24.96167364 60.98430615 25.22729545 64.5 25.1328125 C63.93589001 20.18967918 61.76890957 16.5844 59.1875 12.4453125 C58.81560547 11.76919922 58.44371094 11.09308594 58.06054688 10.39648438 C56.11246721 7.30356169 54.57323722 5.45497985 50.99572754 4.381073 C43.56391493 3.25763954 36.34367154 2.85287146 28.83203125 2.90234375 C27.67176926 2.90280197 26.51150726 2.90326019 25.31608582 2.9037323 C22.88332078 2.90673135 20.45055726 2.9145463 18.01782227 2.92700195 C14.31194193 2.94531526 10.60631164 2.94751077 6.90039062 2.94726562 C4.52343536 2.95218014 2.14648177 2.95800817 -0.23046875 2.96484375 C-1.87610054 2.96651299 -1.87610054 2.96651299 -3.55497742 2.96821594 C-14.92939483 2.67672837 -14.92939483 2.67672837 -25.5 6.1328125 Z " fill="#000000" transform="translate(140.5,128.8671875)"/>
<path d="M0 0 C0.91136719 0.27714844 1.82273437 0.55429688 2.76171875 0.83984375 C18.73522266 6.42156734 32.02797817 19.46781992 39.69921875 34.28125 C43.27462291 41.83028736 46.41434572 48.50591266 46 57 C47.65 57.66 49.3 58.32 51 59 C51 60.32 51 61.64 51 63 C45.39 62.67 39.78 62.34 34 62 C33.67 60.68 33.34 59.36 33 58 C35.97 58 38.94 58 42 58 C36.32359165 37.62247877 27.37654819 20.85681837 8.70703125 9.91015625 C-7.15138328 1.31150372 -27.37956577 -0.98461334 -44.79296875 3.84375 C-62.38860212 10.18760807 -77.05522897 20.83775752 -85.4921875 38.04296875 C-88.00543875 43.90970021 -90.07405161 49.91805772 -92 56 C-93.32 56 -94.64 56 -96 56 C-95.16732967 39.62415021 -86.50914059 25.49971017 -74.8203125 14.3828125 C-65.53052081 6.53409653 -55.72873866 1.38766966 -44 -2 C-43.1853125 -2.24492188 -42.370625 -2.48984375 -41.53125 -2.7421875 C-27.67365346 -6.20658664 -13.39208895 -4.23762903 0 0 Z " fill="#000000" transform="translate(180,95)"/>
<path d="M0 0 C10.47831685 8.42964145 20.39640582 20.09325022 22.85205078 33.68115234 C23.09581367 36.04865766 23.26794966 38.38453369 23.32470703 40.76318359 C22.00470703 40.76318359 20.68470703 40.76318359 19.32470703 40.76318359 C18.96119141 39.72419922 18.59767578 38.68521484 18.22314453 37.61474609 C11.90857175 19.92841998 3.83735754 7.19114665 -13.67529297 -1.23681641 C-29.32779155 -7.547689 -44.9690732 -8.12157788 -60.74169922 -1.64306641 C-74.53939479 4.50521418 -84.21488198 13.92448901 -90.67529297 27.76318359 C-91.85210606 30.8421411 -92.90209532 33.91567104 -93.85107422 37.07177734 C-95.46555514 42.34370794 -95.46555514 42.34370794 -96.67529297 44.76318359 C-102.35852064 46.85700431 -107.66804962 47.0134854 -113.67529297 46.76318359 C-113.67529297 45.44318359 -113.67529297 44.12318359 -113.67529297 42.76318359 C-111.7383133 42.42683984 -109.80068811 42.09421195 -107.86279297 41.76318359 C-106.78384766 41.57755859 -105.70490234 41.39193359 -104.59326172 41.20068359 C-101.67529297 40.76318359 -101.67529297 40.76318359 -98.67529297 40.76318359 C-98.82998047 39.43287109 -98.82998047 39.43287109 -98.98779297 38.07568359 C-98.93714797 25.56636891 -90.20661077 14.35562342 -82.11279297 5.63818359 C-60.39852067 -15.25482273 -24.46463961 -18.06147832 0 0 Z " fill="#000000" transform="translate(192.67529296875,111.23681640625)"/>
<path d="M0 0 C2 0.0625 2 0.0625 4 1 C4.268125 1.70125 4.53625 2.4025 4.8125 3.125 C7.06343438 8.5746306 11.65833855 12.61154786 17 15 C15.41641358 18.16717283 14.54736301 19.73268318 11.3125 21.3125 C10.549375 21.539375 9.78625 21.76625 9 22 C8.505 19.03 8.505 19.03 8 16 C6.05925139 16.27617533 6.05925139 16.27617533 4 17 C3.34 17.99 2.68 18.98 2 20 C3.98 20.99 5.96 21.98 8 23 C6.9802693 26.77300358 6.34127338 27.80206144 2.875 29.8125 C1.92625 30.204375 0.9775 30.59625 0 31 C-0.556875 29.453125 -0.556875 29.453125 -1.125 27.875 C-2.92435343 23.60696844 -5.60188499 21.09606034 -9 18 C-9.66 19.32 -10.32 20.64 -11 22 C-13.64 21.67 -16.28 21.34 -19 21 C-18.67 21.99 -18.34 22.98 -18 24 C-17.24074219 23.96519531 -16.48148438 23.93039063 -15.69921875 23.89453125 C-14.20841797 23.85392578 -14.20841797 23.85392578 -12.6875 23.8125 C-11.70136719 23.77769531 -10.71523437 23.74289063 -9.69921875 23.70703125 C-7 24 -7 24 -5.17578125 25.296875 C-3.1548486 28.22420602 -3.51949975 30.57643572 -4 34 C-6.76430791 37.28261564 -9.18393969 38.20734731 -13.3125 38.75 C-14.529375 38.8325 -15.74625 38.915 -17 39 C-17.99 37.35 -18.98 35.7 -20 34 C-19.34 33.34 -18.68 32.68 -18 32 C-17.01 32 -16.02 32 -15 32 C-15 32.66 -15 33.32 -15 34 C-13.35 33.34 -11.7 32.68 -10 32 C-10 31.34 -10 30.68 -10 30 C-10.74765625 30.04640625 -11.4953125 30.0928125 -12.265625 30.140625 C-20.23824513 30.43281527 -20.23824513 30.43281527 -23.75 28.4375 C-25.56873125 24.89097406 -25.0972376 22.77175426 -24 19 C-21.81837437 16.65677247 -20.13304662 16.03963091 -17.0625 15.125 C-13.79222386 14.17309754 -13.79222386 14.17309754 -11.375 11.3125 C-9 9 -9 9 -6.8125 8.875 C-4.28139865 10.44602842 -3.85642472 12.21661967 -3 15 C-1.68 14.01 -0.36 13.02 1 12 C0.67 11.01 0.34 10.02 0 9 C-2.50447516 7.78130071 -2.50447516 7.78130071 -5 7 C-3.47793991 4.37098712 -2.15634036 2.15634036 0 0 Z " fill="#F5CD3A" transform="translate(213,213)"/>
<path d="M0 0 C4.16428184 0.51064596 5.93184181 1.56450339 8.8125 4.5625 C20.84740124 15.73346008 37.81531736 21 54 21 C71.76870309 19.81170638 87.1849034 14.45022143 99.80859375 1.66015625 C102 0 102 0 104.28515625 0.24609375 C104.85105469 0.49488281 105.41695313 0.74367187 106 1 C105.11520663 6.79603774 100.43599456 9.64105762 96 13 C78.79612234 24.40040873 59.19004431 28.80250738 38.6953125 25.38671875 C22.86853777 22.12860615 10.15857391 14.49671252 -1 3 C-0.67 2.01 -0.34 1.02 0 0 Z " fill="#000000" transform="translate(102,210)"/>
<path d="M0 0 C2.78211944 0.37596209 4.5879284 0.67318459 6.8125 2.4375 C8 4 8 4 8 6 C6.35 6.33 4.7 6.66 3 7 C3 7.99 3 8.98 3 10 C4.32 10.66 5.64 11.32 7 12 C7.66 10.02 8.32 8.04 9 6 C10.98 6.66 12.96 7.32 15 8 C15.33 9.65 15.66 11.3 16 13 C15.443125 13.185625 14.88625 13.37125 14.3125 13.5625 C10.97799753 15.63529883 8.86766143 18.5631968 7 22 C7 22.99 7 23.98 7 25 C10.94264882 23.68578373 13.33956629 22.21086827 16 19 C17.25436187 16.36777038 17.25436187 16.36777038 18 14 C20.375 14.6875 20.375 14.6875 23 16 C24.3125 18.625 24.3125 18.625 25 21 C24.113125 21.391875 23.22625 21.78375 22.3125 22.1875 C17.55708614 24.7895189 14.07000891 27.91906904 12 33 C9.625 32.3125 9.625 32.3125 7 31 C6.33333333 29.33333333 5.66666667 27.66666667 5 26 C3.34183216 25.31246699 1.67540664 24.64438717 0 24 C-0.8125 21.875 -0.8125 21.875 -1 20 C0.32 19.67 1.64 19.34 3 19 C2.20882096 17.00016466 2.20882096 17.00016466 1 15 C0.01 14.67 -0.98 14.34 -2 14 C-2.33 15.98 -2.66 17.96 -3 20 C-7.67692308 18.52307692 -7.67692308 18.52307692 -9.3125 15.875 C-9.539375 15.25625 -9.76625 14.6375 -10 14 C-9.2575 13.46375 -8.515 12.9275 -7.75 12.375 C-3.83500756 8.99387017 -0.80403316 5.22621555 0 0 Z " fill="#F3CC38" transform="translate(203,83)"/>
<path d="M0 0 C0 3.3 0 6.6 0 10 C0.66 10 1.32 10 2 10 C2.33 6.7 2.66 3.4 3 0 C4.32 -0.33 5.64 -0.66 7 -1 C8.89865603 1.97180943 10.35455571 4.51460083 11 8 C11.66 6.35 12.32 4.7 13 3 C12.34 3 11.68 3 11 3 C11 1.68 11 0.36 11 -1 C13.97 -1 16.94 -1 20 -1 C20 0.32 20 1.64 20 3 C19.34 3 18.68 3 18 3 C17.86722656 4.12019531 17.73445313 5.24039063 17.59765625 6.39453125 C17.41943431 7.86720729 17.24103989 9.33986247 17.0625 10.8125 C16.97548828 11.55048828 16.88847656 12.28847656 16.79882812 13.04882812 C16.41783454 16.16733121 15.99630626 19.01108122 15 22 C13.35 22 11.7 22 10 22 C8.68 19.03 7.36 16.06 6 13 C5.34 15.97 4.68 18.94 4 22 C2.02 22 0.04 22 -2 22 C-2.81520635 19.27161565 -3.62724843 16.54235583 -4.4375 13.8125 C-4.66759766 13.04357422 -4.89769531 12.27464844 -5.13476562 11.48242188 C-6.26235986 7.67474859 -7.3168177 3.91848238 -8 0 C-4.71023192 -1.09658936 -3.28696233 -0.79953138 0 0 Z " fill="#F4CD3B" transform="translate(153,241)"/>
<path d="M0 0 C6.15234375 0.5859375 6.15234375 0.5859375 8 1 C8.33 1.66 8.66 2.32 9 3 C8.01 4.485 8.01 4.485 7 6 C6.54398739 8.50896686 6.54398739 8.50896686 6.375 11.1875 C6.30023438 12.08855469 6.22546875 12.98960938 6.1484375 13.91796875 C6.09945312 14.60503906 6.05046875 15.29210937 6 16 C6.99 16.33 7.98 16.66 9 17 C9 16.34 9 15.68 9 15 C10.32 15 11.64 15 13 15 C13 17.31 13 19.62 13 22 C5.74 21.34 -1.52 20.68 -9 20 C-9 18.68 -9 17.36 -9 16 C-10.32 15.67 -11.64 15.34 -13 15 C-13 16.98 -13 18.96 -13 21 C-15.31 21.33 -17.62 21.66 -20 22 C-18.29787234 4.29787234 -18.29787234 4.29787234 -15 1 C-13.35 1 -11.7 1 -10 1 C-7.36 6.28 -4.72 11.56 -2 17 C0.38392117 15.06029948 0.38392117 15.06029948 0.1953125 11.5234375 C0.18201493 10.14049032 0.15816232 8.75761346 0.125 7.375 C0.11597656 6.66859375 0.10695312 5.9621875 0.09765625 5.234375 C0.07407603 3.48943902 0.03820461 1.74467705 0 0 Z M-13 9 C-13 9.99 -13 10.98 -13 12 C-12.34 12 -11.68 12 -11 12 C-11.33 11.01 -11.66 10.02 -12 9 C-12.33 9 -12.66 9 -13 9 Z " fill="#F5CE3C" transform="translate(158,69)"/>
<path d="M0 0 C2.34535481 1.01971948 4.59649194 2.097098 6.875 3.25 C22.62341806 10.83243267 37.81831755 12.19411408 54.57421875 7.29296875 C58.7617507 5.71249774 62.31285061 3.66803575 65.94921875 1.07421875 C68 0 68 0 70.26953125 0.33203125 C70.84058594 0.55246094 71.41164063 0.77289063 72 1 C71.62440689 3.39567496 71.35164104 4.67656546 69.5390625 6.34375 C53.79098484 15.85687447 35.81987614 18.27853462 18 14 C10.66638902 11.69563141 3.80804277 9.13268896 -2 4 C-2 3.01 -2 2.02 -2 1 C-1.34 0.67 -0.68 0.34 0 0 Z " fill="#000000" transform="translate(120,210)"/>
<path d="M0 0 C6.86940393 0.473752 10.99413427 1.99413427 16 7 C16.38286803 10.73296326 16.14915785 11.77626323 14 15 C13.34 15 12.68 15 12 15 C12.33 15.99 12.66 16.98 13 18 C13.06740865 19.56118428 13.08514456 21.1250252 13.0625 22.6875 C13.05347656 23.49574219 13.04445312 24.30398438 13.03515625 25.13671875 C13.02355469 25.75160156 13.01195312 26.36648438 13 27 C11.02 26.67 9.04 26.34 7 26 C6.92652344 25.04287109 6.92652344 25.04287109 6.8515625 24.06640625 C6.73941406 22.82697266 6.73941406 22.82697266 6.625 21.5625 C6.55539063 20.73878906 6.48578125 19.91507813 6.4140625 19.06640625 C6.27742187 18.38449219 6.14078125 17.70257813 6 17 C5.34 16.67 4.68 16.34 4 16 C3.67 18.64 3.34 21.28 3 24 C-3.75 23.125 -3.75 23.125 -6 22 C-5.67 20.68 -5.34 19.36 -5 18 C-4.34 18 -3.68 18 -3 18 C-2.87625 17.360625 -2.7525 16.72125 -2.625 16.0625 C-2.26645261 14.3056178 -1.89533272 12.55096938 -1.48828125 10.8046875 C-1.30652344 10.02351562 -1.12476562 9.24234375 -0.9375 8.4375 C-0.76089844 7.69371094 -0.58429688 6.94992188 -0.40234375 6.18359375 C0.1208048 3.71442868 0.1208048 3.71442868 0 0 Z M6 7 C5.34 8.98 4.68 10.96 4 13 C5.98 12.67 7.96 12.34 10 12 C9.67 10.35 9.34 8.7 9 7 C8.01 7 7.02 7 6 7 Z " fill="#F6CE3C" transform="translate(122,234)"/>
<path d="M0 0 C0.04898438 0.59167969 0.09796875 1.18335937 0.1484375 1.79296875 C0.5720819 6.27045184 1.30578199 9.8209289 3 14 C3.125 17.3125 3.125 17.3125 3 20 C-1.87362847 19.54663921 -4.39042389 18.2910841 -8 15 C-7.505 15.86625 -7.505 15.86625 -7 16.75 C-6 19 -6 19 -6 23 C-8.31 23.33 -10.62 23.66 -13 24 C-14 19 -15 14 -16 9 C-16.99 8.67 -17.98 8.34 -19 8 C-19 7.01 -19 6.02 -19 5 C-15.9375 4.125 -15.9375 4.125 -12 4 C-9.32583725 5.67780481 -7.17329365 7.72101425 -5 10 C-5.33 8.35 -5.66 6.7 -6 5 C-6.99 4.67 -7.98 4.34 -9 4 C-8.67 3.01 -8.34 2.02 -8 1 C-5.07175348 0.02391783 -3.04386724 -0.08226668 0 0 Z " fill="#F4CC3B" transform="translate(134,72)"/>
<path d="M0 0 C1.32 0.33 2.64 0.66 4 1 C5.19876651 6.44893869 4.91360308 9.22169095 2 14 C2.5775 13.319375 3.155 12.63875 3.75 11.9375 C6 10 6 10 8.125 10.0625 C10 11 10 11 12 14 C12 14.99 12 15.98 12 17 C10.845 17.391875 9.69 17.78375 8.5 18.1875 C4.52388779 19.65908602 1.16881477 21.64496373 -2.3359375 24.01171875 C-4 25 -4 25 -6 25 C-6.85637238 22.07406105 -7.38673104 19.91825712 -6.17578125 17.04296875 C-5.17852152 15.32488268 -4.09427085 13.65798613 -3 12 C-3.7425 12.845625 -4.485 13.69125 -5.25 14.5625 C-8 17 -8 17 -10.1875 17 C-12 16 -12 16 -14 13 C-14 12.01 -14 11.02 -14 10 C-12.948125 9.566875 -11.89625 9.13375 -10.8125 8.6875 C-4.91517034 6.3090998 -4.91517034 6.3090998 -0.6875 1.8125 C-0.460625 1.214375 -0.23375 0.61625 0 0 Z " fill="#F7CD3A" transform="translate(229,106)"/>
<path d="M0 0 C2.4375 0.1875 2.4375 0.1875 3.4375 1.1875 C3.87557504 6.66343794 3.09913882 11.74950556 2.0625 17.125 C1.93649414 17.79998535 1.81048828 18.4749707 1.68066406 19.17041016 C1.33624627 20.8585727 0.89420218 22.52619344 0.4375 24.1875 C-0.2225 24.5175 -0.8825 24.8475 -1.5625 25.1875 C-4.1875 24 -4.1875 24 -6.5625 22.1875 C-6.5625 20.8675 -6.5625 19.5475 -6.5625 18.1875 C-5.9025 18.1875 -5.2425 18.1875 -4.5625 18.1875 C-4.5625 17.5275 -4.5625 16.8675 -4.5625 16.1875 C-5.5525 15.8575 -6.5425 15.5275 -7.5625 15.1875 C-7.5625 14.5275 -7.5625 13.8675 -7.5625 13.1875 C-8.2225 13.1875 -8.8825 13.1875 -9.5625 13.1875 C-9.8925 14.8375 -10.2225 16.4875 -10.5625 18.1875 C-13.4375 17.9375 -13.4375 17.9375 -16.5625 17.1875 C-17.7578125 15.140625 -17.7578125 15.140625 -18.5625 13.1875 C-17.57507813 12.41664063 -16.58765625 11.64578125 -15.5703125 10.8515625 C-14.27598671 9.83861188 -12.98171889 8.82558719 -11.6875 7.8125 C-11.03652344 7.30460938 -10.38554688 6.79671875 -9.71484375 6.2734375 C-9.08964844 5.78359375 -8.46445313 5.29375 -7.8203125 4.7890625 C-7.2442627 4.33869629 -6.66821289 3.88833008 -6.07470703 3.42431641 C-2.07342405 0.15171395 -2.07342405 0.15171395 0 0 Z M-3.5625 8.1875 C-4.5525 9.6725 -4.5525 9.6725 -5.5625 11.1875 C-4.5725 11.1875 -3.5825 11.1875 -2.5625 11.1875 C-2.8925 10.1975 -3.2225 9.2075 -3.5625 8.1875 Z " fill="#F6CD3C" transform="translate(113.5625,228.8125)"/>
<path d="M0 0 C4.54231213 4.26702049 8.2502429 9.03290469 12 14 C12.56460938 14.71027344 13.12921875 15.42054688 13.7109375 16.15234375 C15 18 15 18 15 20 C12.36 20.66 9.72 21.32 7 22 C7 20.35 7 18.7 7 17 C5.02 17 3.04 17 1 17 C1.66 18.98 2.32 20.96 3 23 C0 25 0 25 -5 25 C-4.67 17.41 -4.34 9.82 -4 2 C-2.68 1.34 -1.36 0.68 0 0 Z M0 11 C0 12.98 0 14.96 0 17 C0.66 15.68 1.32 14.36 2 13 C1.34 12.34 0.68 11.68 0 11 Z " fill="#F5CE3C" transform="translate(179,236)"/>
<path d="M0 0 C2 2 2 2 2.25 4.375 C3.3281603 8.14856105 5.78878385 8.92608957 9 11 C9.875 13.25 9.875 13.25 10 15 C7.25 15.75 7.25 15.75 4 16 C1.625 14.0625 1.625 14.0625 0 12 C-0.99 12.495 -0.99 12.495 -2 13 C-0.68 13.99 0.64 14.98 2 16 C1.6875 17.875 1.6875 17.875 1 20 C-2 22 -2 22 -4.1875 21.625 C-5.0846875 21.315625 -5.0846875 21.315625 -6 21 C-6.0825 20.29875 -6.165 19.5975 -6.25 18.875 C-7.391307 14.49998985 -9.3380274 11.01564992 -13.25 8.625 C-13.8275 8.41875 -14.405 8.2125 -15 8 C-13.76399541 4.15465238 -11.37448286 2.6114168 -7.87890625 0.7578125 C-5.13315151 -0.34962288 -2.90972926 -0.40600873 0 0 Z M-6 5 C-6 5.99 -6 6.98 -6 8 C-5.34 8.66 -4.68 9.32 -4 10 C-3.34 8.68 -2.68 7.36 -2 6 C-3.32 5.67 -4.64 5.34 -6 5 Z " fill="#F4CD3C" transform="translate(111,83)"/>
<path d="M0 0 C4.11411561 2.56161916 5.73147299 3.94379376 6.9375 8.6875 C7 12 7 12 6 14 C3.525 13.505 3.525 13.505 1 13 C1 10.69 1 8.38 1 6 C-3.9018863 6.26470758 -3.9018863 6.26470758 -7.9375 8.75 C-9.16717908 11.35402628 -9.23723981 13.15312226 -9 16 C-6.3260876 16.89130413 -3.76276177 17.47731534 -1 18 C-2.875 21.875 -2.875 21.875 -4 23 C-8.10410606 22.84512807 -10.30811826 22.6372595 -13.375 19.8125 C-15.20338159 16.64799341 -15.92535666 14.65752359 -16 11 C-13.32504385 3.56956625 -7.97728729 -0.92045623 0 0 Z " fill="#F7CE3B" transform="translate(99,216)"/>
<path d="M0 0 C3.99996286 1.33332095 4.83782337 3.4957827 7 7 C10.63 6.67 14.26 6.34 18 6 C17.74438677 8.3431213 17.40729228 10.67843403 17 13 C16.01 13.495 16.01 13.495 15 14 C12.875 13.0625 12.875 13.0625 11 12 C11 12.99 11 13.98 11 15 C12.32 15 13.64 15 15 15 C14.67 17.31 14.34 19.62 14 22 C12.68 22 11.36 22 10 22 C7.75 19 7.75 19 6 16 C2.04 16.33 -1.92 16.66 -6 17 C-5.34 14.69 -4.68 12.38 -4 10 C0 10 0 10 2 11 C1.67 10.34 1.34 9.68 1 9 C0.01 8.67 -0.98 8.34 -2 8 C-1.125 1.125 -1.125 1.125 0 0 Z " fill="#F4CC37" transform="translate(67,125)"/>
<path d="M0 0 C0.58523437 0.21914062 1.17046875 0.43828125 1.7734375 0.6640625 C2.1034375 1.9840625 2.4334375 3.3040625 2.7734375 4.6640625 C0.7934375 5.6540625 -1.1865625 6.6440625 -3.2265625 7.6640625 C-0.60542542 7.6640625 1.28278862 7.35113805 3.7734375 6.6640625 C4.70408883 9.26988621 4.92261157 10.30604474 3.8359375 12.9140625 C3.4853125 13.4915625 3.1346875 14.0690625 2.7734375 14.6640625 C3.7634375 14.3340625 4.7534375 14.0040625 5.7734375 13.6640625 C6.50667546 11.64897892 6.50667546 11.64897892 6.7734375 9.6640625 C9.2484375 10.1590625 9.2484375 10.1590625 11.7734375 10.6640625 C12.046875 12.89453125 12.046875 12.89453125 11.7734375 15.6640625 C9.875 17.90234375 9.875 17.90234375 7.3984375 19.9765625 C6.58632812 20.67394531 5.77421875 21.37132813 4.9375 22.08984375 C2.7734375 23.6640625 2.7734375 23.6640625 0.7734375 23.6640625 C0.4021875 22.7771875 0.0309375 21.8903125 -0.3515625 20.9765625 C-3.08071091 16.15506698 -6.6212778 13.7342523 -11.2265625 10.6640625 C-10.01182628 6.07505901 -7.49631254 3.75991827 -4.078125 0.703125 C-2.2265625 -0.3359375 -2.2265625 -0.3359375 0 0 Z " fill="#F2CD39" transform="translate(93.2265625,93.3359375)"/>
<path d="M0 0 C0.99 0 1.98 0 3 0 C3.67467562 1.74692795 4.33944156 3.49768525 5 5.25 C5.556875 6.71179688 5.556875 6.71179688 6.125 8.203125 C7 11 7 11 7 15 C5.02 15.33 3.04 15.66 1 16 C1 13.69 1 11.38 1 9 C0.01 8.67 -0.98 8.34 -2 8 C-1.67 10.31 -1.34 12.62 -1 15 C-2.32 15 -3.64 15 -5 15 C-5.33 13.35 -5.66 11.7 -6 10 C-6.99 10.33 -7.98 10.66 -9 11 C-9 12.32 -9 13.64 -9 15 C-8.01 15 -7.02 15 -6 15 C-6 16.32 -6 17.64 -6 19 C-7.98 19.33 -9.96 19.66 -12 20 C-12.67220351 18.06441401 -13.33758077 16.12645628 -14 14.1875 C-14.37125 13.10855469 -14.7425 12.02960938 -15.125 10.91796875 C-16 8 -16 8 -16 5 C-15.12988281 4.92652344 -15.12988281 4.92652344 -14.2421875 4.8515625 C-9.5893995 4.40624616 -5.34578924 3.84696043 -1 2 C-0.67 1.34 -0.34 0.68 0 0 Z " fill="#F4CD3B" transform="translate(241,127)"/>
<path d="M0 0 C2.875 1.6875 2.875 1.6875 5 4 C5.3125 6.75 5.3125 6.75 5 9 C3.68 9.33 2.36 9.66 1 10 C0.67 8.68 0.34 7.36 0 6 C-1.32 5.67 -2.64 5.34 -4 5 C-3.33291016 5.76183594 -3.33291016 5.76183594 -2.65234375 6.5390625 C2 12.19817768 2 12.19817768 2 16.375 C1 19 1 19 -1 21 C-4.03835998 21.48337545 -6.08991605 21.59093686 -8.7265625 19.87890625 C-10.20215171 18.64458637 -11.60692177 17.32674117 -13 16 C-12.67 14.35 -12.34 12.7 -12 11 C-10.68 11 -9.36 11 -8 11 C-7.67 12.32 -7.34 13.64 -7 15 C-5.68 15.33 -4.36 15.66 -3 16 C-3.44472656 15.50371094 -3.88945312 15.00742188 -4.34765625 14.49609375 C-9 8.91116173 -9 8.91116173 -9 4.0625 C-8.67 3.051875 -8.34 2.04125 -8 1 C-5.14675563 -0.42662219 -3.16545451 -0.31033868 0 0 Z " fill="#F5CD3C" transform="translate(193,76)"/>
<path d="M0 0 C2.0625 0.4375 2.0625 0.4375 4 1 C4.33 2.32 4.66 3.64 5 5 C4.01 5.66 3.02 6.32 2 7 C3.24556092 7.81928886 4.49666635 8.63015186 5.75 9.4375 C6.79414062 10.11619141 6.79414062 10.11619141 7.859375 10.80859375 C9.92957014 11.9608009 11.68696324 12.54676982 14 13 C13.64950425 16.24208567 13.43778819 17.61527704 10.9375 19.8125 C10.298125 20.204375 9.65875 20.59625 9 21 C8.443125 20.236875 7.88625 19.47375 7.3125 18.6875 C5.01587126 16.01844497 3.12752243 14.56376121 0 13 C-0.66 13 -1.32 13 -2 13 C-2 13.99 -2 14.98 -2 16 C-3.65 16 -5.3 16 -7 16 C-7.7109375 13.828125 -7.7109375 13.828125 -8 11 C-6.6015625 8.359375 -6.6015625 8.359375 -4.625 5.75 C-3.65433594 4.44289063 -3.65433594 4.44289063 -2.6640625 3.109375 C-1 1 -1 1 0 0 Z " fill="#F4CE38" transform="translate(78,107)"/>
<path d="M0 0 C-0.57363911 3.87206399 -2.34105893 6.18465063 -5 9 C-5.99 9 -6.98 9 -8 9 C-7.64598897 5.81390075 -7.16972964 4.20933322 -5.125 1.6875 C-3 0 -3 0 0 0 Z " fill="#000000" transform="translate(88,260)"/>
<path d="M0 0 C2.125 0.9375 2.125 0.9375 4 2 C4 2.66 4 3.32 4 4 C4.66 4.33 5.32 4.66 6 5 C5.01 6.485 5.01 6.485 4 8 C2.125 7.6875 2.125 7.6875 0 7 C-2 4 -2 4 -2 1 C-1.34 0.67 -0.68 0.34 0 0 Z " fill="#ECC93C" transform="translate(217,115)"/>
<path d="M0 0 C0.99 0.66 1.98 1.32 3 2 C2.67 3.32 2.34 4.64 2 6 C-0.375 6.625 -0.375 6.625 -3 7 C-3.66 6.34 -4.32 5.68 -5 5 C-3.35 3.35 -1.7 1.7 0 0 Z " fill="#F6D041" transform="translate(219,102)"/>
<path d="M0 0 C1.32 0.33 2.64 0.66 4 1 C4.33 2.32 4.66 3.64 5 5 C3.68 5 2.36 5 1 5 C0.67 3.35 0.34 1.7 0 0 Z " fill="#E6C938" transform="translate(78,107)"/>
<path d="M0 0 C0.99 0 1.98 0 3 0 C3.1875 2.375 3.1875 2.375 3 5 C2.01 5.66 1.02 6.32 0 7 C0 4.69 0 2.38 0 0 Z " fill="#F5CA2F" transform="translate(103,91)"/>
<path d="M0 0 C0.66 1.32 1.32 2.64 2 4 C1.34 4.66 0.68 5.32 0 6 C-0.99 6 -1.98 6 -3 6 C-1.125 1.125 -1.125 1.125 0 0 Z " fill="#EECA2A" transform="translate(148,72)"/>
</svg>
